{"glyphs":{"0":{"ha":694,"x_min":50,"x_max":643,"o":"m 300 -14 q 164 26 219 -14 q 79 135 108 65 q 50 293 50 204 q 74 464 50 382 q 142 610 97 546 q 251 713 186 675 q 397 750 315 750 q 532 710 478 750 q 615 601 586 671 q 643 443 643 532 q 620 271 643 353 q 553 125 597 189 q 444 24 508 61 q 300 -14 381 -14 m 311 61 q 462 108 399 61 q 560 236 525 156 q 594 419 594 317 q 539 605 594 535 q 382 675 483 675 q 234 628 297 675 q 135 499 171 581 q 100 315 100 417 q 155 131 100 200 q 311 61 210 61 z "},"1":{"ha":694,"x_min":88,"x_max":607,"o":"m 88 0 l 92 21 l 249 60 l 357 676 l 214 715 l 218 736 l 607 736 l 603 715 l 446 676 l 338 60 l 481 21 l 476 0 l 88 0 z "},"2":{"ha":694,"x_min":32,"x_max":574,"o":"m 32 0 l 36 26 q 247 219 161 142 q 383 351 332 296 q 457 453 435 406 q 479 556 479 501 q 447 649 479 611 q 347 686 415 686 q 240 647 286 686 q 157 538 194 607 l 125 554 q 234 698 169 646 q 383 750 299 750 q 526 700 478 750 q 574 574 574 650 q 545 458 574 511 q 461 349 517 404 q 324 227 406 293 q 139 74 243 161 l 446 74 l 525 213 l 546 213 l 496 0 l 32 0 z "},"3":{"ha":694,"x_min":4,"x_max":579,"o":"m 235 -193 q 91 -164 151 -193 q 10 -92 31 -135 q 4 -65 4 -81 q 31 -29 4 -42 l 64 -7 l 76 -7 l 85 -31 q 142 -115 103 -81 q 253 -149 182 -149 q 415 -81 360 -149 q 469 88 469 -14 q 410 235 469 176 q 229 294 351 294 l 222 336 l 225 336 q 355 362 296 336 q 450 435 414 388 q 486 551 486 483 q 455 648 486 610 q 353 686 424 686 q 244 647 292 686 q 161 538 197 608 l 129 554 q 237 698 172 646 q 386 750 301 750 q 530 701 481 750 q 579 576 579 651 q 521 431 579 490 q 383 342 463 372 q 519 251 476 314 q 561 111 561 188 q 521 -44 561 25 q 407 -153 481 -114 q 235 -193 333 -193 z "},"4":{"ha":694,"x_min":-31,"x_max":613,"o":"m 294 -181 l 346 114 l -31 114 l -25 147 l 518 736 l 546 736 l 447 176 l 613 176 l 601 114 l 436 114 l 383 -181 l 294 -181 m 63 176 l 357 176 l 428 578 l 63 176 z "},"5":{"ha":694,"x_min":28,"x_max":610,"o":"m 203 -194 q 72 -169 117 -194 q 28 -110 28 -144 q 33 -90 28 -100 q 51 -72 38 -81 l 88 -49 l 96 -49 l 108 -74 q 154 -117 121 -100 q 250 -135 188 -135 q 426 -69 356 -135 q 496 122 496 -4 q 438 272 496 218 q 253 326 381 326 q 124 314 199 326 l 197 736 l 610 736 l 594 657 l 228 657 l 183 400 q 232 405 206 403 q 283 407 258 407 q 449 373 386 407 q 542 283 513 339 q 571 161 571 228 q 526 -12 571 69 q 399 -144 481 -93 q 203 -194 317 -194 z "},"6":{"ha":694,"x_min":47,"x_max":656,"o":"m 293 -14 q 156 22 211 -14 q 74 119 101 57 q 47 260 47 181 q 115 531 47 399 q 317 769 182 664 q 656 931 453 874 l 647 897 q 399 770 500 849 q 238 594 297 692 q 156 390 178 496 q 259 498 197 457 q 400 539 321 539 q 554 476 501 539 q 607 321 607 413 q 561 144 607 219 q 444 28 515 69 q 293 -14 372 -14 m 140 251 q 187 82 140 135 q 299 29 233 29 q 411 63 361 29 q 490 155 461 96 q 518 294 518 214 q 481 427 518 381 q 372 474 444 474 q 242 432 306 474 q 144 324 179 390 q 140 251 140 288 z "},"7":{"ha":694,"x_min":36,"x_max":654,"o":"m 36 -181 q 106 -52 74 -111 q 173 70 138 7 q 258 213 208 133 q 381 399 308 292 q 561 657 454 507 l 89 657 l 104 736 l 654 736 l 651 711 q 522 531 586 619 q 397 340 458 442 q 274 113 335 239 q 153 -181 213 -14 l 36 -181 z "},"8":{"ha":694,"x_min":31,"x_max":640,"o":"m 279 -14 q 155 10 211 -14 q 65 80 99 35 q 31 186 31 125 q 96 342 31 272 q 283 475 161 411 q 176 580 207 531 q 146 683 146 629 q 184 803 146 747 q 285 895 222 860 q 424 931 349 931 q 538 904 489 931 q 613 833 586 878 q 640 736 640 789 q 590 612 640 672 q 415 486 540 551 q 519 400 483 440 q 568 320 554 360 q 582 238 582 281 q 542 115 582 172 q 433 22 501 58 q 279 -14 364 -14 m 379 511 l 381 510 q 478 573 440 543 q 535 640 517 603 q 554 729 554 676 q 516 843 554 803 q 404 883 478 883 q 276 836 318 883 q 235 719 235 789 q 246 651 235 683 q 288 584 257 618 q 379 511 319 550 m 122 207 q 168 78 122 122 q 300 33 214 33 q 446 85 394 33 q 497 218 497 136 q 476 308 497 269 q 415 380 456 346 q 315 453 375 414 q 199 369 242 407 q 140 294 157 332 q 122 207 122 256 z "},"9":{"ha":694,"x_min":1,"x_max":610,"o":"m 1 -194 l 10 -161 q 258 -34 157 -112 q 419 142 360 44 q 501 346 479 240 q 398 238 460 279 q 257 197 336 197 q 103 260 156 197 q 50 415 50 324 q 96 592 50 517 q 214 708 142 667 q 364 750 286 750 q 501 715 446 750 q 583 617 556 679 q 610 476 610 556 q 542 205 610 338 q 340 -33 475 72 q 1 -194 204 -137 m 139 442 q 175 309 139 356 q 285 263 211 263 q 415 304 351 263 q 513 413 478 346 q 517 485 517 449 q 469 654 517 601 q 358 707 422 707 q 245 674 294 707 q 167 581 196 640 q 139 442 139 522 z "}," ":{"ha":340,"x_min":0,"x_max":0,"o":""}," ":{"ha":694,"x_min":0,"x_max":0,"o":""}," ":{"ha":347,"x_min":0,"x_max":0,"o":""}," ":{"ha":174,"x_min":0,"x_max":0,"o":""}," ":{"ha":35,"x_min":0,"x_max":0,"o":""},"​":{"ha":0,"x_min":0,"x_max":0,"o":""},"A":{"ha":940,"x_min":-21,"x_max":829,"o":"m -21 0 l -15 21 l 56 53 l 540 924 l 582 924 l 754 58 l 829 21 l 825 0 l 533 0 l 538 21 l 658 56 l 604 343 l 281 343 l 122 51 l 236 21 l 232 0 l -21 0 m 310 397 l 593 397 l 519 786 l 310 397 z "},"B":{"ha":801,"x_min":14,"x_max":715,"o":"m 14 0 l 18 21 l 126 60 l 267 858 l 171 896 l 175 917 l 435 917 q 640 868 564 917 q 715 721 715 819 q 661 580 715 647 q 508 485 607 513 q 664 411 613 467 q 715 272 715 356 q 669 138 715 200 q 541 38 624 75 q 347 0 458 0 l 14 0 m 433 861 l 361 861 l 297 500 l 378 500 q 555 560 494 500 q 615 706 615 619 q 572 822 615 783 q 433 861 528 861 m 394 446 l 288 446 l 219 54 l 356 54 q 551 115 486 54 q 615 271 615 176 q 558 404 615 363 q 394 446 501 446 z "},"C":{"ha":925,"x_min":83,"x_max":854,"o":"m 447 -14 q 255 33 336 -14 q 128 165 174 81 q 83 361 83 249 q 124 576 83 474 q 235 759 164 679 q 402 885 307 839 q 607 931 497 931 q 745 913 692 931 q 854 863 799 894 l 822 642 l 800 642 l 761 811 q 681 862 724 846 q 583 878 639 878 q 412 838 486 878 q 287 731 338 799 q 210 574 236 663 q 185 385 185 485 q 224 201 185 281 q 329 78 263 122 q 478 33 396 33 q 578 50 533 33 q 663 89 624 67 l 765 263 l 788 263 l 739 54 q 615 4 679 22 q 447 -14 551 -14 z "},"D":{"ha":976,"x_min":14,"x_max":903,"o":"m 14 0 l 19 21 l 125 60 l 265 857 l 169 896 l 175 917 l 451 917 q 711 867 611 917 q 857 734 811 818 q 903 544 903 650 q 883 402 903 476 q 822 256 864 328 q 717 127 781 185 q 564 35 653 69 q 361 0 475 0 l 14 0 m 433 863 l 363 863 l 219 54 l 375 54 q 610 114 515 54 q 754 281 706 174 q 803 535 803 389 q 712 774 803 686 q 433 863 621 863 z "},"E":{"ha":810,"x_min":14,"x_max":771,"o":"m 14 0 l 19 21 l 125 60 l 265 857 l 169 896 l 175 917 l 771 917 l 731 685 l 708 685 l 675 863 l 363 863 l 299 501 l 524 501 l 592 617 l 615 617 l 565 332 l 540 332 l 515 446 l 289 446 l 219 54 l 586 54 l 683 246 l 706 246 l 663 0 l 14 0 z "},"F":{"ha":799,"x_min":14,"x_max":768,"o":"m 14 0 l 19 21 l 125 60 l 265 857 l 169 896 l 175 917 l 768 917 l 728 685 l 706 685 l 672 863 l 363 863 l 299 501 l 518 501 l 585 617 l 608 617 l 558 332 l 535 332 l 508 446 l 289 446 l 221 60 l 338 21 l 333 0 l 14 0 z "},"G":{"ha":990,"x_min":83,"x_max":899,"o":"m 435 -14 q 247 35 326 -14 q 126 168 168 83 q 83 361 83 253 q 122 571 83 469 q 232 753 161 672 q 398 883 303 835 q 606 931 493 931 q 758 914 699 931 q 876 863 818 897 l 844 649 l 822 649 l 782 810 q 699 862 743 846 q 590 878 654 878 q 415 840 492 878 q 287 735 339 801 q 208 582 235 668 q 182 399 182 496 q 263 140 182 233 q 483 46 344 46 q 569 54 526 46 q 660 83 613 63 l 704 340 l 592 382 l 597 403 l 899 403 l 894 382 l 793 342 l 750 96 q 599 16 686 46 q 435 -14 513 -14 z "},"H":{"ha":1039,"x_min":14,"x_max":1025,"o":"m 14 0 l 17 21 l 121 60 l 263 858 l 158 896 l 164 917 l 469 917 l 465 896 l 357 857 l 294 501 l 756 501 l 819 858 l 714 896 l 718 917 l 1025 917 l 1019 896 l 914 857 l 772 58 l 879 21 l 875 0 l 569 0 l 572 21 l 678 60 l 746 447 l 285 447 l 215 58 l 324 21 l 321 0 l 14 0 z "},"I":{"ha":481,"x_min":13,"x_max":467,"o":"m 13 0 l 17 21 l 121 60 l 263 858 l 165 896 l 169 917 l 467 917 l 463 896 l 357 858 l 215 60 l 315 21 l 311 0 l 13 0 z "},"J":{"ha":490,"x_min":-90,"x_max":483,"o":"m -44 -240 q -77 -227 -64 -240 q -81 -186 -90 -214 l -60 -132 l -53 -132 q -19 -142 -32 -139 q 10 -144 -7 -144 q 60 -129 38 -144 q 103 -68 83 -114 q 138 71 122 -22 l 278 858 l 182 896 l 186 917 l 483 917 l 479 896 l 374 858 l 275 311 q 206 31 246 146 q 104 -144 167 -83 q 37 -207 61 -186 q -5 -234 13 -228 q -44 -240 -22 -240 z "},"K":{"ha":925,"x_min":13,"x_max":903,"o":"m 13 0 l 17 21 l 125 60 l 265 858 l 171 896 l 175 917 l 474 917 l 468 896 l 363 858 l 294 472 l 722 857 l 628 896 l 632 917 l 903 917 l 897 896 l 818 872 l 386 493 l 743 53 l 821 21 l 817 0 l 657 0 l 293 467 l 221 60 l 322 21 l 318 0 l 13 0 z "},"L":{"ha":794,"x_min":14,"x_max":688,"o":"m 14 0 l 19 21 l 125 60 l 265 857 l 171 896 l 175 917 l 486 917 l 482 896 l 361 857 l 221 54 l 550 54 l 664 297 l 688 297 l 636 0 l 14 0 z "},"M":{"ha":1239,"x_min":14,"x_max":1225,"o":"m 14 0 l 19 21 l 126 60 l 293 856 l 185 897 l 190 917 l 407 917 l 586 146 l 1015 917 l 1225 917 l 1221 896 l 1107 856 l 1010 60 l 1093 21 l 1089 0 l 808 0 l 814 21 l 915 58 l 1011 794 l 563 -7 l 522 -7 l 340 794 l 193 58 l 290 21 l 286 0 l 14 0 z "},"N":{"ha":1033,"x_min":13,"x_max":1024,"o":"m 13 0 l 17 21 l 126 60 l 267 857 l 163 896 l 167 917 l 353 917 l 732 182 l 851 858 l 728 896 l 733 917 l 1024 917 l 1019 896 l 915 858 l 764 -7 l 725 -7 l 318 769 l 193 61 l 310 21 l 306 0 l 13 0 z "},"O":{"ha":1013,"x_min":83,"x_max":929,"o":"m 429 -14 q 247 35 325 -14 q 126 169 169 83 q 83 368 83 256 q 122 582 83 481 q 228 762 160 683 q 387 885 296 840 q 583 931 478 931 q 766 882 689 931 q 886 747 843 833 q 929 549 929 661 q 893 341 929 442 q 790 160 857 240 q 631 33 722 81 q 429 -14 539 -14 m 467 33 q 609 72 543 33 q 725 177 675 110 q 803 335 775 244 q 831 532 831 426 q 794 717 831 638 q 695 842 758 797 q 550 886 632 886 q 403 848 471 886 q 286 742 336 810 q 209 583 236 674 q 182 388 182 493 q 218 203 182 283 q 319 78 254 124 q 467 33 383 33 z "},"P":{"ha":800,"x_min":13,"x_max":758,"o":"m 13 0 l 17 21 l 125 60 l 265 858 l 171 896 l 175 917 l 440 917 q 672 863 585 917 q 758 694 758 808 q 715 553 758 618 q 590 448 671 488 q 396 408 508 408 l 282 408 l 221 60 l 338 21 l 333 0 l 13 0 m 363 863 l 292 461 l 404 461 q 596 524 533 461 q 658 686 658 588 q 599 819 658 775 q 439 863 539 863 l 363 863 z "},"Q":{"ha":1025,"x_min":83,"x_max":985,"o":"m 806 -206 q 701 -192 758 -206 q 575 -137 644 -178 q 422 -14 506 -96 q 243 36 319 -12 q 125 170 167 85 q 83 368 83 256 q 122 582 83 481 q 228 762 160 683 q 387 885 296 840 q 583 931 478 931 q 766 882 689 931 q 886 747 843 833 q 929 549 929 661 q 901 367 929 456 q 823 204 874 279 q 701 76 772 129 q 543 0 631 24 q 687 -101 625 -67 q 797 -148 749 -136 q 889 -160 846 -160 q 944 -155 918 -160 q 985 -143 969 -150 l 981 -169 q 902 -195 949 -185 q 806 -206 856 -206 m 467 33 q 609 72 543 33 q 725 177 675 110 q 803 335 775 244 q 831 532 831 426 q 794 717 831 638 q 695 842 758 797 q 550 886 632 886 q 403 848 471 886 q 286 742 336 810 q 209 583 236 674 q 182 388 182 493 q 218 203 182 283 q 319 78 254 124 q 467 33 383 33 z "},"R":{"ha":818,"x_min":13,"x_max":763,"o":"m 13 0 l 17 21 l 125 60 l 265 858 l 169 896 l 174 917 l 432 917 q 638 863 564 917 q 711 715 711 808 q 657 556 711 626 q 496 456 603 486 l 686 54 l 763 21 l 758 0 l 601 0 l 407 435 l 288 435 l 221 60 l 311 21 l 307 0 l 13 0 m 429 863 l 363 863 l 297 489 l 396 489 q 515 519 467 489 q 587 597 563 549 q 611 697 611 644 q 565 818 611 774 q 429 863 519 863 z "},"S":{"ha":685,"x_min":22,"x_max":628,"o":"m 257 -14 q 128 3 181 -14 q 22 50 75 19 l 49 263 l 71 263 l 113 99 q 187 51 143 67 q 275 35 231 35 q 426 92 372 35 q 479 243 479 150 q 459 322 479 289 q 399 385 439 356 q 300 451 360 414 q 183 549 219 501 q 147 665 147 597 q 186 797 147 736 q 289 894 225 857 q 425 931 353 931 q 533 915 483 931 q 628 872 582 900 l 603 665 l 581 665 l 544 822 q 490 863 525 844 q 408 881 456 881 q 280 832 331 881 q 229 701 229 783 q 261 603 229 646 q 381 508 293 561 q 488 435 446 469 q 549 360 529 400 q 568 264 568 319 q 527 128 568 192 q 415 25 486 64 q 257 -14 344 -14 z "},"T":{"ha":893,"x_min":104,"x_max":921,"o":"m 190 0 l 196 21 l 336 63 l 479 863 l 232 863 l 125 656 l 104 656 l 150 917 l 921 917 l 875 656 l 853 656 l 821 863 l 575 863 l 432 63 l 561 21 l 557 0 l 190 0 z "},"U":{"ha":1049,"x_min":174,"x_max":1044,"o":"m 464 -14 q 255 51 336 -14 q 174 257 174 115 q 176 304 174 281 q 183 356 179 328 l 272 858 l 174 896 l 178 917 l 486 917 l 481 896 l 368 858 l 283 376 q 275 322 278 349 q 272 271 272 294 q 335 99 272 150 q 499 47 397 47 q 612 76 556 47 q 712 168 668 106 q 772 328 756 231 l 867 858 l 746 896 l 750 917 l 1044 917 l 1040 896 l 933 858 l 844 356 q 767 141 821 222 q 635 23 713 60 q 464 -14 558 -14 z "},"V":{"ha":928,"x_min":125,"x_max":961,"o":"m 372 -7 l 207 863 l 125 896 l 129 917 l 422 917 l 418 896 l 307 863 l 438 149 l 444 149 l 811 864 l 706 896 l 710 917 l 961 917 l 957 896 l 878 864 l 414 -7 l 372 -7 z "},"W":{"ha":1313,"x_min":125,"x_max":1360,"o":"m 310 -7 l 211 863 l 125 896 l 129 917 l 425 917 l 421 896 l 307 860 l 375 168 l 383 168 l 744 924 l 782 924 l 899 168 l 906 168 l 1203 864 l 1097 896 l 1101 917 l 1360 917 l 1356 896 l 1272 865 l 875 -7 l 839 -7 l 721 731 l 714 731 l 346 -7 l 310 -7 z "},"X":{"ha":949,"x_min":-35,"x_max":969,"o":"m -35 0 l -31 21 l 85 63 l 439 463 l 238 857 l 144 896 l 149 917 l 460 917 l 456 896 l 339 864 l 338 858 l 511 519 l 794 857 l 794 863 l 686 896 l 690 917 l 969 917 l 965 896 l 875 861 l 535 471 l 743 64 l 843 21 l 839 0 l 510 0 l 514 21 l 640 58 l 640 64 l 464 413 l 164 64 l 164 58 l 271 21 l 267 0 l -35 0 z "},"Y":{"ha":933,"x_min":128,"x_max":971,"o":"m 236 0 l 240 21 l 364 63 l 431 431 l 219 858 l 128 896 l 133 917 l 438 917 l 432 896 l 322 864 l 322 858 l 504 482 l 800 857 l 800 863 l 699 896 l 704 917 l 971 917 l 967 896 l 879 864 l 525 431 l 458 63 l 571 21 l 567 0 l 236 0 z "},"Z":{"ha":856,"x_min":49,"x_max":807,"o":"m 49 0 l 54 38 l 681 863 l 304 863 l 204 675 l 183 675 l 225 917 l 807 917 l 800 879 l 179 58 l 588 58 l 686 256 l 708 256 l 663 0 l 49 0 z "},"À":{"ha":940,"x_min":-21,"x_max":829,"o":"m -21 0 l -15 21 l 56 53 l 540 924 l 582 924 l 754 58 l 829 21 l 825 0 l 533 0 l 538 21 l 658 56 l 604 343 l 281 343 l 122 51 l 236 21 l 232 0 l -21 0 m 310 397 l 593 397 l 519 786 l 310 397 m 560 986 l 390 1122 q 367 1158 369 1138 q 369 1197 365 1178 l 443 1197 l 574 986 l 560 986 z "},"Á":{"ha":940,"x_min":-21,"x_max":829,"o":"m -21 0 l -15 21 l 56 53 l 540 924 l 582 924 l 754 58 l 829 21 l 825 0 l 533 0 l 538 21 l 658 56 l 604 343 l 281 343 l 122 51 l 236 21 l 232 0 l -21 0 m 310 397 l 593 397 l 519 786 l 310 397 m 560 986 l 710 1197 l 796 1197 q 781 1158 792 1176 q 744 1119 771 1139 l 574 986 l 560 986 z "},"Â":{"ha":940,"x_min":-21,"x_max":829,"o":"m -21 0 l -15 21 l 56 53 l 540 924 l 582 924 l 754 58 l 829 21 l 825 0 l 533 0 l 538 21 l 658 56 l 604 343 l 281 343 l 122 51 l 236 21 l 232 0 l -21 0 m 310 397 l 593 397 l 519 786 l 310 397 m 374 986 l 588 1197 l 618 1197 l 744 986 l 731 986 l 589 1113 l 388 986 l 374 986 z "},"Ã":{"ha":940,"x_min":-21,"x_max":829,"o":"m -21 0 l -15 21 l 56 53 l 540 924 l 582 924 l 754 58 l 829 21 l 825 0 l 533 0 l 538 21 l 658 56 l 604 343 l 281 343 l 122 51 l 236 21 l 232 0 l -21 0 m 310 397 l 593 397 l 519 786 l 310 397 m 379 1010 q 432 1111 410 1078 q 474 1156 454 1144 q 517 1168 494 1168 q 564 1153 543 1168 q 603 1117 585 1138 q 638 1082 621 1097 q 676 1067 656 1067 q 721 1088 700 1067 q 774 1168 742 1110 l 792 1168 q 740 1067 763 1100 q 698 1022 718 1033 q 654 1010 678 1010 q 608 1025 629 1010 q 569 1060 588 1040 q 534 1096 551 1081 q 496 1111 517 1111 q 449 1090 471 1111 q 397 1010 428 1068 l 379 1010 z "},"Ä":{"ha":940,"x_min":-21,"x_max":829,"o":"m -21 0 l -15 21 l 56 53 l 540 924 l 582 924 l 754 58 l 829 21 l 825 0 l 533 0 l 538 21 l 658 56 l 604 343 l 281 343 l 122 51 l 236 21 l 232 0 l -21 0 m 310 397 l 593 397 l 519 786 l 310 397 m 463 1035 q 423 1051 439 1035 q 407 1092 407 1068 q 423 1132 407 1115 q 463 1149 439 1149 q 503 1132 486 1149 q 519 1092 519 1115 q 503 1051 519 1068 q 463 1035 486 1035 m 710 1035 q 669 1051 686 1035 q 653 1092 653 1068 q 669 1132 653 1115 q 710 1149 686 1149 q 749 1132 733 1149 q 765 1092 765 1115 q 749 1051 765 1068 q 710 1035 733 1035 z "},"Ā":{"ha":940,"x_min":-21,"x_max":829,"o":"m -21 0 l -15 21 l 56 53 l 540 924 l 582 924 l 754 58 l 829 21 l 825 0 l 533 0 l 538 21 l 658 56 l 604 343 l 281 343 l 122 51 l 236 21 l 232 0 l -21 0 m 310 397 l 593 397 l 519 786 l 310 397 m 407 1069 l 417 1119 l 758 1119 l 749 1069 l 407 1069 z "},"Ă":{"ha":940,"x_min":-21,"x_max":829,"o":"m -21 0 l -15 21 l 56 53 l 540 924 l 582 924 l 754 58 l 829 21 l 825 0 l 533 0 l 538 21 l 658 56 l 604 343 l 281 343 l 122 51 l 236 21 l 232 0 l -21 0 m 310 397 l 593 397 l 519 786 l 310 397 m 567 986 q 451 1038 483 986 q 414 1197 418 1090 l 428 1197 q 458 1101 439 1133 q 505 1058 476 1069 q 574 1047 533 1047 q 647 1058 614 1047 q 710 1101 679 1069 q 771 1197 740 1133 l 785 1197 q 697 1038 750 1089 q 567 986 644 986 z "},"Å":{"ha":940,"x_min":-21,"x_max":829,"o":"m -21 0 l -15 21 l 56 53 l 540 924 l 582 924 l 754 58 l 829 21 l 825 0 l 533 0 l 538 21 l 658 56 l 604 343 l 281 343 l 122 51 l 236 21 l 232 0 l -21 0 m 310 397 l 593 397 l 519 786 l 310 397 m 567 986 q 497 1012 519 986 q 475 1078 475 1038 q 511 1171 475 1131 q 604 1211 547 1211 q 672 1185 649 1211 q 696 1118 696 1158 q 660 1026 696 1067 q 567 986 625 986 m 574 1013 q 626 1043 607 1013 q 644 1117 644 1074 q 635 1165 644 1146 q 597 1185 625 1185 q 545 1156 565 1185 q 525 1079 525 1128 q 535 1031 525 1050 q 574 1013 546 1013 z "},"Ǻ":{"ha":940,"x_min":-21,"x_max":843,"o":"m -21 0 l -15 21 l 56 53 l 540 924 l 582 924 l 754 58 l 829 21 l 825 0 l 533 0 l 538 21 l 658 56 l 604 343 l 281 343 l 122 51 l 236 21 l 232 0 l -21 0 m 310 397 l 593 397 l 519 786 l 310 397 m 567 986 q 497 1012 519 986 q 475 1078 475 1038 q 511 1171 475 1131 q 604 1211 547 1211 q 672 1185 649 1211 q 696 1118 696 1158 q 660 1026 696 1067 q 567 986 625 986 m 574 1013 q 626 1043 607 1013 q 644 1117 644 1074 q 635 1165 644 1146 q 597 1185 625 1185 q 545 1156 565 1185 q 525 1079 525 1128 q 535 1031 525 1050 q 574 1013 546 1013 m 607 1257 l 757 1468 l 843 1468 q 828 1428 839 1447 q 792 1390 818 1410 l 621 1257 l 607 1257 z "},"Ạ":{"ha":940,"x_min":-21,"x_max":829,"o":"m -21 0 l -15 21 l 56 53 l 540 924 l 582 924 l 754 58 l 829 21 l 825 0 l 533 0 l 538 21 l 658 56 l 604 343 l 281 343 l 122 51 l 236 21 l 232 0 l -21 0 m 310 397 l 593 397 l 519 786 l 310 397 z "},"Ą":{"ha":940,"x_min":-21,"x_max":829,"o":"m -21 0 l -15 21 l 56 51 l 540 924 l 582 924 l 756 56 l 829 21 l 825 0 l 711 0 q 625 -109 654 -60 q 596 -210 596 -158 q 617 -269 596 -250 q 678 -287 639 -287 q 714 -282 694 -287 q 751 -265 733 -276 l 756 -265 l 753 -282 q 706 -319 735 -306 q 642 -333 678 -333 q 560 -305 590 -333 q 529 -226 529 -276 q 572 -114 529 -169 q 679 0 614 -58 l 533 0 l 538 21 l 657 56 l 600 343 l 281 343 l 122 51 l 236 21 l 232 0 l -21 0 m 310 397 l 590 397 l 515 778 l 310 397 z "},"Ȁ":{"ha":940,"x_min":-21,"x_max":829,"o":"m -21 0 l -15 21 l 56 53 l 540 924 l 582 924 l 754 58 l 829 21 l 825 0 l 533 0 l 538 21 l 658 56 l 604 343 l 281 343 l 122 51 l 236 21 l 232 0 l -21 0 m 310 397 l 593 397 l 519 786 l 310 397 m 628 986 l 500 1114 q 473 1157 478 1138 q 471 1197 468 1176 l 535 1197 l 642 986 l 628 986 m 482 986 l 342 1114 q 313 1157 317 1136 q 311 1197 308 1178 l 375 1197 l 496 986 l 482 986 z "},"Ȃ":{"ha":940,"x_min":-21,"x_max":829,"o":"m -21 0 l -15 21 l 56 53 l 540 924 l 582 924 l 754 58 l 829 21 l 825 0 l 533 0 l 538 21 l 658 56 l 604 343 l 281 343 l 122 51 l 236 21 l 232 0 l -21 0 m 310 397 l 593 397 l 519 786 l 310 397 m 381 988 q 469 1147 417 1094 q 599 1199 521 1199 q 715 1147 682 1199 q 751 988 749 1094 l 738 988 q 708 1082 726 1050 q 660 1125 689 1114 q 592 1136 632 1136 q 519 1125 553 1136 q 456 1082 486 1114 q 394 988 425 1050 l 381 988 z "},"Ắ":{"ha":940,"x_min":-21,"x_max":829,"o":"m -21 0 l -15 21 l 56 53 l 540 924 l 582 924 l 754 58 l 829 21 l 825 0 l 533 0 l 538 21 l 658 56 l 604 343 l 281 343 l 122 51 l 236 21 l 232 0 l -21 0 m 310 397 l 593 397 l 519 786 l 310 397 z "},"Ặ":{"ha":940,"x_min":-21,"x_max":829,"o":"m -21 0 l -15 21 l 56 53 l 540 924 l 582 924 l 754 58 l 829 21 l 825 0 l 533 0 l 538 21 l 658 56 l 604 343 l 281 343 l 122 51 l 236 21 l 232 0 l -21 0 m 310 397 l 593 397 l 519 786 l 310 397 m 567 986 q 451 1038 483 986 q 414 1197 418 1090 l 428 1197 q 458 1101 439 1133 q 505 1058 476 1069 q 574 1047 533 1047 q 647 1058 614 1047 q 710 1101 679 1069 q 771 1197 740 1133 l 785 1197 q 697 1038 750 1089 q 567 986 644 986 z "},"Ằ":{"ha":940,"x_min":-21,"x_max":829,"o":"m -21 0 l -15 21 l 56 53 l 540 924 l 582 924 l 754 58 l 829 21 l 825 0 l 533 0 l 538 21 l 658 56 l 604 343 l 281 343 l 122 51 l 236 21 l 232 0 l -21 0 m 310 397 l 593 397 l 519 786 l 310 397 z "},"Ẳ":{"ha":940,"x_min":-21,"x_max":829,"o":"m -21 0 l -15 21 l 56 53 l 540 924 l 582 924 l 754 58 l 829 21 l 825 0 l 533 0 l 538 21 l 658 56 l 604 343 l 281 343 l 122 51 l 236 21 l 232 0 l -21 0 m 310 397 l 593 397 l 519 786 l 310 397 z "},"Ẵ":{"ha":940,"x_min":-21,"x_max":829,"o":"m -21 0 l -15 21 l 56 53 l 540 924 l 582 924 l 754 58 l 829 21 l 825 0 l 533 0 l 538 21 l 658 56 l 604 343 l 281 343 l 122 51 l 236 21 l 232 0 l -21 0 m 310 397 l 593 397 l 519 786 l 310 397 z "},"Ấ":{"ha":940,"x_min":-21,"x_max":917,"o":"m -21 0 l -15 21 l 56 53 l 540 924 l 582 924 l 754 58 l 829 21 l 825 0 l 533 0 l 538 21 l 658 56 l 604 343 l 281 343 l 122 51 l 236 21 l 232 0 l -21 0 m 310 397 l 593 397 l 519 786 l 310 397 m 735 1118 l 832 1317 l 917 1317 q 901 1279 913 1296 q 867 1240 890 1263 l 747 1118 l 735 1118 m 374 986 l 588 1197 l 618 1197 l 744 986 l 731 986 l 588 1113 l 388 986 l 374 986 z "},"Ậ":{"ha":940,"x_min":-21,"x_max":829,"o":"m -21 0 l -15 21 l 56 53 l 540 924 l 582 924 l 754 58 l 829 21 l 825 0 l 533 0 l 538 21 l 658 56 l 604 343 l 281 343 l 122 51 l 236 21 l 232 0 l -21 0 m 310 397 l 593 397 l 519 786 l 310 397 m 374 986 l 588 1197 l 618 1197 l 744 986 l 731 986 l 589 1113 l 388 986 l 374 986 z "},"Ầ":{"ha":940,"x_min":-21,"x_max":829,"o":"m -21 0 l -15 21 l 56 53 l 540 924 l 582 924 l 754 58 l 829 21 l 825 0 l 533 0 l 538 21 l 658 56 l 604 343 l 281 343 l 122 51 l 236 21 l 232 0 l -21 0 m 310 397 l 593 397 l 519 786 l 310 397 m 404 1118 l 281 1239 q 251 1317 242 1275 l 324 1317 l 417 1118 l 404 1118 m 374 986 l 588 1197 l 618 1197 l 744 986 l 731 986 l 588 1113 l 388 986 l 374 986 z "},"Ẩ":{"ha":940,"x_min":-21,"x_max":829,"o":"m -21 0 l -15 21 l 56 53 l 540 924 l 582 924 l 754 58 l 829 21 l 825 0 l 533 0 l 538 21 l 658 56 l 604 343 l 281 343 l 122 51 l 236 21 l 232 0 l -21 0 m 310 397 l 593 397 l 519 786 l 310 397 z "},"Ẫ":{"ha":940,"x_min":-21,"x_max":829,"o":"m -21 0 l -15 21 l 56 53 l 540 924 l 582 924 l 754 58 l 829 21 l 825 0 l 533 0 l 538 21 l 658 56 l 604 343 l 281 343 l 122 51 l 236 21 l 232 0 l -21 0 m 310 397 l 593 397 l 519 786 l 310 397 z "},"Ả":{"ha":940,"x_min":-21,"x_max":829,"o":"m -21 0 l -15 21 l 56 53 l 540 924 l 582 924 l 754 58 l 829 21 l 825 0 l 533 0 l 538 21 l 658 56 l 604 343 l 281 343 l 122 51 l 236 21 l 232 0 l -21 0 m 310 397 l 593 397 l 519 786 l 310 397 m 508 975 l 501 983 l 501 985 q 594 1025 564 1003 q 625 1088 625 1047 q 603 1135 625 1115 q 525 1164 581 1156 l 544 1215 q 647 1177 617 1208 q 676 1110 676 1146 q 508 975 676 1010 z "},"Æ":{"ha":1263,"x_min":-21,"x_max":1224,"o":"m -21 0 l -15 21 l 60 51 l 711 917 l 1224 917 l 1183 685 l 1161 685 l 1128 863 l 815 863 l 751 501 l 978 501 l 1044 617 l 1068 617 l 1018 332 l 994 332 l 968 446 l 742 446 l 674 54 l 1039 54 l 1136 246 l 1158 246 l 1115 0 l 467 0 l 472 21 l 578 60 l 628 343 l 349 343 l 131 50 l 236 21 l 232 0 l -21 0 m 389 397 l 638 397 l 717 839 l 389 397 z "},"Ǽ":{"ha":1263,"x_min":-21,"x_max":1224,"o":"m -21 0 l -15 21 l 60 51 l 711 917 l 1224 917 l 1183 685 l 1161 685 l 1128 863 l 815 863 l 751 501 l 978 501 l 1044 617 l 1068 617 l 1018 332 l 994 332 l 968 446 l 742 446 l 674 54 l 1039 54 l 1136 246 l 1158 246 l 1115 0 l 467 0 l 472 21 l 578 60 l 628 343 l 349 343 l 131 50 l 236 21 l 232 0 l -21 0 m 389 397 l 638 397 l 717 839 l 389 397 m 796 986 l 946 1197 l 1032 1197 q 1017 1158 1028 1176 q 981 1119 1007 1139 l 810 986 l 796 986 z "},"Ć":{"ha":925,"x_min":83,"x_max":854,"o":"m 447 -14 q 255 33 336 -14 q 128 165 174 81 q 83 361 83 249 q 124 576 83 474 q 235 759 164 679 q 402 885 307 839 q 607 931 497 931 q 745 913 692 931 q 854 863 799 894 l 822 642 l 800 642 l 761 811 q 681 862 724 846 q 583 878 639 878 q 412 838 486 878 q 287 731 338 799 q 210 574 236 663 q 185 385 185 485 q 224 201 185 281 q 329 78 263 122 q 478 33 396 33 q 578 50 533 33 q 663 89 624 67 l 765 263 l 788 263 l 739 54 q 615 4 679 22 q 447 -14 551 -14 m 606 986 l 756 1197 l 842 1197 q 827 1158 838 1176 q 790 1119 817 1139 l 619 986 l 606 986 z "},"Ĉ":{"ha":925,"x_min":83,"x_max":854,"o":"m 447 -14 q 255 33 336 -14 q 128 165 174 81 q 83 361 83 249 q 124 576 83 474 q 235 759 164 679 q 402 885 307 839 q 607 931 497 931 q 745 913 692 931 q 854 863 799 894 l 822 642 l 800 642 l 761 811 q 681 862 724 846 q 583 878 639 878 q 412 838 486 878 q 287 731 338 799 q 210 574 236 663 q 185 385 185 485 q 224 201 185 281 q 329 78 263 122 q 478 33 396 33 q 578 50 533 33 q 663 89 624 67 l 765 263 l 788 263 l 739 54 q 615 4 679 22 q 447 -14 551 -14 m 418 986 l 632 1197 l 663 1197 l 789 986 l 775 986 l 633 1113 l 432 986 l 418 986 z "},"Č":{"ha":925,"x_min":83,"x_max":854,"o":"m 447 -14 q 255 33 336 -14 q 128 165 174 81 q 83 361 83 249 q 124 576 83 474 q 235 759 164 679 q 402 885 307 839 q 607 931 497 931 q 745 913 692 931 q 854 863 799 894 l 822 642 l 800 642 l 761 811 q 681 862 724 846 q 583 878 639 878 q 412 838 486 878 q 287 731 338 799 q 210 574 236 663 q 185 385 185 485 q 224 201 185 281 q 329 78 263 122 q 478 33 396 33 q 578 50 533 33 q 663 89 624 67 l 765 263 l 788 263 l 739 54 q 615 4 679 22 q 447 -14 551 -14 m 597 986 l 468 1197 l 482 1197 l 625 1071 l 825 1197 l 839 1197 l 628 986 l 597 986 z "},"Ċ":{"ha":925,"x_min":83,"x_max":854,"o":"m 447 -14 q 255 33 336 -14 q 128 165 174 81 q 83 361 83 249 q 124 576 83 474 q 235 759 164 679 q 402 885 307 839 q 607 931 497 931 q 745 913 692 931 q 854 863 799 894 l 822 642 l 800 642 l 761 811 q 681 862 724 846 q 583 878 639 878 q 412 838 486 878 q 287 731 338 799 q 210 574 236 663 q 185 385 185 485 q 224 201 185 281 q 329 78 263 122 q 478 33 396 33 q 578 50 533 33 q 663 89 624 67 l 765 263 l 788 263 l 739 54 q 615 4 679 22 q 447 -14 551 -14 m 631 1028 q 585 1046 603 1028 q 567 1092 567 1064 q 585 1138 567 1119 q 631 1156 603 1156 q 676 1138 658 1156 q 694 1092 694 1119 q 676 1046 694 1064 q 631 1028 658 1028 z "},"Ç":{"ha":925,"x_min":83,"x_max":854,"o":"m 403 -333 q 346 -324 372 -333 q 304 -299 319 -315 l 307 -285 l 311 -285 q 394 -306 349 -306 q 464 -286 439 -306 q 489 -231 489 -267 q 460 -171 489 -192 q 356 -132 431 -150 l 431 -14 q 247 38 325 -10 q 126 168 169 85 q 83 361 83 251 q 124 576 83 474 q 235 759 164 679 q 402 885 307 839 q 607 931 497 931 q 745 913 692 931 q 854 863 799 894 l 822 642 l 800 642 l 761 811 q 681 862 724 846 q 583 878 639 878 q 412 838 486 878 q 287 731 338 799 q 210 574 236 663 q 185 385 185 485 q 224 201 185 281 q 329 78 263 122 q 478 33 396 33 q 578 50 533 33 q 663 89 624 67 l 765 263 l 788 263 l 739 54 q 621 6 682 24 q 464 -14 560 -12 l 418 -87 q 515 -135 483 -106 q 546 -214 546 -164 q 506 -300 546 -267 q 403 -333 465 -333 z "},"Ḉ":{"ha":925,"x_min":83,"x_max":854,"o":"m 604 986 l 756 1197 l 842 1197 q 826 1158 838 1176 q 790 1119 815 1139 l 618 986 l 604 986 m 403 -333 q 346 -324 372 -333 q 304 -299 319 -315 l 307 -285 l 311 -285 q 394 -306 349 -306 q 464 -286 439 -306 q 489 -231 489 -267 q 460 -171 489 -192 q 356 -132 431 -150 l 431 -14 q 247 38 325 -10 q 126 168 169 85 q 83 361 83 251 q 124 576 83 474 q 235 759 164 679 q 402 885 307 839 q 607 931 497 931 q 745 913 692 931 q 854 863 799 894 l 822 642 l 800 642 l 761 811 q 681 862 724 846 q 583 878 639 878 q 412 838 486 878 q 287 731 338 799 q 210 574 236 663 q 185 385 185 485 q 224 201 185 281 q 329 78 263 122 q 478 33 396 33 q 578 50 533 33 q 663 89 624 67 l 765 263 l 788 263 l 739 54 q 621 6 682 24 q 464 -14 560 -12 l 418 -87 q 515 -135 483 -106 q 546 -214 546 -164 q 506 -300 546 -267 q 403 -333 465 -333 z "},"Ď":{"ha":976,"x_min":14,"x_max":903,"o":"m 14 0 l 19 21 l 125 60 l 265 857 l 169 896 l 175 917 l 451 917 q 711 867 611 917 q 857 734 811 818 q 903 544 903 650 q 883 402 903 476 q 822 256 864 328 q 717 127 781 185 q 564 35 653 69 q 361 0 475 0 l 14 0 m 433 863 l 363 863 l 219 54 l 375 54 q 610 114 515 54 q 754 281 706 174 q 803 535 803 389 q 712 774 803 686 q 433 863 621 863 m 529 986 l 400 1197 l 414 1197 l 557 1071 l 757 1197 l 771 1197 l 560 986 l 529 986 z "},"Đ":{"ha":976,"x_min":14,"x_max":903,"o":"m 14 0 l 19 21 l 125 60 l 194 453 l 93 453 l 103 501 l 203 501 l 265 857 l 169 896 l 175 917 l 451 917 q 711 867 611 917 q 857 734 811 818 q 903 544 903 650 q 883 402 903 476 q 822 256 864 328 q 717 127 781 185 q 564 35 653 69 q 361 0 475 0 l 14 0 m 535 453 l 290 453 l 219 54 l 375 54 q 610 114 515 54 q 754 281 706 174 q 803 535 803 389 q 712 774 803 686 q 433 863 621 863 l 363 863 l 299 501 l 544 501 l 535 453 z "},"Ḍ":{"ha":976,"x_min":14,"x_max":903,"o":"m 14 0 l 19 21 l 125 60 l 265 857 l 169 896 l 175 917 l 451 917 q 711 867 611 917 q 857 734 811 818 q 903 544 903 650 q 883 402 903 476 q 822 256 864 328 q 717 127 781 185 q 564 35 653 69 q 361 0 475 0 l 14 0 m 433 863 l 363 863 l 219 54 l 375 54 q 610 114 515 54 q 754 281 706 174 q 803 535 803 389 q 712 774 803 686 q 433 863 621 863 z "},"Ḏ":{"ha":976,"x_min":14,"x_max":903,"o":"m 14 0 l 19 21 l 125 60 l 265 857 l 169 896 l 175 917 l 451 917 q 711 867 611 917 q 857 734 811 818 q 903 544 903 650 q 883 402 903 476 q 822 256 864 328 q 717 127 781 185 q 564 35 653 69 q 361 0 475 0 l 14 0 m 433 863 l 363 863 l 219 54 l 375 54 q 610 114 515 54 q 754 281 706 174 q 803 535 803 389 q 712 774 803 686 q 433 863 621 863 z "},"È":{"ha":810,"x_min":14,"x_max":771,"o":"m 14 0 l 19 21 l 125 60 l 265 857 l 169 896 l 175 917 l 771 917 l 731 685 l 708 685 l 675 863 l 363 863 l 299 501 l 524 501 l 592 617 l 615 617 l 565 332 l 540 332 l 515 446 l 289 446 l 219 54 l 586 54 l 683 246 l 706 246 l 663 0 l 14 0 m 518 986 l 349 1122 q 326 1158 328 1138 q 328 1197 324 1178 l 401 1197 l 532 986 l 518 986 z "},"É":{"ha":810,"x_min":14,"x_max":771,"o":"m 14 0 l 19 21 l 125 60 l 265 857 l 169 896 l 175 917 l 771 917 l 731 685 l 708 685 l 675 863 l 363 863 l 299 501 l 524 501 l 592 617 l 615 617 l 565 332 l 540 332 l 515 446 l 289 446 l 219 54 l 586 54 l 683 246 l 706 246 l 663 0 l 14 0 m 518 986 l 668 1197 l 754 1197 q 740 1158 750 1176 q 703 1119 729 1139 l 532 986 l 518 986 z "},"Ê":{"ha":810,"x_min":14,"x_max":771,"o":"m 14 0 l 19 21 l 125 60 l 265 857 l 169 896 l 175 917 l 771 917 l 731 685 l 708 685 l 675 863 l 363 863 l 299 501 l 524 501 l 592 617 l 615 617 l 565 332 l 540 332 l 515 446 l 289 446 l 219 54 l 586 54 l 683 246 l 706 246 l 663 0 l 14 0 m 332 986 l 546 1197 l 576 1197 l 703 986 l 689 986 l 547 1113 l 346 986 l 332 986 z "},"Ě":{"ha":810,"x_min":14,"x_max":771,"o":"m 14 0 l 19 21 l 125 60 l 265 857 l 169 896 l 175 917 l 771 917 l 731 685 l 708 685 l 675 863 l 363 863 l 299 501 l 524 501 l 592 617 l 615 617 l 565 332 l 540 332 l 515 446 l 289 446 l 219 54 l 586 54 l 683 246 l 706 246 l 663 0 l 14 0 m 510 986 l 381 1197 l 394 1197 l 538 1071 l 738 1197 l 751 1197 l 540 986 l 510 986 z "},"Ẽ":{"ha":810,"x_min":14,"x_max":771,"o":"m 14 0 l 19 21 l 125 60 l 265 857 l 169 896 l 175 917 l 771 917 l 731 685 l 708 685 l 675 863 l 363 863 l 299 501 l 524 501 l 592 617 l 615 617 l 565 332 l 540 332 l 515 446 l 289 446 l 219 54 l 586 54 l 683 246 l 706 246 l 663 0 l 14 0 m 338 1010 q 390 1111 368 1078 q 433 1156 413 1144 q 475 1168 453 1168 q 522 1153 501 1168 q 561 1117 543 1138 q 597 1082 579 1097 q 635 1067 614 1067 q 679 1088 658 1067 q 732 1168 700 1110 l 750 1168 q 699 1067 721 1100 q 656 1022 676 1033 q 613 1010 636 1010 q 567 1025 588 1010 q 528 1060 546 1040 q 492 1096 510 1081 q 454 1111 475 1111 q 408 1090 429 1111 q 356 1010 386 1068 l 338 1010 z "},"Ë":{"ha":810,"x_min":14,"x_max":771,"o":"m 14 0 l 19 21 l 125 60 l 265 857 l 169 896 l 175 917 l 771 917 l 731 685 l 708 685 l 675 863 l 363 863 l 299 501 l 524 501 l 592 617 l 615 617 l 565 332 l 540 332 l 515 446 l 289 446 l 219 54 l 586 54 l 683 246 l 706 246 l 663 0 l 14 0 m 421 1035 q 381 1051 397 1035 q 365 1092 365 1068 q 381 1132 365 1115 q 421 1149 397 1149 q 461 1132 444 1149 q 478 1092 478 1115 q 461 1051 478 1068 q 421 1035 444 1035 m 668 1035 q 628 1051 644 1035 q 611 1092 611 1068 q 628 1132 611 1115 q 668 1149 644 1149 q 708 1132 692 1149 q 724 1092 724 1115 q 708 1051 724 1068 q 668 1035 692 1035 z "},"Ē":{"ha":810,"x_min":14,"x_max":771,"o":"m 14 0 l 19 21 l 125 60 l 265 857 l 169 896 l 175 917 l 771 917 l 731 685 l 708 685 l 675 863 l 363 863 l 299 501 l 524 501 l 592 617 l 615 617 l 565 332 l 540 332 l 515 446 l 289 446 l 219 54 l 586 54 l 683 246 l 706 246 l 663 0 l 14 0 m 365 1069 l 375 1119 l 717 1119 l 707 1069 l 365 1069 z "},"Ĕ":{"ha":810,"x_min":14,"x_max":771,"o":"m 14 0 l 19 21 l 125 60 l 265 857 l 169 896 l 175 917 l 771 917 l 731 685 l 708 685 l 675 863 l 363 863 l 299 501 l 524 501 l 592 617 l 615 617 l 565 332 l 540 332 l 515 446 l 289 446 l 219 54 l 586 54 l 683 246 l 706 246 l 663 0 l 14 0 m 525 986 q 409 1038 442 986 q 372 1197 376 1090 l 386 1197 q 416 1101 397 1133 q 463 1058 435 1069 q 532 1047 492 1047 q 605 1058 572 1047 q 668 1101 638 1069 q 729 1197 699 1133 l 743 1197 q 656 1038 708 1089 q 525 986 603 986 z "},"Ė":{"ha":810,"x_min":14,"x_max":771,"o":"m 14 0 l 19 21 l 125 60 l 265 857 l 169 896 l 175 917 l 771 917 l 731 685 l 708 685 l 675 863 l 363 863 l 299 501 l 524 501 l 592 617 l 615 617 l 565 332 l 540 332 l 515 446 l 289 446 l 219 54 l 586 54 l 683 246 l 706 246 l 663 0 l 14 0 m 543 1028 q 497 1046 515 1028 q 479 1092 479 1064 q 497 1138 479 1119 q 543 1156 515 1156 q 589 1138 571 1156 q 607 1092 607 1119 q 589 1046 607 1064 q 543 1028 571 1028 z "},"Ę":{"ha":810,"x_min":14,"x_max":771,"o":"m 14 0 l 19 21 l 125 60 l 265 857 l 169 896 l 175 917 l 771 917 l 731 685 l 708 685 l 675 863 l 363 863 l 299 501 l 524 501 l 592 617 l 615 617 l 565 332 l 540 332 l 515 446 l 289 446 l 219 54 l 586 54 l 683 246 l 706 246 l 663 0 l 576 0 q 490 -109 519 -60 q 460 -210 460 -158 q 543 -287 460 -287 q 579 -282 560 -287 q 617 -265 599 -276 l 621 -265 l 618 -282 q 571 -319 600 -306 q 506 -333 542 -333 q 424 -305 454 -333 q 393 -226 393 -276 q 436 -114 393 -169 q 544 0 479 -58 l 14 0 z "},"Ẹ":{"ha":810,"x_min":14,"x_max":771,"o":"m 14 0 l 19 21 l 125 60 l 265 857 l 169 896 l 175 917 l 771 917 l 731 685 l 708 685 l 675 863 l 363 863 l 299 501 l 524 501 l 592 617 l 615 617 l 565 332 l 540 332 l 515 446 l 289 446 l 219 54 l 586 54 l 683 246 l 706 246 l 663 0 l 14 0 z "},"Ȅ":{"ha":810,"x_min":14,"x_max":771,"o":"m 14 0 l 19 21 l 125 60 l 265 857 l 169 896 l 175 917 l 771 917 l 731 685 l 708 685 l 675 863 l 363 863 l 299 501 l 524 501 l 592 617 l 615 617 l 565 332 l 540 332 l 515 446 l 289 446 l 219 54 l 586 54 l 683 246 l 706 246 l 663 0 l 14 0 m 586 986 l 458 1114 q 431 1157 436 1138 q 429 1197 426 1176 l 493 1197 l 600 986 l 586 986 m 440 986 l 300 1114 q 271 1157 275 1136 q 269 1197 267 1178 l 333 1197 l 454 986 l 440 986 z "},"Ȇ":{"ha":810,"x_min":14,"x_max":771,"o":"m 14 0 l 19 21 l 125 60 l 265 857 l 169 896 l 175 917 l 771 917 l 731 685 l 708 685 l 675 863 l 363 863 l 299 501 l 524 501 l 592 617 l 615 617 l 565 332 l 540 332 l 515 446 l 289 446 l 219 54 l 586 54 l 683 246 l 706 246 l 663 0 l 14 0 m 339 988 q 427 1147 375 1094 q 557 1199 479 1199 q 674 1147 640 1199 q 710 988 707 1094 l 696 988 q 666 1082 685 1050 q 619 1125 647 1114 q 550 1136 590 1136 q 478 1125 511 1136 q 414 1082 444 1114 q 353 988 383 1050 l 339 988 z "},"Ế":{"ha":810,"x_min":14,"x_max":875,"o":"m 14 0 l 19 21 l 125 60 l 265 857 l 169 896 l 175 917 l 771 917 l 731 685 l 708 685 l 675 863 l 363 863 l 299 501 l 524 501 l 592 617 l 615 617 l 565 332 l 540 332 l 515 446 l 289 446 l 219 54 l 586 54 l 683 246 l 706 246 l 663 0 l 14 0 m 693 1118 l 790 1317 l 875 1317 q 860 1279 871 1296 q 825 1240 849 1263 l 706 1118 l 693 1118 m 332 986 l 546 1197 l 576 1197 l 703 986 l 689 986 l 546 1113 l 346 986 l 332 986 z "},"Ệ":{"ha":810,"x_min":14,"x_max":771,"o":"m 14 0 l 19 21 l 125 60 l 265 857 l 169 896 l 175 917 l 771 917 l 731 685 l 708 685 l 675 863 l 363 863 l 299 501 l 524 501 l 592 617 l 615 617 l 565 332 l 540 332 l 515 446 l 289 446 l 219 54 l 586 54 l 683 246 l 706 246 l 663 0 l 14 0 m 332 986 l 546 1197 l 576 1197 l 703 986 l 689 986 l 547 1113 l 346 986 l 332 986 z "},"Ề":{"ha":810,"x_min":14,"x_max":771,"o":"m 14 0 l 19 21 l 125 60 l 265 857 l 169 896 l 175 917 l 771 917 l 731 685 l 708 685 l 675 863 l 363 863 l 299 501 l 524 501 l 592 617 l 615 617 l 565 332 l 540 332 l 515 446 l 289 446 l 219 54 l 586 54 l 683 246 l 706 246 l 663 0 l 14 0 m 363 1118 l 239 1239 q 210 1317 200 1275 l 282 1317 l 375 1118 l 363 1118 m 332 986 l 546 1197 l 576 1197 l 703 986 l 689 986 l 546 1113 l 346 986 l 332 986 z "},"Ể":{"ha":810,"x_min":14,"x_max":771,"o":"m 14 0 l 19 21 l 125 60 l 265 857 l 169 896 l 175 917 l 771 917 l 731 685 l 708 685 l 675 863 l 363 863 l 299 501 l 524 501 l 592 617 l 615 617 l 565 332 l 540 332 l 515 446 l 289 446 l 219 54 l 586 54 l 683 246 l 706 246 l 663 0 l 14 0 z "},"Ễ":{"ha":810,"x_min":14,"x_max":783,"o":"m 14 0 l 19 21 l 125 60 l 265 857 l 169 896 l 175 917 l 771 917 l 731 685 l 708 685 l 675 863 l 363 863 l 299 501 l 524 501 l 592 617 l 615 617 l 565 332 l 540 332 l 515 446 l 289 446 l 219 54 l 586 54 l 683 246 l 706 246 l 663 0 l 14 0 z "},"Ẻ":{"ha":810,"x_min":14,"x_max":771,"o":"m 14 0 l 19 21 l 125 60 l 265 857 l 169 896 l 175 917 l 771 917 l 731 685 l 708 685 l 675 863 l 363 863 l 299 501 l 524 501 l 592 617 l 615 617 l 565 332 l 540 332 l 515 446 l 289 446 l 219 54 l 586 54 l 683 246 l 706 246 l 663 0 l 14 0 m 467 975 l 460 983 l 460 985 q 553 1025 522 1003 q 583 1088 583 1047 q 561 1135 583 1115 q 483 1164 539 1156 l 503 1215 q 605 1177 575 1208 q 635 1110 635 1146 q 467 975 635 1010 z "},"Ḕ":{"ha":810,"x_min":14,"x_max":771,"o":"m 14 0 l 19 21 l 125 60 l 265 857 l 169 896 l 175 917 l 771 917 l 731 685 l 708 685 l 675 863 l 363 863 l 299 501 l 524 501 l 592 617 l 615 617 l 565 332 l 540 332 l 515 446 l 289 446 l 219 54 l 586 54 l 683 246 l 706 246 l 663 0 l 14 0 z "},"Ḗ":{"ha":810,"x_min":14,"x_max":786,"o":"m 14 0 l 19 21 l 125 60 l 265 857 l 169 896 l 175 917 l 771 917 l 731 685 l 708 685 l 675 863 l 363 863 l 299 501 l 524 501 l 592 617 l 615 617 l 565 332 l 540 332 l 515 446 l 289 446 l 219 54 l 586 54 l 683 246 l 706 246 l 663 0 l 14 0 z "},"Ḝ":{"ha":810,"x_min":14,"x_max":771,"o":"m 525 986 q 409 1038 442 986 q 372 1197 376 1090 l 386 1197 q 416 1101 397 1133 q 463 1058 435 1069 q 532 1047 492 1047 q 605 1058 572 1047 q 667 1101 638 1069 q 729 1197 697 1133 l 743 1197 q 656 1038 708 1089 q 525 986 603 986 m 14 0 l 19 21 l 125 60 l 265 857 l 169 896 l 175 917 l 771 917 l 731 685 l 708 685 l 675 863 l 363 863 l 299 501 l 524 501 l 592 617 l 615 617 l 565 332 l 540 332 l 515 446 l 289 446 l 219 54 l 586 54 l 683 246 l 706 246 l 663 0 l 394 0 l 339 -87 q 435 -135 404 -106 q 467 -214 467 -164 q 426 -300 467 -267 q 324 -333 386 -333 q 266 -324 293 -333 q 225 -299 239 -315 l 228 -285 l 232 -285 q 315 -306 269 -306 q 384 -286 358 -306 q 410 -231 410 -267 q 380 -171 410 -192 q 276 -132 350 -150 l 360 0 l 14 0 z "},"Ĝ":{"ha":990,"x_min":83,"x_max":899,"o":"m 435 -14 q 247 35 326 -14 q 126 168 168 83 q 83 361 83 253 q 122 571 83 469 q 232 753 161 672 q 398 883 303 835 q 606 931 493 931 q 758 914 699 931 q 876 863 818 897 l 844 649 l 822 649 l 782 810 q 699 862 743 846 q 590 878 654 878 q 415 840 492 878 q 287 735 339 801 q 208 582 235 668 q 182 399 182 496 q 263 140 182 233 q 483 46 344 46 q 569 54 526 46 q 660 83 613 63 l 704 340 l 592 382 l 597 403 l 899 403 l 894 382 l 793 342 l 750 96 q 599 16 686 46 q 435 -14 513 -14 m 421 986 l 635 1197 l 665 1197 l 792 986 l 778 986 l 636 1113 l 435 986 l 421 986 z "},"Ğ":{"ha":990,"x_min":83,"x_max":899,"o":"m 435 -14 q 247 35 326 -14 q 126 168 168 83 q 83 361 83 253 q 122 571 83 469 q 232 753 161 672 q 398 883 303 835 q 606 931 493 931 q 758 914 699 931 q 876 863 818 897 l 844 649 l 822 649 l 782 810 q 699 862 743 846 q 590 878 654 878 q 415 840 492 878 q 287 735 339 801 q 208 582 235 668 q 182 399 182 496 q 263 140 182 233 q 483 46 344 46 q 569 54 526 46 q 660 83 613 63 l 704 340 l 592 382 l 597 403 l 899 403 l 894 382 l 793 342 l 750 96 q 599 16 686 46 q 435 -14 513 -14 m 614 986 q 498 1038 531 986 q 461 1197 465 1090 l 475 1197 q 505 1101 486 1133 q 552 1058 524 1069 q 621 1047 581 1047 q 694 1058 661 1047 q 757 1101 726 1069 q 818 1197 788 1133 l 832 1197 q 744 1038 797 1089 q 614 986 692 986 z "},"Ġ":{"ha":990,"x_min":83,"x_max":899,"o":"m 435 -14 q 247 35 326 -14 q 126 168 168 83 q 83 361 83 253 q 122 571 83 469 q 232 753 161 672 q 398 883 303 835 q 606 931 493 931 q 758 914 699 931 q 876 863 818 897 l 844 649 l 822 649 l 782 810 q 699 862 743 846 q 590 878 654 878 q 415 840 492 878 q 287 735 339 801 q 208 582 235 668 q 182 399 182 496 q 263 140 182 233 q 483 46 344 46 q 569 54 526 46 q 660 83 613 63 l 704 340 l 592 382 l 597 403 l 899 403 l 894 382 l 793 342 l 750 96 q 599 16 686 46 q 435 -14 513 -14 m 633 1028 q 588 1046 606 1028 q 569 1092 569 1064 q 588 1138 569 1119 q 633 1156 606 1156 q 679 1138 661 1156 q 697 1092 697 1119 q 679 1046 697 1064 q 633 1028 661 1028 z "},"Ģ":{"ha":990,"x_min":83,"x_max":899,"o":"m 435 -14 q 247 35 326 -14 q 126 168 168 83 q 83 361 83 253 q 122 571 83 469 q 232 753 161 672 q 398 883 303 835 q 606 931 493 931 q 758 914 699 931 q 876 863 818 897 l 844 649 l 822 649 l 782 810 q 699 862 743 846 q 590 878 654 878 q 415 840 492 878 q 287 735 339 801 q 208 582 235 668 q 182 399 182 496 q 263 140 182 233 q 483 46 344 46 q 569 54 526 46 q 660 83 613 63 l 704 340 l 592 382 l 597 403 l 899 403 l 894 382 l 793 342 l 750 96 q 599 16 686 46 q 435 -14 513 -14 m 653 985 q 551 1013 586 986 q 515 1086 515 1040 q 560 1169 515 1140 q 675 1199 606 1199 q 699 1198 686 1199 q 722 1194 713 1197 l 718 1181 q 700 1183 708 1182 q 682 1183 692 1183 q 606 1165 636 1183 q 576 1107 576 1146 q 607 1056 576 1071 q 703 1040 638 1040 l 696 1010 q 683 991 692 997 q 653 985 675 985 z "},"Ǧ":{"ha":990,"x_min":83,"x_max":899,"o":"m 435 -14 q 247 35 326 -14 q 126 168 168 83 q 83 361 83 253 q 122 571 83 469 q 232 753 161 672 q 398 883 303 835 q 606 931 493 931 q 758 914 699 931 q 876 863 818 897 l 844 649 l 822 649 l 782 810 q 699 862 743 846 q 590 878 654 878 q 415 840 492 878 q 287 735 339 801 q 208 582 235 668 q 182 399 182 496 q 263 140 182 233 q 483 46 344 46 q 569 54 526 46 q 660 83 613 63 l 704 340 l 592 382 l 597 403 l 899 403 l 894 382 l 793 342 l 750 96 q 599 16 686 46 q 435 -14 513 -14 m 600 986 l 471 1197 l 485 1197 l 628 1071 l 828 1197 l 842 1197 l 631 986 l 600 986 z "},"Ḡ":{"ha":990,"x_min":83,"x_max":899,"o":"m 435 -14 q 247 35 326 -14 q 126 168 168 83 q 83 361 83 253 q 122 571 83 469 q 232 753 161 672 q 398 883 303 835 q 606 931 493 931 q 758 914 699 931 q 876 863 818 897 l 844 649 l 822 649 l 782 810 q 699 862 743 846 q 590 878 654 878 q 415 840 492 878 q 287 735 339 801 q 208 582 235 668 q 182 399 182 496 q 263 140 182 233 q 483 46 344 46 q 569 54 526 46 q 660 83 613 63 l 704 340 l 592 382 l 597 403 l 899 403 l 894 382 l 793 342 l 750 96 q 599 16 686 46 q 435 -14 513 -14 m 456 1069 l 465 1119 l 807 1119 l 797 1069 l 456 1069 z "},"Ĥ":{"ha":1039,"x_min":14,"x_max":1025,"o":"m 14 0 l 17 21 l 121 60 l 263 858 l 158 896 l 164 917 l 469 917 l 465 896 l 357 857 l 294 501 l 756 501 l 819 858 l 714 896 l 718 917 l 1025 917 l 1019 896 l 914 857 l 772 58 l 879 21 l 875 0 l 569 0 l 572 21 l 678 60 l 746 447 l 285 447 l 215 58 l 324 21 l 321 0 l 14 0 m 417 986 l 631 1197 l 661 1197 l 788 986 l 774 986 l 632 1113 l 431 986 l 417 986 z "},"Ħ":{"ha":1039,"x_min":14,"x_max":1025,"o":"m 14 0 l 17 21 l 121 60 l 229 667 l 125 667 l 135 715 l 238 715 l 263 858 l 158 896 l 164 917 l 469 917 l 465 896 l 357 857 l 332 715 l 794 715 l 819 858 l 714 896 l 718 917 l 1025 917 l 1019 896 l 914 857 l 889 715 l 989 715 l 979 667 l 881 667 l 772 58 l 879 21 l 875 0 l 569 0 l 572 21 l 678 60 l 746 447 l 285 447 l 215 58 l 324 21 l 321 0 l 14 0 m 294 501 l 756 501 l 786 667 l 324 667 l 294 501 z "},"Ḥ":{"ha":1039,"x_min":14,"x_max":1025,"o":"m 14 0 l 17 21 l 121 60 l 263 858 l 158 896 l 164 917 l 469 917 l 465 896 l 357 857 l 294 501 l 756 501 l 819 858 l 714 896 l 718 917 l 1025 917 l 1019 896 l 914 857 l 772 58 l 879 21 l 875 0 l 569 0 l 572 21 l 678 60 l 746 447 l 285 447 l 215 58 l 324 21 l 321 0 l 14 0 z "},"Ḫ":{"ha":1039,"x_min":14,"x_max":1025,"o":"m 14 0 l 17 21 l 121 60 l 263 858 l 158 896 l 164 917 l 469 917 l 465 896 l 357 857 l 294 501 l 756 501 l 819 858 l 714 896 l 718 917 l 1025 917 l 1019 896 l 914 857 l 772 58 l 879 21 l 875 0 l 569 0 l 572 21 l 678 60 l 746 447 l 285 447 l 215 58 l 324 21 l 321 0 l 14 0 z "},"Ì":{"ha":481,"x_min":13,"x_max":467,"o":"m 13 0 l 17 21 l 121 60 l 263 858 l 165 896 l 169 917 l 467 917 l 463 896 l 357 858 l 215 60 l 315 21 l 311 0 l 13 0 m 325 986 l 156 1122 q 133 1158 135 1138 q 135 1197 131 1178 l 208 1197 l 339 986 l 325 986 z "},"Í":{"ha":481,"x_min":13,"x_max":561,"o":"m 13 0 l 17 21 l 121 60 l 263 858 l 165 896 l 169 917 l 467 917 l 463 896 l 357 858 l 215 60 l 315 21 l 311 0 l 13 0 m 325 986 l 475 1197 l 561 1197 q 547 1158 557 1176 q 510 1119 536 1139 l 339 986 l 325 986 z "},"Î":{"ha":481,"x_min":13,"x_max":510,"o":"m 13 0 l 17 21 l 121 60 l 263 858 l 165 896 l 169 917 l 467 917 l 463 896 l 357 858 l 215 60 l 315 21 l 311 0 l 13 0 m 139 986 l 353 1197 l 383 1197 l 510 986 l 496 986 l 354 1113 l 153 986 l 139 986 z "},"Ĩ":{"ha":481,"x_min":13,"x_max":557,"o":"m 13 0 l 17 21 l 121 60 l 263 858 l 165 896 l 169 917 l 467 917 l 463 896 l 357 858 l 215 60 l 315 21 l 311 0 l 13 0 m 144 1010 q 197 1111 175 1078 q 240 1156 219 1144 q 282 1168 260 1168 q 329 1153 308 1168 q 368 1117 350 1138 q 403 1082 386 1097 q 442 1067 421 1067 q 486 1088 465 1067 q 539 1168 507 1110 l 557 1168 q 506 1067 528 1100 q 463 1022 483 1033 q 419 1010 443 1010 q 374 1025 394 1010 q 335 1060 353 1040 q 299 1096 317 1081 q 261 1111 282 1111 q 215 1090 236 1111 q 163 1010 193 1068 l 144 1010 z "},"Ï":{"ha":481,"x_min":13,"x_max":531,"o":"m 13 0 l 17 21 l 121 60 l 263 858 l 165 896 l 169 917 l 467 917 l 463 896 l 357 858 l 215 60 l 315 21 l 311 0 l 13 0 m 228 1035 q 188 1051 204 1035 q 172 1092 172 1068 q 188 1132 172 1115 q 228 1149 204 1149 q 268 1132 251 1149 q 285 1092 285 1115 q 268 1051 285 1068 q 228 1035 251 1035 m 475 1035 q 435 1051 451 1035 q 418 1092 418 1068 q 435 1132 418 1115 q 475 1149 451 1149 q 515 1132 499 1149 q 531 1092 531 1115 q 515 1051 531 1068 q 475 1035 499 1035 z "},"Ī":{"ha":481,"x_min":13,"x_max":524,"o":"m 13 0 l 17 21 l 121 60 l 263 858 l 165 896 l 169 917 l 467 917 l 463 896 l 357 858 l 215 60 l 315 21 l 311 0 l 13 0 m 172 1069 l 182 1119 l 524 1119 l 514 1069 l 172 1069 z "},"Ĭ":{"ha":481,"x_min":13,"x_max":550,"o":"m 13 0 l 17 21 l 121 60 l 263 858 l 165 896 l 169 917 l 467 917 l 463 896 l 357 858 l 215 60 l 315 21 l 311 0 l 13 0 m 332 986 q 216 1038 249 986 q 179 1197 183 1090 l 193 1197 q 223 1101 204 1133 q 270 1058 242 1069 q 339 1047 299 1047 q 412 1058 379 1047 q 475 1101 444 1069 q 536 1197 506 1133 l 550 1197 q 463 1038 515 1089 q 332 986 410 986 z "},"İ":{"ha":481,"x_min":13,"x_max":467,"o":"m 13 0 l 17 21 l 121 60 l 263 858 l 165 896 l 169 917 l 467 917 l 463 896 l 357 858 l 215 60 l 315 21 l 311 0 l 13 0 m 350 1028 q 304 1046 322 1028 q 286 1092 286 1064 q 304 1138 286 1119 q 350 1156 322 1156 q 396 1138 378 1156 q 414 1092 414 1119 q 396 1046 414 1064 q 350 1028 378 1028 z "},"Į":{"ha":481,"x_min":3,"x_max":467,"o":"m 14 0 l 17 21 l 121 60 l 263 858 l 165 896 l 169 917 l 467 917 l 463 896 l 357 858 l 215 60 l 315 21 l 313 0 l 186 0 q 99 -109 129 -60 q 69 -210 69 -158 q 153 -287 69 -287 q 189 -282 169 -287 q 226 -265 208 -276 l 231 -265 l 228 -282 q 180 -319 208 -306 q 115 -333 151 -333 q 33 -305 64 -333 q 3 -226 3 -276 q 46 -114 3 -169 q 154 0 89 -58 l 14 0 z "},"Ị":{"ha":481,"x_min":13,"x_max":467,"o":"m 13 0 l 17 21 l 121 60 l 263 858 l 165 896 l 169 917 l 467 917 l 463 896 l 357 858 l 215 60 l 315 21 l 311 0 l 13 0 z "},"Ȉ":{"ha":481,"x_min":13,"x_max":467,"o":"m 13 0 l 17 21 l 121 60 l 263 858 l 165 896 l 169 917 l 467 917 l 463 896 l 357 858 l 215 60 l 315 21 l 311 0 l 13 0 m 393 986 l 265 1114 q 238 1157 243 1138 q 236 1197 233 1176 l 300 1197 l 407 986 l 393 986 m 247 986 l 107 1114 q 78 1157 82 1136 q 76 1197 74 1178 l 140 1197 l 261 986 l 247 986 z "},"Ȋ":{"ha":481,"x_min":13,"x_max":518,"o":"m 13 0 l 17 21 l 121 60 l 263 858 l 165 896 l 169 917 l 467 917 l 463 896 l 357 858 l 215 60 l 315 21 l 311 0 l 13 0 m 147 988 q 235 1147 183 1094 q 365 1199 288 1199 q 482 1147 449 1199 q 518 988 515 1094 l 504 988 q 474 1082 493 1050 q 427 1125 456 1114 q 358 1136 399 1136 q 286 1125 319 1136 q 222 1082 253 1114 q 161 988 192 1050 l 147 988 z "},"Ỉ":{"ha":481,"x_min":13,"x_max":467,"o":"m 13 0 l 17 21 l 121 60 l 263 858 l 165 896 l 169 917 l 467 917 l 463 896 l 357 858 l 215 60 l 315 21 l 311 0 l 13 0 m 275 975 l 268 983 l 268 985 q 361 1025 331 1003 q 392 1088 392 1047 q 369 1135 392 1115 q 292 1164 347 1156 l 311 1215 q 413 1177 383 1208 q 443 1110 443 1146 q 275 975 443 1010 z "},"Ḯ":{"ha":481,"x_min":13,"x_max":600,"o":"m 13 0 l 17 21 l 121 60 l 263 858 l 165 896 l 169 917 l 467 917 l 463 896 l 357 858 l 215 60 l 315 21 l 311 0 l 13 0 z "},"Ĳ":{"ha":972,"x_min":13,"x_max":964,"o":"m 13 0 l 17 21 l 121 60 l 263 858 l 165 896 l 169 917 l 467 917 l 463 896 l 357 858 l 215 60 l 315 21 l 311 0 l 13 0 m 436 -240 q 403 -227 417 -240 q 400 -186 390 -214 l 421 -132 l 428 -132 q 461 -142 449 -139 q 490 -144 474 -144 q 541 -129 518 -144 q 583 -68 564 -114 q 618 71 603 -22 l 758 858 l 663 896 l 667 917 l 964 917 l 960 896 l 854 858 l 756 311 q 687 31 726 146 q 585 -144 647 -83 q 517 -207 542 -186 q 476 -234 493 -228 q 436 -240 458 -240 z "},"Ĵ":{"ha":490,"x_min":-90,"x_max":526,"o":"m -44 -240 q -77 -227 -64 -240 q -81 -186 -90 -214 l -60 -132 l -53 -132 q -19 -142 -32 -139 q 10 -144 -7 -144 q 60 -129 38 -144 q 103 -68 83 -114 q 138 71 122 -22 l 278 858 l 182 896 l 186 917 l 483 917 l 479 896 l 374 858 l 275 311 q 206 31 246 146 q 104 -144 167 -83 q 37 -207 61 -186 q -5 -234 13 -228 q -44 -240 -22 -240 m 156 986 l 369 1197 l 400 1197 l 526 986 l 513 986 l 371 1113 l 169 986 l 156 986 z "},"Ķ":{"ha":925,"x_min":13,"x_max":903,"o":"m 13 0 l 17 21 l 125 60 l 265 858 l 171 896 l 175 917 l 474 917 l 468 896 l 363 858 l 294 472 l 722 857 l 628 896 l 632 917 l 903 917 l 897 896 l 818 872 l 386 493 l 743 53 l 821 21 l 817 0 l 657 0 l 293 467 l 221 60 l 322 21 l 318 0 l 13 0 m 333 -332 q 310 -331 324 -332 q 286 -328 296 -331 l 290 -314 q 309 -316 300 -315 q 328 -317 318 -317 q 402 -297 372 -317 q 432 -239 432 -278 q 401 -187 432 -203 q 307 -172 371 -172 l 314 -143 q 326 -124 317 -131 q 357 -118 335 -118 q 458 -147 422 -119 q 493 -219 493 -174 q 448 -303 493 -274 q 333 -332 403 -332 z "},"Ĺ":{"ha":794,"x_min":14,"x_max":688,"o":"m 14 0 l 19 21 l 125 60 l 265 857 l 171 896 l 175 917 l 486 917 l 482 896 l 361 857 l 221 54 l 550 54 l 664 297 l 688 297 l 636 0 l 14 0 m 331 986 l 481 1197 l 567 1197 q 552 1158 563 1176 q 515 1119 542 1139 l 344 986 l 331 986 z "},"Ľ":{"ha":794,"x_min":14,"x_max":703,"o":"m 14 0 l 19 21 l 125 60 l 265 857 l 171 896 l 175 917 l 486 917 l 482 896 l 361 857 l 221 54 l 550 54 l 664 297 l 688 297 l 636 0 l 14 0 m 535 657 l 621 917 l 700 917 q 696 874 703 894 q 669 826 689 854 l 549 657 l 535 657 z "},"Ļ":{"ha":794,"x_min":14,"x_max":688,"o":"m 14 0 l 19 21 l 125 60 l 265 857 l 171 896 l 175 917 l 486 917 l 482 896 l 361 857 l 221 54 l 550 54 l 664 297 l 688 297 l 636 0 l 14 0 m 268 -332 q 244 -331 258 -332 q 221 -328 231 -331 l 225 -314 q 244 -316 235 -315 q 263 -317 253 -317 q 337 -297 307 -317 q 367 -239 367 -278 q 336 -187 367 -203 q 242 -172 306 -172 l 249 -143 q 260 -124 251 -131 q 292 -118 269 -118 q 392 -147 357 -119 q 428 -219 428 -174 q 383 -303 428 -274 q 268 -332 338 -332 z "},"Ł":{"ha":794,"x_min":14,"x_max":688,"o":"m 14 0 l 19 21 l 125 60 l 181 379 l 68 314 l 82 379 l 193 444 l 265 857 l 171 896 l 175 917 l 486 917 l 482 896 l 361 857 l 297 493 l 558 639 l 543 574 l 286 431 l 221 54 l 550 54 l 664 297 l 688 297 l 636 0 l 14 0 z "},"Ŀ":{"ha":794,"x_min":14,"x_max":717,"o":"m 14 0 l 19 21 l 125 60 l 265 857 l 171 896 l 175 917 l 486 917 l 482 896 l 361 857 l 221 54 l 550 54 l 664 297 l 688 297 l 636 0 l 14 0 m 653 413 q 607 431 625 413 q 589 476 589 449 q 607 522 589 504 q 653 540 625 540 q 699 522 681 540 q 717 476 717 504 q 699 431 717 449 q 653 413 681 413 z "},"Ḷ":{"ha":794,"x_min":14,"x_max":688,"o":"m 14 0 l 19 21 l 125 60 l 265 857 l 171 896 l 175 917 l 486 917 l 482 896 l 361 857 l 221 54 l 550 54 l 664 297 l 688 297 l 636 0 l 14 0 z "},"Ḻ":{"ha":794,"x_min":14,"x_max":688,"o":"m 14 0 l 19 21 l 125 60 l 265 857 l 171 896 l 175 917 l 486 917 l 482 896 l 361 857 l 221 54 l 550 54 l 664 297 l 688 297 l 636 0 l 14 0 z "},"Ṃ":{"ha":1239,"x_min":14,"x_max":1225,"o":"m 14 0 l 19 21 l 126 60 l 293 856 l 185 897 l 190 917 l 407 917 l 586 146 l 1015 917 l 1225 917 l 1221 896 l 1107 856 l 1010 60 l 1093 21 l 1089 0 l 808 0 l 814 21 l 915 58 l 1011 794 l 563 -7 l 522 -7 l 340 794 l 193 58 l 290 21 l 286 0 l 14 0 z "},"Ń":{"ha":1033,"x_min":13,"x_max":1024,"o":"m 13 0 l 17 21 l 126 60 l 267 857 l 163 896 l 167 917 l 353 917 l 732 182 l 851 858 l 728 896 l 733 917 l 1024 917 l 1019 896 l 915 858 l 764 -7 l 725 -7 l 318 769 l 193 61 l 310 21 l 306 0 l 13 0 m 622 986 l 772 1197 l 858 1197 q 844 1158 854 1176 q 807 1119 833 1139 l 636 986 l 622 986 z "},"Ň":{"ha":1033,"x_min":13,"x_max":1024,"o":"m 13 0 l 17 21 l 126 60 l 267 857 l 163 896 l 167 917 l 353 917 l 732 182 l 851 858 l 728 896 l 733 917 l 1024 917 l 1019 896 l 915 858 l 764 -7 l 725 -7 l 318 769 l 193 61 l 310 21 l 306 0 l 13 0 m 614 986 l 485 1197 l 499 1197 l 642 1071 l 842 1197 l 856 1197 l 644 986 l 614 986 z "},"Ñ":{"ha":1033,"x_min":13,"x_max":1024,"o":"m 13 0 l 17 21 l 126 60 l 267 857 l 163 896 l 167 917 l 353 917 l 732 182 l 851 858 l 728 896 l 733 917 l 1024 917 l 1019 896 l 915 858 l 764 -7 l 725 -7 l 318 769 l 193 61 l 310 21 l 306 0 l 13 0 m 442 1010 q 494 1111 472 1078 q 537 1156 517 1144 q 579 1168 557 1168 q 626 1153 606 1168 q 665 1117 647 1138 q 701 1082 683 1097 q 739 1067 718 1067 q 783 1088 763 1067 q 836 1168 804 1110 l 854 1168 q 803 1067 825 1100 q 760 1022 781 1033 q 717 1010 740 1010 q 671 1025 692 1010 q 632 1060 650 1040 q 597 1096 614 1081 q 558 1111 579 1111 q 512 1090 533 1111 q 460 1010 490 1068 l 442 1010 z "},"Ņ":{"ha":1033,"x_min":13,"x_max":1024,"o":"m 13 0 l 17 21 l 126 60 l 267 857 l 163 896 l 167 917 l 353 917 l 732 182 l 851 858 l 728 896 l 733 917 l 1024 917 l 1019 896 l 915 858 l 764 -7 l 725 -7 l 318 769 l 193 61 l 310 21 l 306 0 l 13 0 m 375 -332 q 351 -331 365 -332 q 328 -328 338 -331 l 332 -314 q 351 -316 342 -315 q 369 -317 360 -317 q 444 -297 414 -317 q 474 -239 474 -278 q 443 -187 474 -203 q 349 -172 413 -172 l 356 -143 q 367 -124 358 -131 q 399 -118 376 -118 q 499 -147 464 -119 q 535 -219 535 -174 q 490 -303 535 -274 q 375 -332 444 -332 z "},"Ṅ":{"ha":1033,"x_min":13,"x_max":1024,"o":"m 13 0 l 17 21 l 126 60 l 267 857 l 163 896 l 167 917 l 353 917 l 732 182 l 851 858 l 728 896 l 733 917 l 1024 917 l 1019 896 l 915 858 l 764 -7 l 725 -7 l 318 769 l 193 61 l 310 21 l 306 0 l 13 0 m 647 1028 q 601 1046 619 1028 q 583 1092 583 1064 q 601 1138 583 1119 q 647 1156 619 1156 q 693 1138 675 1156 q 711 1092 711 1119 q 693 1046 711 1064 q 647 1028 675 1028 z "},"Ṇ":{"ha":1033,"x_min":13,"x_max":1024,"o":"m 13 0 l 17 21 l 126 60 l 267 857 l 163 896 l 167 917 l 353 917 l 732 182 l 851 858 l 728 896 l 733 917 l 1024 917 l 1019 896 l 915 858 l 764 -7 l 725 -7 l 318 769 l 193 61 l 310 21 l 306 0 l 13 0 z "},"Ṉ":{"ha":1033,"x_min":13,"x_max":1024,"o":"m 13 0 l 17 21 l 126 60 l 267 857 l 163 896 l 167 917 l 353 917 l 732 182 l 851 858 l 728 896 l 733 917 l 1024 917 l 1019 896 l 915 858 l 764 -7 l 725 -7 l 318 769 l 193 61 l 310 21 l 306 0 l 13 0 z "},"Ò":{"ha":1013,"x_min":83,"x_max":929,"o":"m 429 -14 q 247 35 325 -14 q 126 169 169 83 q 83 368 83 256 q 122 582 83 481 q 228 762 160 683 q 387 885 296 840 q 583 931 478 931 q 766 882 689 931 q 886 747 843 833 q 929 549 929 661 q 893 341 929 442 q 790 160 857 240 q 631 33 722 81 q 429 -14 539 -14 m 467 33 q 609 72 543 33 q 725 177 675 110 q 803 335 775 244 q 831 532 831 426 q 794 717 831 638 q 695 842 758 797 q 550 886 632 886 q 403 848 471 886 q 286 742 336 810 q 209 583 236 674 q 182 388 182 493 q 218 203 182 283 q 319 78 254 124 q 467 33 383 33 m 586 986 l 417 1122 q 394 1158 396 1138 q 396 1197 392 1178 l 469 1197 l 600 986 l 586 986 z "},"Ó":{"ha":1013,"x_min":83,"x_max":929,"o":"m 429 -14 q 247 35 325 -14 q 126 169 169 83 q 83 368 83 256 q 122 582 83 481 q 228 762 160 683 q 387 885 296 840 q 583 931 478 931 q 766 882 689 931 q 886 747 843 833 q 929 549 929 661 q 893 341 929 442 q 790 160 857 240 q 631 33 722 81 q 429 -14 539 -14 m 467 33 q 609 72 543 33 q 725 177 675 110 q 803 335 775 244 q 831 532 831 426 q 794 717 831 638 q 695 842 758 797 q 550 886 632 886 q 403 848 471 886 q 286 742 336 810 q 209 583 236 674 q 182 388 182 493 q 218 203 182 283 q 319 78 254 124 q 467 33 383 33 m 588 986 l 738 1197 l 824 1197 q 809 1158 819 1176 q 772 1119 799 1139 l 601 986 l 588 986 z "},"Ô":{"ha":1013,"x_min":83,"x_max":929,"o":"m 429 -14 q 247 35 325 -14 q 126 169 169 83 q 83 368 83 256 q 122 582 83 481 q 228 762 160 683 q 387 885 296 840 q 583 931 478 931 q 766 882 689 931 q 886 747 843 833 q 929 549 929 661 q 893 341 929 442 q 790 160 857 240 q 631 33 722 81 q 429 -14 539 -14 m 467 33 q 609 72 543 33 q 725 177 675 110 q 803 335 775 244 q 831 532 831 426 q 794 717 831 638 q 695 842 758 797 q 550 886 632 886 q 403 848 471 886 q 286 742 336 810 q 209 583 236 674 q 182 388 182 493 q 218 203 182 283 q 319 78 254 124 q 467 33 383 33 m 400 986 l 614 1197 l 644 1197 l 771 986 l 757 986 l 615 1113 l 414 986 l 400 986 z "},"Õ":{"ha":1013,"x_min":83,"x_max":929,"o":"m 429 -14 q 247 35 325 -14 q 126 169 169 83 q 83 368 83 256 q 122 582 83 481 q 228 762 160 683 q 387 885 296 840 q 583 931 478 931 q 766 882 689 931 q 886 747 843 833 q 929 549 929 661 q 893 341 929 442 q 790 160 857 240 q 631 33 722 81 q 429 -14 539 -14 m 467 33 q 609 72 543 33 q 725 177 675 110 q 803 335 775 244 q 831 532 831 426 q 794 717 831 638 q 695 842 758 797 q 550 886 632 886 q 403 848 471 886 q 286 742 336 810 q 209 583 236 674 q 182 388 182 493 q 218 203 182 283 q 319 78 254 124 q 467 33 383 33 m 406 1010 q 458 1111 436 1078 q 501 1156 481 1144 q 543 1168 521 1168 q 590 1153 569 1168 q 629 1117 611 1138 q 665 1082 647 1097 q 703 1067 682 1067 q 747 1088 726 1067 q 800 1168 768 1110 l 818 1168 q 767 1067 789 1100 q 724 1022 744 1033 q 681 1010 704 1010 q 635 1025 656 1010 q 596 1060 614 1040 q 560 1096 578 1081 q 522 1111 543 1111 q 476 1090 497 1111 q 424 1010 454 1068 l 406 1010 z "},"Ö":{"ha":1013,"x_min":83,"x_max":929,"o":"m 429 -14 q 247 35 325 -14 q 126 169 169 83 q 83 368 83 256 q 122 582 83 481 q 228 762 160 683 q 387 885 296 840 q 583 931 478 931 q 766 882 689 931 q 886 747 843 833 q 929 549 929 661 q 893 341 929 442 q 790 160 857 240 q 631 33 722 81 q 429 -14 539 -14 m 467 33 q 609 72 543 33 q 725 177 675 110 q 803 335 775 244 q 831 532 831 426 q 794 717 831 638 q 695 842 758 797 q 550 886 632 886 q 403 848 471 886 q 286 742 336 810 q 209 583 236 674 q 182 388 182 493 q 218 203 182 283 q 319 78 254 124 q 467 33 383 33 m 489 1035 q 449 1051 465 1035 q 433 1092 433 1068 q 449 1132 433 1115 q 489 1149 465 1149 q 529 1132 513 1149 q 546 1092 546 1115 q 529 1051 546 1068 q 489 1035 513 1035 m 736 1035 q 696 1051 713 1035 q 679 1092 679 1068 q 696 1132 679 1115 q 736 1149 713 1149 q 776 1132 760 1149 q 792 1092 792 1115 q 776 1051 792 1068 q 736 1035 760 1035 z "},"Ō":{"ha":1013,"x_min":83,"x_max":929,"o":"m 429 -14 q 247 35 325 -14 q 126 169 169 83 q 83 368 83 256 q 122 582 83 481 q 228 762 160 683 q 387 885 296 840 q 583 931 478 931 q 766 882 689 931 q 886 747 843 833 q 929 549 929 661 q 893 341 929 442 q 790 160 857 240 q 631 33 722 81 q 429 -14 539 -14 m 467 33 q 609 72 543 33 q 725 177 675 110 q 803 335 775 244 q 831 532 831 426 q 794 717 831 638 q 695 842 758 797 q 550 886 632 886 q 403 848 471 886 q 286 742 336 810 q 209 583 236 674 q 182 388 182 493 q 218 203 182 283 q 319 78 254 124 q 467 33 383 33 m 435 1069 l 444 1119 l 786 1119 l 776 1069 l 435 1069 z "},"Ŏ":{"ha":1013,"x_min":83,"x_max":929,"o":"m 429 -14 q 247 35 325 -14 q 126 169 169 83 q 83 368 83 256 q 122 582 83 481 q 228 762 160 683 q 387 885 296 840 q 583 931 478 931 q 766 882 689 931 q 886 747 843 833 q 929 549 929 661 q 893 341 929 442 q 790 160 857 240 q 631 33 722 81 q 429 -14 539 -14 m 467 33 q 609 72 543 33 q 725 177 675 110 q 803 335 775 244 q 831 532 831 426 q 794 717 831 638 q 695 842 758 797 q 550 886 632 886 q 403 848 471 886 q 286 742 336 810 q 209 583 236 674 q 182 388 182 493 q 218 203 182 283 q 319 78 254 124 q 467 33 383 33 m 593 986 q 477 1038 510 986 q 440 1197 444 1090 l 454 1197 q 484 1101 465 1133 q 531 1058 503 1069 q 600 1047 560 1047 q 673 1058 640 1047 q 736 1101 706 1069 q 797 1197 767 1133 l 811 1197 q 724 1038 776 1089 q 593 986 671 986 z "},"Ő":{"ha":1013,"x_min":83,"x_max":929,"o":"m 429 -14 q 247 35 325 -14 q 126 169 169 83 q 83 368 83 256 q 122 582 83 481 q 228 762 160 683 q 387 885 296 840 q 583 931 478 931 q 766 882 689 931 q 886 747 843 833 q 929 549 929 661 q 893 341 929 442 q 790 160 857 240 q 631 33 722 81 q 429 -14 539 -14 m 467 33 q 609 72 543 33 q 725 177 675 110 q 803 335 775 244 q 831 532 831 426 q 794 717 831 638 q 695 842 758 797 q 550 886 632 886 q 403 848 471 886 q 286 742 336 810 q 209 583 236 674 q 182 388 182 493 q 218 203 182 283 q 319 78 254 124 q 467 33 383 33 m 510 986 l 622 1197 l 686 1197 q 684 1155 689 1176 q 654 1110 679 1133 l 524 986 l 510 986 m 660 986 l 783 1197 l 847 1197 q 846 1154 850 1176 q 817 1110 842 1132 l 672 986 l 660 986 z "},"Ọ":{"ha":1013,"x_min":83,"x_max":929,"o":"m 429 -14 q 247 35 325 -14 q 126 169 169 83 q 83 368 83 256 q 122 582 83 481 q 228 762 160 683 q 387 885 296 840 q 583 931 478 931 q 766 882 689 931 q 886 747 843 833 q 929 549 929 661 q 893 341 929 442 q 790 160 857 240 q 631 33 722 81 q 429 -14 539 -14 m 467 33 q 609 72 543 33 q 725 177 675 110 q 803 335 775 244 q 831 532 831 426 q 794 717 831 638 q 695 842 758 797 q 550 886 632 886 q 403 848 471 886 q 286 742 336 810 q 209 583 236 674 q 182 388 182 493 q 218 203 182 283 q 319 78 254 124 q 467 33 383 33 z "},"Ǫ":{"ha":1013,"x_min":83,"x_max":929,"o":"m 388 -333 q 306 -305 336 -333 q 275 -226 275 -276 q 313 -121 275 -174 q 410 -14 351 -68 q 238 41 311 -8 q 124 174 164 90 q 83 368 83 258 q 122 582 83 481 q 228 762 160 683 q 387 885 296 840 q 583 931 478 931 q 766 882 689 931 q 886 747 843 833 q 929 549 929 661 q 894 344 929 443 q 794 165 858 244 q 640 38 729 86 q 444 -14 551 -10 q 367 -115 393 -68 q 342 -210 342 -161 q 363 -269 342 -250 q 424 -287 385 -287 q 460 -282 440 -287 q 497 -265 479 -276 l 501 -265 l 499 -282 q 452 -319 481 -306 q 388 -333 424 -333 m 467 33 q 609 72 543 33 q 725 177 675 110 q 803 335 775 244 q 831 532 831 426 q 794 717 831 638 q 695 842 758 797 q 550 886 632 886 q 403 848 471 886 q 286 742 336 810 q 209 583 236 674 q 182 388 182 493 q 218 203 182 283 q 319 78 254 124 q 467 33 383 33 z "},"Ȍ":{"ha":1013,"x_min":83,"x_max":929,"o":"m 429 -14 q 247 35 325 -14 q 126 169 169 83 q 83 368 83 256 q 122 582 83 481 q 228 762 160 683 q 387 885 296 840 q 583 931 478 931 q 766 882 689 931 q 886 747 843 833 q 929 549 929 661 q 893 341 929 442 q 790 160 857 240 q 631 33 722 81 q 429 -14 539 -14 m 467 33 q 609 72 543 33 q 725 177 675 110 q 803 335 775 244 q 831 532 831 426 q 794 717 831 638 q 695 842 758 797 q 550 886 632 886 q 403 848 471 886 q 286 742 336 810 q 209 583 236 674 q 182 388 182 493 q 218 203 182 283 q 319 78 254 124 q 467 33 383 33 m 654 986 l 526 1114 q 499 1157 504 1138 q 497 1197 494 1176 l 561 1197 l 668 986 l 654 986 m 508 986 l 368 1114 q 339 1157 343 1136 q 338 1197 335 1178 l 401 1197 l 522 986 l 508 986 z "},"Ȏ":{"ha":1013,"x_min":83,"x_max":929,"o":"m 429 -14 q 247 35 325 -14 q 126 169 169 83 q 83 368 83 256 q 122 582 83 481 q 228 762 160 683 q 387 885 296 840 q 583 931 478 931 q 766 882 689 931 q 886 747 843 833 q 929 549 929 661 q 893 341 929 442 q 790 160 857 240 q 631 33 722 81 q 429 -14 539 -14 m 467 33 q 609 72 543 33 q 725 177 675 110 q 803 335 775 244 q 831 532 831 426 q 794 717 831 638 q 695 842 758 797 q 550 886 632 886 q 403 848 471 886 q 286 742 336 810 q 209 583 236 674 q 182 388 182 493 q 218 203 182 283 q 319 78 254 124 q 467 33 383 33 m 408 988 q 497 1147 444 1094 q 626 1199 549 1199 q 743 1147 710 1199 q 779 988 776 1094 l 765 988 q 735 1082 754 1050 q 688 1125 717 1114 q 619 1136 660 1136 q 547 1125 581 1136 q 483 1082 514 1114 q 422 988 453 1050 l 408 988 z "},"Ȫ":{"ha":1013,"x_min":83,"x_max":929,"o":"m 429 -14 q 247 35 325 -14 q 126 169 169 83 q 83 368 83 256 q 122 582 83 481 q 228 762 160 683 q 387 885 296 840 q 583 931 478 931 q 766 882 689 931 q 886 747 843 833 q 929 549 929 661 q 893 341 929 442 q 790 160 857 240 q 631 33 722 81 q 429 -14 539 -14 m 467 33 q 609 72 543 33 q 725 177 675 110 q 803 335 775 244 q 831 532 831 426 q 794 717 831 638 q 695 842 758 797 q 550 886 632 886 q 403 848 471 886 q 286 742 336 810 q 209 583 236 674 q 182 388 182 493 q 218 203 182 283 q 319 78 254 124 q 467 33 383 33 z "},"Ȭ":{"ha":1013,"x_min":83,"x_max":929,"o":"m 429 -14 q 247 35 325 -14 q 126 169 169 83 q 83 368 83 256 q 122 582 83 481 q 228 762 160 683 q 387 885 296 840 q 583 931 478 931 q 766 882 689 931 q 886 747 843 833 q 929 549 929 661 q 893 341 929 442 q 790 160 857 240 q 631 33 722 81 q 429 -14 539 -14 m 467 33 q 609 72 543 33 q 725 177 675 110 q 803 335 775 244 q 831 532 831 426 q 794 717 831 638 q 695 842 758 797 q 550 886 632 886 q 403 848 471 886 q 286 742 336 810 q 209 583 236 674 q 182 388 182 493 q 218 203 182 283 q 319 78 254 124 q 467 33 383 33 z "},"Ȱ":{"ha":1013,"x_min":83,"x_max":929,"o":"m 429 -14 q 247 35 325 -14 q 126 169 169 83 q 83 368 83 256 q 122 582 83 481 q 228 762 160 683 q 387 885 296 840 q 583 931 478 931 q 766 882 689 931 q 886 747 843 833 q 929 549 929 661 q 893 341 929 442 q 790 160 857 240 q 631 33 722 81 q 429 -14 539 -14 m 467 33 q 609 72 543 33 q 725 177 675 110 q 803 335 775 244 q 831 532 831 426 q 794 717 831 638 q 695 842 758 797 q 550 886 632 886 q 403 848 471 886 q 286 742 336 810 q 209 583 236 674 q 182 388 182 493 q 218 203 182 283 q 319 78 254 124 q 467 33 383 33 z "},"Ố":{"ha":1013,"x_min":83,"x_max":943,"o":"m 429 -14 q 247 35 325 -14 q 126 169 169 83 q 83 368 83 256 q 122 582 83 481 q 228 762 160 683 q 387 885 296 840 q 583 931 478 931 q 766 882 689 931 q 886 747 843 833 q 929 549 929 661 q 893 341 929 442 q 790 160 857 240 q 631 33 722 81 q 429 -14 539 -14 m 467 33 q 609 72 543 33 q 725 177 675 110 q 803 335 775 244 q 831 532 831 426 q 794 717 831 638 q 695 842 758 797 q 550 886 632 886 q 403 848 471 886 q 286 742 336 810 q 209 583 236 674 q 182 388 182 493 q 218 203 182 283 q 319 78 254 124 q 467 33 383 33 m 761 1118 l 858 1317 l 943 1317 q 928 1279 939 1296 q 893 1240 917 1263 l 774 1118 l 761 1118 m 400 986 l 614 1197 l 644 1197 l 771 986 l 757 986 l 614 1113 l 414 986 l 400 986 z "},"Ộ":{"ha":1013,"x_min":83,"x_max":929,"o":"m 429 -14 q 247 35 325 -14 q 126 169 169 83 q 83 368 83 256 q 122 582 83 481 q 228 762 160 683 q 387 885 296 840 q 583 931 478 931 q 766 882 689 931 q 886 747 843 833 q 929 549 929 661 q 893 341 929 442 q 790 160 857 240 q 631 33 722 81 q 429 -14 539 -14 m 467 33 q 609 72 543 33 q 725 177 675 110 q 803 335 775 244 q 831 532 831 426 q 794 717 831 638 q 695 842 758 797 q 550 886 632 886 q 403 848 471 886 q 286 742 336 810 q 209 583 236 674 q 182 388 182 493 q 218 203 182 283 q 319 78 254 124 q 467 33 383 33 m 400 986 l 614 1197 l 644 1197 l 771 986 l 757 986 l 615 1113 l 414 986 l 400 986 z "},"Ồ":{"ha":1013,"x_min":83,"x_max":929,"o":"m 429 -14 q 247 35 325 -14 q 126 169 169 83 q 83 368 83 256 q 122 582 83 481 q 228 762 160 683 q 387 885 296 840 q 583 931 478 931 q 766 882 689 931 q 886 747 843 833 q 929 549 929 661 q 893 341 929 442 q 790 160 857 240 q 631 33 722 81 q 429 -14 539 -14 m 467 33 q 609 72 543 33 q 725 177 675 110 q 803 335 775 244 q 831 532 831 426 q 794 717 831 638 q 695 842 758 797 q 550 886 632 886 q 403 848 471 886 q 286 742 336 810 q 209 583 236 674 q 182 388 182 493 q 218 203 182 283 q 319 78 254 124 q 467 33 383 33 m 431 1118 l 307 1239 q 278 1317 268 1275 l 350 1317 l 443 1118 l 431 1118 m 400 986 l 614 1197 l 644 1197 l 771 986 l 757 986 l 614 1113 l 414 986 l 400 986 z "},"Ổ":{"ha":1013,"x_min":83,"x_max":929,"o":"m 429 -14 q 247 35 325 -14 q 126 169 169 83 q 83 368 83 256 q 122 582 83 481 q 228 762 160 683 q 387 885 296 840 q 583 931 478 931 q 766 882 689 931 q 886 747 843 833 q 929 549 929 661 q 893 341 929 442 q 790 160 857 240 q 631 33 722 81 q 429 -14 539 -14 m 467 33 q 609 72 543 33 q 725 177 675 110 q 803 335 775 244 q 831 532 831 426 q 794 717 831 638 q 695 842 758 797 q 550 886 632 886 q 403 848 471 886 q 286 742 336 810 q 209 583 236 674 q 182 388 182 493 q 218 203 182 283 q 319 78 254 124 q 467 33 383 33 z "},"Ỗ":{"ha":1013,"x_min":83,"x_max":929,"o":"m 429 -14 q 247 35 325 -14 q 126 169 169 83 q 83 368 83 256 q 122 582 83 481 q 228 762 160 683 q 387 885 296 840 q 583 931 478 931 q 766 882 689 931 q 886 747 843 833 q 929 549 929 661 q 893 341 929 442 q 790 160 857 240 q 631 33 722 81 q 429 -14 539 -14 m 467 33 q 609 72 543 33 q 725 177 675 110 q 803 335 775 244 q 831 532 831 426 q 794 717 831 638 q 695 842 758 797 q 550 886 632 886 q 403 848 471 886 q 286 742 336 810 q 209 583 236 674 q 182 388 182 493 q 218 203 182 283 q 319 78 254 124 q 467 33 383 33 z "},"Ỏ":{"ha":1013,"x_min":83,"x_max":929,"o":"m 429 -14 q 247 35 325 -14 q 126 169 169 83 q 83 368 83 256 q 122 582 83 481 q 228 762 160 683 q 387 885 296 840 q 583 931 478 931 q 766 882 689 931 q 886 747 843 833 q 929 549 929 661 q 893 341 929 442 q 790 160 857 240 q 631 33 722 81 q 429 -14 539 -14 m 467 33 q 609 72 543 33 q 725 177 675 110 q 803 335 775 244 q 831 532 831 426 q 794 717 831 638 q 695 842 758 797 q 550 886 632 886 q 403 848 471 886 q 286 742 336 810 q 209 583 236 674 q 182 388 182 493 q 218 203 182 283 q 319 78 254 124 q 467 33 383 33 m 536 975 l 529 983 l 529 985 q 622 1025 592 1003 q 653 1088 653 1047 q 631 1135 653 1115 q 553 1164 608 1156 l 572 1215 q 674 1177 644 1208 q 704 1110 704 1146 q 536 975 704 1010 z "},"Ṍ":{"ha":1013,"x_min":83,"x_max":929,"o":"m 429 -14 q 247 35 325 -14 q 126 169 169 83 q 83 368 83 256 q 122 582 83 481 q 228 762 160 683 q 387 885 296 840 q 583 931 478 931 q 766 882 689 931 q 886 747 843 833 q 929 549 929 661 q 893 341 929 442 q 790 160 857 240 q 631 33 722 81 q 429 -14 539 -14 m 467 33 q 609 72 543 33 q 725 177 675 110 q 803 335 775 244 q 831 532 831 426 q 794 717 831 638 q 695 842 758 797 q 550 886 632 886 q 403 848 471 886 q 286 742 336 810 q 209 583 236 674 q 182 388 182 493 q 218 203 182 283 q 319 78 254 124 q 467 33 383 33 z "},"Ṏ":{"ha":1013,"x_min":83,"x_max":929,"o":"m 429 -14 q 247 35 325 -14 q 126 169 169 83 q 83 368 83 256 q 122 582 83 481 q 228 762 160 683 q 387 885 296 840 q 583 931 478 931 q 766 882 689 931 q 886 747 843 833 q 929 549 929 661 q 893 341 929 442 q 790 160 857 240 q 631 33 722 81 q 429 -14 539 -14 m 467 33 q 609 72 543 33 q 725 177 675 110 q 803 335 775 244 q 831 532 831 426 q 794 717 831 638 q 695 842 758 797 q 550 886 632 886 q 403 848 471 886 q 286 742 336 810 q 209 583 236 674 q 182 388 182 493 q 218 203 182 283 q 319 78 254 124 q 467 33 383 33 z "},"Ṑ":{"ha":1013,"x_min":83,"x_max":929,"o":"m 429 -14 q 247 35 325 -14 q 126 169 169 83 q 83 368 83 256 q 122 582 83 481 q 228 762 160 683 q 387 885 296 840 q 583 931 478 931 q 766 882 689 931 q 886 747 843 833 q 929 549 929 661 q 893 341 929 442 q 790 160 857 240 q 631 33 722 81 q 429 -14 539 -14 m 467 33 q 609 72 543 33 q 725 177 675 110 q 803 335 775 244 q 831 532 831 426 q 794 717 831 638 q 695 842 758 797 q 550 886 632 886 q 403 848 471 886 q 286 742 336 810 q 209 583 236 674 q 182 388 182 493 q 218 203 182 283 q 319 78 254 124 q 467 33 383 33 z "},"Ṓ":{"ha":1013,"x_min":83,"x_max":929,"o":"m 429 -14 q 247 35 325 -14 q 126 169 169 83 q 83 368 83 256 q 122 582 83 481 q 228 762 160 683 q 387 885 296 840 q 583 931 478 931 q 766 882 689 931 q 886 747 843 833 q 929 549 929 661 q 893 341 929 442 q 790 160 857 240 q 631 33 722 81 q 429 -14 539 -14 m 467 33 q 609 72 543 33 q 725 177 675 110 q 803 335 775 244 q 831 532 831 426 q 794 717 831 638 q 695 842 758 797 q 550 886 632 886 q 403 848 471 886 q 286 742 336 810 q 209 583 236 674 q 182 388 182 493 q 218 203 182 283 q 319 78 254 124 q 467 33 383 33 z "},"Ø":{"ha":1013,"x_min":7,"x_max":1006,"o":"m 7 -14 l 149 131 q 83 368 83 229 q 122 582 83 481 q 228 762 160 683 q 387 885 296 840 q 583 931 478 931 q 723 904 660 931 q 831 829 786 878 l 931 931 l 1006 931 l 864 786 q 929 549 929 688 q 893 341 929 442 q 790 160 857 240 q 631 33 722 81 q 429 -14 539 -14 q 290 13 353 -14 q 182 88 226 39 l 82 -14 l 7 -14 m 182 388 q 218 203 182 283 l 768 765 q 675 854 731 822 q 550 886 619 886 q 403 848 471 886 q 286 742 336 810 q 209 583 236 674 q 182 388 182 493 m 467 33 q 609 72 543 33 q 725 177 675 110 q 803 335 775 244 q 831 532 831 426 q 796 715 831 635 l 246 153 q 340 65 283 97 q 467 33 397 33 z "},"Ǿ":{"ha":1013,"x_min":7,"x_max":1006,"o":"m 7 -14 l 149 131 q 83 368 83 229 q 122 582 83 481 q 228 762 160 683 q 387 885 296 840 q 583 931 478 931 q 723 904 660 931 q 831 829 786 878 l 931 931 l 1006 931 l 864 786 q 929 549 929 688 q 893 341 929 442 q 790 160 857 240 q 631 33 722 81 q 429 -14 539 -14 q 290 13 353 -14 q 182 88 226 39 l 82 -14 l 7 -14 m 182 388 q 218 203 182 283 l 768 765 q 675 854 731 822 q 550 886 619 886 q 403 848 471 886 q 286 742 336 810 q 209 583 236 674 q 182 388 182 493 m 467 33 q 609 72 543 33 q 725 177 675 110 q 803 335 775 244 q 831 532 831 426 q 796 715 831 635 l 246 153 q 340 65 283 97 q 467 33 397 33 m 588 986 l 738 1197 l 824 1197 q 809 1158 819 1176 q 772 1119 799 1139 l 601 986 l 588 986 z "},"Ơ":{"ha":1013,"x_min":83,"x_max":960,"o":"m 429 -14 q 247 35 325 -14 q 126 169 169 83 q 83 368 83 256 q 122 582 83 481 q 228 762 160 683 q 387 885 296 840 q 583 931 478 931 q 740 896 669 931 q 782 890 763 890 q 847 908 825 890 q 876 967 869 926 l 890 1040 l 896 1046 l 928 1046 q 952 1042 944 1046 q 960 1024 960 1039 q 938 949 960 985 q 881 891 917 914 q 797 868 844 868 q 786 868 792 868 q 892 737 854 819 q 929 549 929 654 q 893 341 929 442 q 790 160 857 240 q 631 33 722 81 q 429 -14 539 -14 m 467 33 q 609 72 543 33 q 725 177 675 110 q 803 335 775 244 q 831 532 831 426 q 794 717 831 638 q 695 842 758 797 q 550 886 632 886 q 403 848 471 886 q 286 742 336 810 q 209 583 236 674 q 182 388 182 493 q 218 203 182 283 q 319 78 254 124 q 467 33 383 33 z "},"Ớ":{"ha":1013,"x_min":83,"x_max":960,"o":"m 429 -14 q 247 35 325 -14 q 126 169 169 83 q 83 368 83 256 q 122 582 83 481 q 228 762 160 683 q 387 885 296 840 q 583 931 478 931 q 740 896 669 931 q 782 890 763 890 q 847 908 825 890 q 876 967 869 926 l 890 1040 l 896 1046 l 928 1046 q 952 1042 944 1046 q 960 1024 960 1039 q 938 949 960 985 q 881 891 917 914 q 797 868 844 868 q 786 868 792 868 q 892 737 854 819 q 929 549 929 654 q 893 341 929 442 q 790 160 857 240 q 631 33 722 81 q 429 -14 539 -14 m 467 33 q 609 72 543 33 q 725 177 675 110 q 803 335 775 244 q 831 532 831 426 q 794 717 831 638 q 695 842 758 797 q 550 886 632 886 q 403 848 471 886 q 286 742 336 810 q 209 583 236 674 q 182 388 182 493 q 218 203 182 283 q 319 78 254 124 q 467 33 383 33 m 588 986 l 738 1197 l 824 1197 q 809 1158 819 1176 q 772 1119 799 1139 l 601 986 l 588 986 z "},"Ợ":{"ha":1013,"x_min":83,"x_max":960,"o":"m 429 -14 q 247 35 325 -14 q 126 169 169 83 q 83 368 83 256 q 122 582 83 481 q 228 762 160 683 q 387 885 296 840 q 583 931 478 931 q 740 896 669 931 q 782 890 763 890 q 847 908 825 890 q 876 967 869 926 l 890 1040 l 896 1046 l 928 1046 q 952 1042 944 1046 q 960 1024 960 1039 q 938 949 960 985 q 881 891 917 914 q 797 868 844 868 q 786 868 792 868 q 892 737 854 819 q 929 549 929 654 q 893 341 929 442 q 790 160 857 240 q 631 33 722 81 q 429 -14 539 -14 m 467 33 q 609 72 543 33 q 725 177 675 110 q 803 335 775 244 q 831 532 831 426 q 794 717 831 638 q 695 842 758 797 q 550 886 632 886 q 403 848 471 886 q 286 742 336 810 q 209 583 236 674 q 182 388 182 493 q 218 203 182 283 q 319 78 254 124 q 467 33 383 33 z "},"Ờ":{"ha":1013,"x_min":83,"x_max":960,"o":"m 429 -14 q 247 35 325 -14 q 126 169 169 83 q 83 368 83 256 q 122 582 83 481 q 228 762 160 683 q 387 885 296 840 q 583 931 478 931 q 740 896 669 931 q 782 890 763 890 q 847 908 825 890 q 876 967 869 926 l 890 1040 l 896 1046 l 928 1046 q 952 1042 944 1046 q 960 1024 960 1039 q 938 949 960 985 q 881 891 917 914 q 797 868 844 868 q 786 868 792 868 q 892 737 854 819 q 929 549 929 654 q 893 341 929 442 q 790 160 857 240 q 631 33 722 81 q 429 -14 539 -14 m 467 33 q 609 72 543 33 q 725 177 675 110 q 803 335 775 244 q 831 532 831 426 q 794 717 831 638 q 695 842 758 797 q 550 886 632 886 q 403 848 471 886 q 286 742 336 810 q 209 583 236 674 q 182 388 182 493 q 218 203 182 283 q 319 78 254 124 q 467 33 383 33 m 586 986 l 417 1122 q 394 1158 396 1138 q 396 1197 392 1178 l 469 1197 l 600 986 l 586 986 z "},"Ở":{"ha":1013,"x_min":83,"x_max":960,"o":"m 429 -14 q 247 35 325 -14 q 126 169 169 83 q 83 368 83 256 q 122 582 83 481 q 228 762 160 683 q 387 885 296 840 q 583 931 478 931 q 740 896 669 931 q 782 890 763 890 q 847 908 825 890 q 876 967 869 926 l 890 1040 l 896 1046 l 928 1046 q 952 1042 944 1046 q 960 1024 960 1039 q 938 949 960 985 q 881 891 917 914 q 797 868 844 868 q 786 868 792 868 q 892 737 854 819 q 929 549 929 654 q 893 341 929 442 q 790 160 857 240 q 631 33 722 81 q 429 -14 539 -14 m 467 33 q 609 72 543 33 q 725 177 675 110 q 803 335 775 244 q 831 532 831 426 q 794 717 831 638 q 695 842 758 797 q 550 886 632 886 q 403 848 471 886 q 286 742 336 810 q 209 583 236 674 q 182 388 182 493 q 218 203 182 283 q 319 78 254 124 q 467 33 383 33 m 536 975 l 529 983 l 529 985 q 622 1025 592 1003 q 653 1088 653 1047 q 631 1135 653 1115 q 553 1164 608 1156 l 572 1215 q 674 1177 644 1208 q 704 1110 704 1146 q 536 975 704 1010 z "},"Ỡ":{"ha":1013,"x_min":83,"x_max":960,"o":"m 429 -14 q 247 35 325 -14 q 126 169 169 83 q 83 368 83 256 q 122 582 83 481 q 228 762 160 683 q 387 885 296 840 q 583 931 478 931 q 740 896 669 931 q 782 890 763 890 q 847 908 825 890 q 876 967 869 926 l 890 1040 l 896 1046 l 928 1046 q 952 1042 944 1046 q 960 1024 960 1039 q 938 949 960 985 q 881 891 917 914 q 797 868 844 868 q 786 868 792 868 q 892 737 854 819 q 929 549 929 654 q 893 341 929 442 q 790 160 857 240 q 631 33 722 81 q 429 -14 539 -14 m 467 33 q 609 72 543 33 q 725 177 675 110 q 803 335 775 244 q 831 532 831 426 q 794 717 831 638 q 695 842 758 797 q 550 886 632 886 q 403 848 471 886 q 286 742 336 810 q 209 583 236 674 q 182 388 182 493 q 218 203 182 283 q 319 78 254 124 q 467 33 383 33 m 406 1010 q 458 1111 436 1078 q 501 1156 481 1144 q 543 1168 521 1168 q 590 1153 569 1168 q 629 1117 611 1138 q 665 1082 647 1097 q 703 1067 682 1067 q 747 1088 726 1067 q 800 1168 768 1110 l 818 1168 q 767 1067 789 1100 q 724 1022 744 1033 q 681 1010 704 1010 q 635 1025 656 1010 q 596 1060 614 1040 q 560 1096 578 1081 q 522 1111 543 1111 q 476 1090 497 1111 q 424 1010 454 1068 l 406 1010 z "},"Œ":{"ha":1268,"x_min":83,"x_max":1229,"o":"m 531 0 q 193 103 303 0 q 83 394 83 206 q 120 599 83 504 q 226 765 157 693 q 396 876 296 836 q 622 917 496 917 l 1229 917 l 1189 685 l 1167 685 l 1133 863 l 821 863 l 757 501 l 982 501 l 1049 617 l 1074 617 l 1022 332 l 999 332 l 974 446 l 747 446 l 679 54 l 1044 54 l 1142 246 l 1164 246 l 1121 0 l 531 0 m 528 54 l 583 54 l 725 863 l 615 863 q 383 805 479 863 q 235 642 286 747 q 183 393 183 536 q 270 140 183 226 q 528 54 357 54 z "},"Ŕ":{"ha":818,"x_min":13,"x_max":763,"o":"m 13 0 l 17 21 l 125 60 l 265 858 l 169 896 l 174 917 l 432 917 q 638 863 564 917 q 711 715 711 808 q 657 556 711 626 q 496 456 603 486 l 686 54 l 763 21 l 758 0 l 601 0 l 407 435 l 288 435 l 221 60 l 311 21 l 307 0 l 13 0 m 429 863 l 363 863 l 297 489 l 396 489 q 515 519 467 489 q 587 597 563 549 q 611 697 611 644 q 565 818 611 774 q 429 863 519 863 m 453 986 l 603 1197 l 689 1197 q 674 1158 685 1176 q 638 1119 664 1139 l 467 986 l 453 986 z "},"Ř":{"ha":818,"x_min":13,"x_max":763,"o":"m 13 0 l 17 21 l 125 60 l 265 858 l 169 896 l 174 917 l 432 917 q 638 863 564 917 q 711 715 711 808 q 657 556 711 626 q 496 456 603 486 l 686 54 l 763 21 l 758 0 l 601 0 l 407 435 l 288 435 l 221 60 l 311 21 l 307 0 l 13 0 m 429 863 l 363 863 l 297 489 l 396 489 q 515 519 467 489 q 587 597 563 549 q 611 697 611 644 q 565 818 611 774 q 429 863 519 863 m 444 986 l 315 1197 l 329 1197 l 472 1071 l 672 1197 l 686 1197 l 475 986 l 444 986 z "},"Ŗ":{"ha":818,"x_min":13,"x_max":763,"o":"m 13 0 l 17 21 l 125 60 l 265 858 l 169 896 l 174 917 l 432 917 q 638 863 564 917 q 711 715 711 808 q 657 556 711 626 q 496 456 603 486 l 686 54 l 763 21 l 758 0 l 601 0 l 407 435 l 288 435 l 221 60 l 311 21 l 307 0 l 13 0 m 429 863 l 363 863 l 297 489 l 396 489 q 515 519 467 489 q 587 597 563 549 q 611 697 611 644 q 565 818 611 774 q 429 863 519 863 m 290 -332 q 267 -331 281 -332 q 243 -328 253 -331 l 247 -314 q 266 -316 257 -315 q 285 -317 275 -317 q 359 -297 329 -317 q 389 -239 389 -278 q 358 -187 389 -203 q 264 -172 328 -172 l 271 -143 q 283 -124 274 -131 q 314 -118 292 -118 q 415 -147 379 -119 q 450 -219 450 -174 q 405 -303 450 -274 q 290 -332 360 -332 z "},"Ȑ":{"ha":818,"x_min":13,"x_max":763,"o":"m 13 0 l 17 21 l 125 60 l 265 858 l 169 896 l 174 917 l 432 917 q 638 863 564 917 q 711 715 711 808 q 657 556 711 626 q 496 456 603 486 l 686 54 l 763 21 l 758 0 l 601 0 l 407 435 l 288 435 l 221 60 l 311 21 l 307 0 l 13 0 m 429 863 l 363 863 l 297 489 l 396 489 q 515 519 467 489 q 587 597 563 549 q 611 697 611 644 q 565 818 611 774 q 429 863 519 863 m 519 986 l 392 1114 q 365 1157 369 1138 q 363 1197 360 1176 l 426 1197 l 533 986 l 519 986 m 374 986 l 233 1114 q 204 1157 208 1136 q 203 1197 200 1178 l 267 1197 l 388 986 l 374 986 z "},"Ȓ":{"ha":818,"x_min":13,"x_max":763,"o":"m 13 0 l 17 21 l 125 60 l 265 858 l 169 896 l 174 917 l 432 917 q 638 863 564 917 q 711 715 711 808 q 657 556 711 626 q 496 456 603 486 l 686 54 l 763 21 l 758 0 l 601 0 l 407 435 l 288 435 l 221 60 l 311 21 l 307 0 l 13 0 m 429 863 l 363 863 l 297 489 l 396 489 q 515 519 467 489 q 587 597 563 549 q 611 697 611 644 q 565 818 611 774 q 429 863 519 863 m 274 988 q 362 1147 310 1094 q 492 1199 414 1199 q 608 1147 575 1199 q 644 988 642 1094 l 631 988 q 601 1082 619 1050 q 553 1125 582 1114 q 485 1136 525 1136 q 413 1125 446 1136 q 349 1082 379 1114 q 288 988 318 1050 l 274 988 z "},"Ṛ":{"ha":818,"x_min":13,"x_max":763,"o":"m 13 0 l 17 21 l 125 60 l 265 858 l 169 896 l 174 917 l 432 917 q 638 863 564 917 q 711 715 711 808 q 657 556 711 626 q 496 456 603 486 l 686 54 l 763 21 l 758 0 l 601 0 l 407 435 l 288 435 l 221 60 l 311 21 l 307 0 l 13 0 m 429 863 l 363 863 l 297 489 l 396 489 q 515 519 467 489 q 587 597 563 549 q 611 697 611 644 q 565 818 611 774 q 429 863 519 863 z "},"Ṟ":{"ha":818,"x_min":13,"x_max":763,"o":"m 13 0 l 17 21 l 125 60 l 265 858 l 169 896 l 174 917 l 432 917 q 638 863 564 917 q 711 715 711 808 q 657 556 711 626 q 496 456 603 486 l 686 54 l 763 21 l 758 0 l 601 0 l 407 435 l 288 435 l 221 60 l 311 21 l 307 0 l 13 0 m 429 863 l 363 863 l 297 489 l 396 489 q 515 519 467 489 q 587 597 563 549 q 611 697 611 644 q 565 818 611 774 q 429 863 519 863 z "},"ẞ":{"ha":1369,"x_min":22,"x_max":1313,"o":"m 257 -14 q 128 3 181 -14 q 22 50 75 19 l 49 263 l 71 263 l 113 99 q 187 51 143 67 q 275 35 231 35 q 426 92 372 35 q 479 243 479 150 q 459 322 479 289 q 399 385 439 356 q 300 451 360 414 q 183 549 219 501 q 147 665 147 597 q 186 797 147 736 q 289 894 225 857 q 425 931 353 931 q 533 915 483 931 q 628 872 582 900 l 603 665 l 581 665 l 544 822 q 490 863 525 844 q 408 881 456 881 q 280 832 331 881 q 229 701 229 783 q 261 603 229 646 q 381 508 293 561 q 488 435 446 469 q 549 360 529 400 q 568 264 568 319 q 527 128 568 192 q 415 25 486 64 q 257 -14 344 -14 m 942 -14 q 813 3 865 -14 q 707 50 760 19 l 733 263 l 756 263 l 797 99 q 872 51 828 67 q 960 35 915 35 q 1110 92 1057 35 q 1164 243 1164 150 q 1144 322 1164 289 q 1084 385 1124 356 q 985 451 1044 414 q 868 549 904 501 q 832 665 832 597 q 871 797 832 736 q 974 894 910 857 q 1110 931 1038 931 q 1217 915 1168 931 q 1313 872 1267 900 l 1288 665 l 1265 665 l 1229 822 q 1175 863 1210 844 q 1093 881 1140 881 q 965 832 1015 881 q 914 701 914 783 q 946 603 914 646 q 1065 508 978 561 q 1172 435 1131 469 q 1233 360 1214 400 q 1253 264 1253 319 q 1212 128 1253 192 q 1100 25 1171 64 q 942 -14 1029 -14 z "},"Ś":{"ha":685,"x_min":22,"x_max":682,"o":"m 257 -14 q 128 3 181 -14 q 22 50 75 19 l 49 263 l 71 263 l 113 99 q 187 51 143 67 q 275 35 231 35 q 426 92 372 35 q 479 243 479 150 q 459 322 479 289 q 399 385 439 356 q 300 451 360 414 q 183 549 219 501 q 147 665 147 597 q 186 797 147 736 q 289 894 225 857 q 425 931 353 931 q 533 915 483 931 q 628 872 582 900 l 603 665 l 581 665 l 544 822 q 490 863 525 844 q 408 881 456 881 q 280 832 331 881 q 229 701 229 783 q 261 603 229 646 q 381 508 293 561 q 488 435 446 469 q 549 360 529 400 q 568 264 568 319 q 527 128 568 192 q 415 25 486 64 q 257 -14 344 -14 m 446 983 l 596 1194 l 682 1194 q 667 1155 678 1174 q 631 1117 657 1136 l 460 983 l 446 983 z "},"Ŝ":{"ha":685,"x_min":22,"x_max":631,"o":"m 257 -14 q 128 3 181 -14 q 22 50 75 19 l 49 263 l 71 263 l 113 99 q 187 51 143 67 q 275 35 231 35 q 426 92 372 35 q 479 243 479 150 q 459 322 479 289 q 399 385 439 356 q 300 451 360 414 q 183 549 219 501 q 147 665 147 597 q 186 797 147 736 q 289 894 225 857 q 425 931 353 931 q 533 915 483 931 q 628 872 582 900 l 603 665 l 581 665 l 544 822 q 490 863 525 844 q 408 881 456 881 q 280 832 331 881 q 229 701 229 783 q 261 603 229 646 q 381 508 293 561 q 488 435 446 469 q 549 360 529 400 q 568 264 568 319 q 527 128 568 192 q 415 25 486 64 q 257 -14 344 -14 m 260 983 l 474 1194 l 504 1194 l 631 983 l 617 983 l 475 1110 l 274 983 l 260 983 z "},"Š":{"ha":685,"x_min":22,"x_max":679,"o":"m 257 -14 q 128 3 181 -14 q 22 50 75 19 l 49 263 l 71 263 l 113 99 q 187 51 143 67 q 275 35 231 35 q 426 92 372 35 q 479 243 479 150 q 459 322 479 289 q 399 385 439 356 q 300 451 360 414 q 183 549 219 501 q 147 665 147 597 q 186 797 147 736 q 289 894 225 857 q 425 931 353 931 q 533 915 483 931 q 628 872 582 900 l 603 665 l 581 665 l 544 822 q 490 863 525 844 q 408 881 456 881 q 280 832 331 881 q 229 701 229 783 q 261 603 229 646 q 381 508 293 561 q 488 435 446 469 q 549 360 529 400 q 568 264 568 319 q 527 128 568 192 q 415 25 486 64 q 257 -14 344 -14 m 438 983 l 308 1194 l 322 1194 l 465 1068 l 665 1194 l 679 1194 l 468 983 l 438 983 z "},"Ş":{"ha":685,"x_min":22,"x_max":628,"o":"m 218 -333 q 161 -324 189 -333 q 119 -299 133 -315 l 122 -285 l 126 -285 q 210 -306 167 -306 q 279 -286 253 -306 q 306 -231 306 -267 q 276 -171 306 -192 q 172 -132 246 -150 l 247 -14 q 124 3 175 -12 q 22 50 74 19 l 49 263 l 71 263 l 113 99 q 183 53 139 72 q 275 35 226 35 q 428 95 376 35 q 479 243 479 156 q 457 328 479 294 q 394 389 435 361 q 300 451 354 417 q 184 547 221 500 q 147 665 147 594 q 172 769 147 721 q 236 853 196 817 q 326 910 276 889 q 425 931 375 931 q 533 915 483 931 q 628 872 582 900 l 603 665 l 581 665 l 544 822 q 490 863 525 844 q 408 881 456 881 q 280 832 331 881 q 229 701 229 783 q 262 601 229 643 q 381 508 294 560 q 484 438 442 472 q 547 363 526 403 q 568 264 568 322 q 528 128 568 189 q 424 31 489 68 q 282 -12 358 -7 l 235 -87 q 331 -135 299 -106 q 363 -214 363 -164 q 322 -300 363 -267 q 218 -333 282 -333 z "},"Ș":{"ha":685,"x_min":22,"x_max":628,"o":"m 257 -14 q 128 3 181 -14 q 22 50 75 19 l 49 263 l 71 263 l 113 99 q 187 51 143 67 q 275 35 231 35 q 426 92 372 35 q 479 243 479 150 q 459 322 479 289 q 399 385 439 356 q 300 451 360 414 q 183 549 219 501 q 147 665 147 597 q 186 797 147 736 q 289 894 225 857 q 425 931 353 931 q 533 915 483 931 q 628 872 582 900 l 603 665 l 581 665 l 544 822 q 490 863 525 844 q 408 881 456 881 q 280 832 331 881 q 229 701 229 783 q 261 603 229 646 q 381 508 293 561 q 488 435 446 469 q 549 360 529 400 q 568 264 568 319 q 527 128 568 192 q 415 25 486 64 q 257 -14 344 -14 z "},"Ṡ":{"ha":685,"x_min":22,"x_max":628,"o":"m 257 -14 q 128 3 181 -14 q 22 50 75 19 l 49 263 l 71 263 l 113 99 q 187 51 143 67 q 275 35 231 35 q 426 92 372 35 q 479 243 479 150 q 459 322 479 289 q 399 385 439 356 q 300 451 360 414 q 183 549 219 501 q 147 665 147 597 q 186 797 147 736 q 289 894 225 857 q 425 931 353 931 q 533 915 483 931 q 628 872 582 900 l 603 665 l 581 665 l 544 822 q 490 863 525 844 q 408 881 456 881 q 280 832 331 881 q 229 701 229 783 q 261 603 229 646 q 381 508 293 561 q 488 435 446 469 q 549 360 529 400 q 568 264 568 319 q 527 128 568 192 q 415 25 486 64 q 257 -14 344 -14 m 471 1025 q 425 1043 443 1025 q 407 1089 407 1061 q 425 1135 407 1117 q 471 1153 443 1153 q 517 1135 499 1153 q 535 1089 535 1117 q 517 1043 535 1061 q 471 1025 499 1025 z "},"Ṣ":{"ha":685,"x_min":22,"x_max":628,"o":"m 257 -14 q 128 3 181 -14 q 22 50 75 19 l 49 263 l 71 263 l 113 99 q 187 51 143 67 q 275 35 231 35 q 426 92 372 35 q 479 243 479 150 q 459 322 479 289 q 399 385 439 356 q 300 451 360 414 q 183 549 219 501 q 147 665 147 597 q 186 797 147 736 q 289 894 225 857 q 425 931 353 931 q 533 915 483 931 q 628 872 582 900 l 603 665 l 581 665 l 544 822 q 490 863 525 844 q 408 881 456 881 q 280 832 331 881 q 229 701 229 783 q 261 603 229 646 q 381 508 293 561 q 488 435 446 469 q 549 360 529 400 q 568 264 568 319 q 527 128 568 192 q 415 25 486 64 q 257 -14 344 -14 z "},"Ṥ":{"ha":685,"x_min":22,"x_max":682,"o":"m 257 -14 q 128 3 181 -14 q 22 50 75 19 l 49 263 l 71 263 l 113 99 q 187 51 143 67 q 275 35 231 35 q 426 92 372 35 q 479 243 479 150 q 459 322 479 289 q 399 385 439 356 q 300 451 360 414 q 183 549 219 501 q 147 665 147 597 q 186 797 147 736 q 289 894 225 857 q 425 931 353 931 q 533 915 483 931 q 628 872 582 900 l 603 665 l 581 665 l 544 822 q 490 863 525 844 q 408 881 456 881 q 280 832 331 881 q 229 701 229 783 q 261 603 229 646 q 381 508 293 561 q 488 435 446 469 q 549 360 529 400 q 568 264 568 319 q 527 128 568 192 q 415 25 486 64 q 257 -14 344 -14 z "},"Ṧ":{"ha":685,"x_min":22,"x_max":679,"o":"m 257 -14 q 128 3 181 -14 q 22 50 75 19 l 49 263 l 71 263 l 113 99 q 187 51 143 67 q 275 35 231 35 q 426 92 372 35 q 479 243 479 150 q 459 322 479 289 q 399 385 439 356 q 300 451 360 414 q 183 549 219 501 q 147 665 147 597 q 186 797 147 736 q 289 894 225 857 q 425 931 353 931 q 533 915 483 931 q 628 872 582 900 l 603 665 l 581 665 l 544 822 q 490 863 525 844 q 408 881 456 881 q 280 832 331 881 q 229 701 229 783 q 261 603 229 646 q 381 508 293 561 q 488 435 446 469 q 549 360 529 400 q 568 264 568 319 q 527 128 568 192 q 415 25 486 64 q 257 -14 344 -14 z "},"Ṩ":{"ha":685,"x_min":22,"x_max":628,"o":"m 257 -14 q 128 3 181 -14 q 22 50 75 19 l 49 263 l 71 263 l 113 99 q 187 51 143 67 q 275 35 231 35 q 426 92 372 35 q 479 243 479 150 q 459 322 479 289 q 399 385 439 356 q 300 451 360 414 q 183 549 219 501 q 147 665 147 597 q 186 797 147 736 q 289 894 225 857 q 425 931 353 931 q 533 915 483 931 q 628 872 582 900 l 603 665 l 581 665 l 544 822 q 490 863 525 844 q 408 881 456 881 q 280 832 331 881 q 229 701 229 783 q 261 603 229 646 q 381 508 293 561 q 488 435 446 469 q 549 360 529 400 q 568 264 568 319 q 527 128 568 192 q 415 25 486 64 q 257 -14 344 -14 m 471 1025 q 425 1043 443 1025 q 407 1089 407 1061 q 425 1135 407 1117 q 471 1153 443 1153 q 517 1135 499 1153 q 535 1089 535 1117 q 517 1043 535 1061 q 471 1025 499 1025 z "},"Ť":{"ha":893,"x_min":104,"x_max":921,"o":"m 190 0 l 196 21 l 336 63 l 479 863 l 232 863 l 125 656 l 104 656 l 150 917 l 921 917 l 875 656 l 853 656 l 821 863 l 575 863 l 432 63 l 561 21 l 557 0 l 190 0 m 533 986 l 404 1197 l 418 1197 l 561 1071 l 761 1197 l 775 1197 l 564 986 l 533 986 z "},"Ț":{"ha":893,"x_min":104,"x_max":921,"o":"m 190 0 l 196 21 l 336 63 l 479 863 l 232 863 l 125 656 l 104 656 l 150 917 l 921 917 l 875 656 l 853 656 l 821 863 l 575 863 l 432 63 l 561 21 l 557 0 l 190 0 z "},"Ŧ":{"ha":893,"x_min":104,"x_max":921,"o":"m 244 453 l 254 501 l 415 501 l 479 863 l 232 863 l 125 656 l 104 656 l 150 917 l 921 917 l 875 656 l 853 656 l 821 863 l 575 863 l 511 501 l 672 501 l 663 453 l 501 453 l 432 63 l 561 21 l 557 0 l 190 0 l 196 21 l 336 63 l 406 453 l 244 453 z "},"Ţ":{"ha":893,"x_min":104,"x_max":921,"o":"m 190 0 l 196 21 l 336 63 l 479 863 l 232 863 l 125 656 l 104 656 l 150 917 l 921 917 l 875 656 l 853 656 l 821 863 l 575 863 l 432 63 l 561 21 l 557 0 l 390 0 l 335 -87 q 431 -135 400 -106 q 463 -214 463 -164 q 423 -300 463 -267 q 319 -333 383 -333 q 263 -324 289 -333 q 221 -299 236 -315 l 224 -285 l 228 -285 q 311 -306 265 -306 q 381 -286 356 -306 q 406 -231 406 -267 q 376 -171 406 -192 q 274 -132 347 -150 l 357 0 l 190 0 z "},"Ṭ":{"ha":893,"x_min":104,"x_max":921,"o":"m 190 0 l 196 21 l 336 63 l 479 863 l 232 863 l 125 656 l 104 656 l 150 917 l 921 917 l 875 656 l 853 656 l 821 863 l 575 863 l 432 63 l 561 21 l 557 0 l 190 0 z "},"Ṯ":{"ha":893,"x_min":104,"x_max":921,"o":"m 190 0 l 196 21 l 336 63 l 479 863 l 232 863 l 125 656 l 104 656 l 150 917 l 921 917 l 875 656 l 853 656 l 821 863 l 575 863 l 432 63 l 561 21 l 557 0 l 190 0 z "},"Ù":{"ha":1049,"x_min":174,"x_max":1044,"o":"m 464 -14 q 255 51 336 -14 q 174 257 174 115 q 176 304 174 281 q 183 356 179 328 l 272 858 l 174 896 l 178 917 l 486 917 l 481 896 l 368 858 l 283 376 q 275 322 278 349 q 272 271 272 294 q 335 99 272 150 q 499 47 397 47 q 612 76 556 47 q 712 168 668 106 q 772 328 756 231 l 867 858 l 746 896 l 750 917 l 1044 917 l 1040 896 l 933 858 l 844 356 q 767 141 821 222 q 635 23 713 60 q 464 -14 558 -14 m 626 986 l 457 1122 q 434 1158 436 1138 q 436 1197 432 1178 l 510 1197 l 640 986 l 626 986 z "},"Ú":{"ha":1049,"x_min":174,"x_max":1044,"o":"m 464 -14 q 255 51 336 -14 q 174 257 174 115 q 176 304 174 281 q 183 356 179 328 l 272 858 l 174 896 l 178 917 l 486 917 l 481 896 l 368 858 l 283 376 q 275 322 278 349 q 272 271 272 294 q 335 99 272 150 q 499 47 397 47 q 612 76 556 47 q 712 168 668 106 q 772 328 756 231 l 867 858 l 746 896 l 750 917 l 1044 917 l 1040 896 l 933 858 l 844 356 q 767 141 821 222 q 635 23 713 60 q 464 -14 558 -14 m 628 986 l 778 1197 l 864 1197 q 849 1158 860 1176 q 813 1119 839 1139 l 642 986 l 628 986 z "},"Û":{"ha":1049,"x_min":174,"x_max":1044,"o":"m 464 -14 q 255 51 336 -14 q 174 257 174 115 q 176 304 174 281 q 183 356 179 328 l 272 858 l 174 896 l 178 917 l 486 917 l 481 896 l 368 858 l 283 376 q 275 322 278 349 q 272 271 272 294 q 335 99 272 150 q 499 47 397 47 q 612 76 556 47 q 712 168 668 106 q 772 328 756 231 l 867 858 l 746 896 l 750 917 l 1044 917 l 1040 896 l 933 858 l 844 356 q 767 141 821 222 q 635 23 713 60 q 464 -14 558 -14 m 440 986 l 654 1197 l 685 1197 l 811 986 l 797 986 l 656 1113 l 454 986 l 440 986 z "},"Ũ":{"ha":1049,"x_min":174,"x_max":1044,"o":"m 464 -14 q 255 51 336 -14 q 174 257 174 115 q 176 304 174 281 q 183 356 179 328 l 272 858 l 174 896 l 178 917 l 486 917 l 481 896 l 368 858 l 283 376 q 275 322 278 349 q 272 271 272 294 q 335 99 272 150 q 499 47 397 47 q 612 76 556 47 q 712 168 668 106 q 772 328 756 231 l 867 858 l 746 896 l 750 917 l 1044 917 l 1040 896 l 933 858 l 844 356 q 767 141 821 222 q 635 23 713 60 q 464 -14 558 -14 m 446 1010 q 499 1111 476 1078 q 541 1156 521 1144 q 583 1168 561 1168 q 631 1153 610 1168 q 669 1117 651 1138 q 705 1082 688 1097 q 743 1067 722 1067 q 788 1088 767 1067 q 840 1168 808 1110 l 858 1168 q 807 1067 829 1100 q 765 1022 785 1033 q 721 1010 744 1010 q 675 1025 696 1010 q 636 1060 654 1040 q 601 1096 618 1081 q 563 1111 583 1111 q 516 1090 538 1111 q 464 1010 494 1068 l 446 1010 z "},"Ü":{"ha":1049,"x_min":174,"x_max":1044,"o":"m 464 -14 q 255 51 336 -14 q 174 257 174 115 q 176 304 174 281 q 183 356 179 328 l 272 858 l 174 896 l 178 917 l 486 917 l 481 896 l 368 858 l 283 376 q 275 322 278 349 q 272 271 272 294 q 335 99 272 150 q 499 47 397 47 q 612 76 556 47 q 712 168 668 106 q 772 328 756 231 l 867 858 l 746 896 l 750 917 l 1044 917 l 1040 896 l 933 858 l 844 356 q 767 141 821 222 q 635 23 713 60 q 464 -14 558 -14 m 529 1035 q 490 1051 506 1035 q 474 1092 474 1068 q 490 1132 474 1115 q 529 1149 506 1149 q 569 1132 553 1149 q 586 1092 586 1115 q 569 1051 586 1068 q 529 1035 553 1035 m 776 1035 q 736 1051 753 1035 q 719 1092 719 1068 q 736 1132 719 1115 q 776 1149 753 1149 q 816 1132 800 1149 q 832 1092 832 1115 q 816 1051 832 1068 q 776 1035 800 1035 z "},"Ū":{"ha":1049,"x_min":174,"x_max":1044,"o":"m 464 -14 q 255 51 336 -14 q 174 257 174 115 q 176 304 174 281 q 183 356 179 328 l 272 858 l 174 896 l 178 917 l 486 917 l 481 896 l 368 858 l 283 376 q 275 322 278 349 q 272 271 272 294 q 335 99 272 150 q 499 47 397 47 q 612 76 556 47 q 712 168 668 106 q 772 328 756 231 l 867 858 l 746 896 l 750 917 l 1044 917 l 1040 896 l 933 858 l 844 356 q 767 141 821 222 q 635 23 713 60 q 464 -14 558 -14 m 475 1069 l 485 1119 l 826 1119 l 817 1069 l 475 1069 z "},"Ŭ":{"ha":1049,"x_min":174,"x_max":1044,"o":"m 464 -14 q 255 51 336 -14 q 174 257 174 115 q 176 304 174 281 q 183 356 179 328 l 272 858 l 174 896 l 178 917 l 486 917 l 481 896 l 368 858 l 283 376 q 275 322 278 349 q 272 271 272 294 q 335 99 272 150 q 499 47 397 47 q 612 76 556 47 q 712 168 668 106 q 772 328 756 231 l 867 858 l 746 896 l 750 917 l 1044 917 l 1040 896 l 933 858 l 844 356 q 767 141 821 222 q 635 23 713 60 q 464 -14 558 -14 m 633 986 q 517 1038 550 986 q 481 1197 485 1090 l 494 1197 q 524 1101 506 1133 q 572 1058 543 1069 q 640 1047 600 1047 q 713 1058 681 1047 q 776 1101 746 1069 q 838 1197 807 1133 l 851 1197 q 764 1038 817 1089 q 633 986 711 986 z "},"Ů":{"ha":1049,"x_min":174,"x_max":1044,"o":"m 464 -14 q 255 51 336 -14 q 174 257 174 115 q 176 304 174 281 q 183 356 179 328 l 272 858 l 174 896 l 178 917 l 486 917 l 481 896 l 368 858 l 283 376 q 275 322 278 349 q 272 271 272 294 q 335 99 272 150 q 499 47 397 47 q 612 76 556 47 q 712 168 668 106 q 772 328 756 231 l 867 858 l 746 896 l 750 917 l 1044 917 l 1040 896 l 933 858 l 844 356 q 767 141 821 222 q 635 23 713 60 q 464 -14 558 -14 m 635 986 q 565 1012 588 986 q 543 1078 543 1038 q 579 1171 543 1131 q 672 1211 615 1211 q 740 1185 717 1211 q 764 1118 764 1158 q 728 1026 764 1067 q 635 986 693 986 m 642 1013 q 694 1043 675 1013 q 713 1117 713 1074 q 703 1165 713 1146 q 665 1185 693 1185 q 613 1156 633 1185 q 593 1079 593 1128 q 603 1031 593 1050 q 642 1013 614 1013 z "},"Ű":{"ha":1049,"x_min":174,"x_max":1044,"o":"m 464 -14 q 255 51 336 -14 q 174 257 174 115 q 176 304 174 281 q 183 356 179 328 l 272 858 l 174 896 l 178 917 l 486 917 l 481 896 l 368 858 l 283 376 q 275 322 278 349 q 272 271 272 294 q 335 99 272 150 q 499 47 397 47 q 612 76 556 47 q 712 168 668 106 q 772 328 756 231 l 867 858 l 746 896 l 750 917 l 1044 917 l 1040 896 l 933 858 l 844 356 q 767 141 821 222 q 635 23 713 60 q 464 -14 558 -14 m 550 986 l 663 1197 l 726 1197 q 724 1155 729 1176 q 694 1110 719 1133 l 564 986 l 550 986 m 700 986 l 824 1197 l 888 1197 q 886 1154 890 1176 q 857 1110 882 1132 l 713 986 l 700 986 z "},"Ų":{"ha":1049,"x_min":174,"x_max":1044,"o":"m 538 -282 q 490 -319 519 -306 q 425 -333 461 -333 q 343 -305 374 -333 q 313 -226 313 -276 q 351 -121 313 -174 q 449 -14 389 -68 q 250 55 326 -10 q 174 257 174 119 q 176 304 174 281 q 183 356 179 328 l 272 858 l 174 896 l 176 917 l 485 917 l 481 896 l 368 858 l 283 376 q 276 323 278 349 q 274 274 274 297 q 303 141 274 190 q 383 69 332 92 q 499 47 433 47 q 608 76 551 47 q 710 166 665 104 q 772 328 756 228 l 867 858 l 746 896 l 750 917 l 1044 917 l 1040 896 l 933 858 l 844 356 q 770 145 822 225 q 644 28 718 65 q 483 -14 571 -10 q 406 -115 432 -68 q 379 -210 379 -161 q 463 -287 379 -287 q 499 -282 479 -287 q 536 -265 518 -276 l 540 -265 l 538 -282 z "},"Ụ":{"ha":1049,"x_min":174,"x_max":1044,"o":"m 464 -14 q 255 51 336 -14 q 174 257 174 115 q 176 304 174 281 q 183 356 179 328 l 272 858 l 174 896 l 178 917 l 486 917 l 481 896 l 368 858 l 283 376 q 275 322 278 349 q 272 271 272 294 q 335 99 272 150 q 499 47 397 47 q 612 76 556 47 q 712 168 668 106 q 772 328 756 231 l 867 858 l 746 896 l 750 917 l 1044 917 l 1040 896 l 933 858 l 844 356 q 767 141 821 222 q 635 23 713 60 q 464 -14 558 -14 z "},"Ȕ":{"ha":1049,"x_min":174,"x_max":1044,"o":"m 464 -14 q 255 51 336 -14 q 174 257 174 115 q 176 304 174 281 q 183 356 179 328 l 272 858 l 174 896 l 178 917 l 486 917 l 481 896 l 368 858 l 283 376 q 275 322 278 349 q 272 271 272 294 q 335 99 272 150 q 499 47 397 47 q 612 76 556 47 q 712 168 668 106 q 772 328 756 231 l 867 858 l 746 896 l 750 917 l 1044 917 l 1040 896 l 933 858 l 844 356 q 767 141 821 222 q 635 23 713 60 q 464 -14 558 -14 m 696 986 l 568 1114 q 541 1157 546 1138 q 539 1197 536 1176 l 603 1197 l 710 986 l 696 986 m 550 986 l 410 1114 q 381 1157 385 1136 q 379 1197 376 1178 l 443 1197 l 564 986 l 550 986 z "},"Ȗ":{"ha":1049,"x_min":174,"x_max":1044,"o":"m 464 -14 q 255 51 336 -14 q 174 257 174 115 q 176 304 174 281 q 183 356 179 328 l 272 858 l 174 896 l 178 917 l 486 917 l 481 896 l 368 858 l 283 376 q 275 322 278 349 q 272 271 272 294 q 335 99 272 150 q 499 47 397 47 q 612 76 556 47 q 712 168 668 106 q 772 328 756 231 l 867 858 l 746 896 l 750 917 l 1044 917 l 1040 896 l 933 858 l 844 356 q 767 141 821 222 q 635 23 713 60 q 464 -14 558 -14 m 449 988 q 537 1147 485 1094 q 667 1199 589 1199 q 783 1147 750 1199 q 819 988 817 1094 l 806 988 q 776 1082 794 1050 q 728 1125 757 1114 q 660 1136 700 1136 q 588 1125 621 1136 q 524 1082 554 1114 q 463 988 493 1050 l 449 988 z "},"Ủ":{"ha":1049,"x_min":174,"x_max":1044,"o":"m 464 -14 q 255 51 336 -14 q 174 257 174 115 q 176 304 174 281 q 183 356 179 328 l 272 858 l 174 896 l 178 917 l 486 917 l 481 896 l 368 858 l 283 376 q 275 322 278 349 q 272 271 272 294 q 335 99 272 150 q 499 47 397 47 q 612 76 556 47 q 712 168 668 106 q 772 328 756 231 l 867 858 l 746 896 l 750 917 l 1044 917 l 1040 896 l 933 858 l 844 356 q 767 141 821 222 q 635 23 713 60 q 464 -14 558 -14 m 576 975 l 569 983 l 569 985 q 663 1025 632 1003 q 693 1088 693 1047 q 671 1135 693 1115 q 593 1164 649 1156 l 613 1215 q 715 1177 685 1208 q 744 1110 744 1146 q 576 975 744 1010 z "},"Ṹ":{"ha":1049,"x_min":174,"x_max":1044,"o":"m 464 -14 q 255 51 336 -14 q 174 257 174 115 q 176 304 174 281 q 183 356 179 328 l 272 858 l 174 896 l 178 917 l 486 917 l 481 896 l 368 858 l 283 376 q 275 322 278 349 q 272 271 272 294 q 335 99 272 150 q 499 47 397 47 q 612 76 556 47 q 712 168 668 106 q 772 328 756 231 l 867 858 l 746 896 l 750 917 l 1044 917 l 1040 896 l 933 858 l 844 356 q 767 141 821 222 q 635 23 713 60 q 464 -14 558 -14 z "},"Ṻ":{"ha":1049,"x_min":174,"x_max":1044,"o":"m 464 -14 q 255 51 336 -14 q 174 257 174 115 q 176 304 174 281 q 183 356 179 328 l 272 858 l 174 896 l 178 917 l 486 917 l 481 896 l 368 858 l 283 376 q 275 322 278 349 q 272 271 272 294 q 335 99 272 150 q 499 47 397 47 q 612 76 556 47 q 712 168 668 106 q 772 328 756 231 l 867 858 l 746 896 l 750 917 l 1044 917 l 1040 896 l 933 858 l 844 356 q 767 141 821 222 q 635 23 713 60 q 464 -14 558 -14 z "},"Ư":{"ha":1049,"x_min":174,"x_max":1218,"o":"m 464 -14 q 255 51 336 -14 q 174 257 174 115 q 176 304 174 281 q 183 356 179 328 l 272 858 l 174 896 l 176 917 l 485 917 l 481 896 l 368 858 l 283 376 q 276 323 278 349 q 274 274 274 297 q 303 141 274 190 q 383 69 332 92 q 499 47 433 47 q 608 76 551 47 q 710 166 665 104 q 772 328 756 228 l 867 858 l 746 896 l 750 917 l 1049 917 q 1113 933 1093 917 q 1139 986 1132 949 l 1149 1039 l 1156 1044 l 1188 1044 q 1211 1041 1204 1044 q 1218 1024 1218 1038 q 1178 933 1218 972 q 1067 894 1139 894 l 1035 894 l 933 858 l 844 356 q 766 139 821 219 q 633 22 711 58 q 464 -14 556 -14 z "},"Ứ":{"ha":1049,"x_min":174,"x_max":1218,"o":"m 464 -14 q 255 51 336 -14 q 174 257 174 115 q 176 304 174 281 q 183 356 179 328 l 272 858 l 174 896 l 176 917 l 485 917 l 481 896 l 368 858 l 283 376 q 276 323 278 349 q 274 274 274 297 q 303 141 274 190 q 383 69 332 92 q 499 47 433 47 q 608 76 551 47 q 710 166 665 104 q 772 328 756 228 l 867 858 l 746 896 l 750 917 l 1049 917 q 1113 933 1093 917 q 1139 986 1132 949 l 1149 1039 l 1156 1044 l 1188 1044 q 1211 1041 1204 1044 q 1218 1024 1218 1038 q 1178 933 1218 972 q 1067 894 1139 894 l 1035 894 l 933 858 l 844 356 q 766 139 821 219 q 633 22 711 58 q 464 -14 556 -14 m 625 986 l 775 1197 l 861 1197 q 847 1158 857 1176 q 810 1119 836 1139 l 639 986 l 625 986 z "},"Ự":{"ha":1049,"x_min":174,"x_max":1218,"o":"m 464 -14 q 255 51 336 -14 q 174 257 174 115 q 176 304 174 281 q 183 356 179 328 l 272 858 l 174 896 l 176 917 l 485 917 l 481 896 l 368 858 l 283 376 q 276 323 278 349 q 274 274 274 297 q 303 141 274 190 q 383 69 332 92 q 499 47 433 47 q 608 76 551 47 q 710 166 665 104 q 772 328 756 228 l 867 858 l 746 896 l 750 917 l 1049 917 q 1113 933 1093 917 q 1139 986 1132 949 l 1149 1039 l 1156 1044 l 1188 1044 q 1211 1041 1204 1044 q 1218 1024 1218 1038 q 1178 933 1218 972 q 1067 894 1139 894 l 1035 894 l 933 858 l 844 356 q 766 139 821 219 q 633 22 711 58 q 464 -14 556 -14 z "},"Ừ":{"ha":1049,"x_min":174,"x_max":1218,"o":"m 464 -14 q 255 51 336 -14 q 174 257 174 115 q 176 304 174 281 q 183 356 179 328 l 272 858 l 174 896 l 176 917 l 485 917 l 481 896 l 368 858 l 283 376 q 276 323 278 349 q 274 274 274 297 q 303 141 274 190 q 383 69 332 92 q 499 47 433 47 q 608 76 551 47 q 710 166 665 104 q 772 328 756 228 l 867 858 l 746 896 l 750 917 l 1049 917 q 1113 933 1093 917 q 1139 986 1132 949 l 1149 1039 l 1156 1044 l 1188 1044 q 1211 1041 1204 1044 q 1218 1024 1218 1038 q 1178 933 1218 972 q 1067 894 1139 894 l 1035 894 l 933 858 l 844 356 q 766 139 821 219 q 633 22 711 58 q 464 -14 556 -14 m 625 986 l 456 1122 q 433 1158 435 1138 q 435 1197 431 1178 l 508 1197 l 639 986 l 625 986 z "},"Ử":{"ha":1049,"x_min":174,"x_max":1218,"o":"m 464 -14 q 255 51 336 -14 q 174 257 174 115 q 176 304 174 281 q 183 356 179 328 l 272 858 l 174 896 l 176 917 l 485 917 l 481 896 l 368 858 l 283 376 q 276 323 278 349 q 274 274 274 297 q 303 141 274 190 q 383 69 332 92 q 499 47 433 47 q 608 76 551 47 q 710 166 665 104 q 772 328 756 228 l 867 858 l 746 896 l 750 917 l 1049 917 q 1113 933 1093 917 q 1139 986 1132 949 l 1149 1039 l 1156 1044 l 1188 1044 q 1211 1041 1204 1044 q 1218 1024 1218 1038 q 1178 933 1218 972 q 1067 894 1139 894 l 1035 894 l 933 858 l 844 356 q 766 139 821 219 q 633 22 711 58 q 464 -14 556 -14 m 574 975 l 567 983 l 567 985 q 660 1025 629 1003 q 690 1088 690 1047 q 668 1135 690 1115 q 590 1164 646 1156 l 610 1215 q 712 1177 682 1208 q 742 1110 742 1146 q 574 975 742 1010 z "},"Ữ":{"ha":1049,"x_min":174,"x_max":1218,"o":"m 464 -14 q 255 51 336 -14 q 174 257 174 115 q 176 304 174 281 q 183 356 179 328 l 272 858 l 174 896 l 176 917 l 485 917 l 481 896 l 368 858 l 283 376 q 276 323 278 349 q 274 274 274 297 q 303 141 274 190 q 383 69 332 92 q 499 47 433 47 q 608 76 551 47 q 710 166 665 104 q 772 328 756 228 l 867 858 l 746 896 l 750 917 l 1049 917 q 1113 933 1093 917 q 1139 986 1132 949 l 1149 1039 l 1156 1044 l 1188 1044 q 1211 1041 1204 1044 q 1218 1024 1218 1038 q 1178 933 1218 972 q 1067 894 1139 894 l 1035 894 l 933 858 l 844 356 q 766 139 821 219 q 633 22 711 58 q 464 -14 556 -14 m 444 1010 q 497 1111 475 1078 q 540 1156 519 1144 q 582 1168 560 1168 q 629 1153 608 1168 q 668 1117 650 1138 q 703 1082 686 1097 q 742 1067 721 1067 q 786 1088 765 1067 q 839 1168 807 1110 l 857 1168 q 806 1067 828 1100 q 763 1022 783 1033 q 719 1010 743 1010 q 674 1025 694 1010 q 635 1060 653 1040 q 599 1096 617 1081 q 561 1111 582 1111 q 515 1090 536 1111 q 463 1010 493 1068 l 444 1010 z "},"Ẁ":{"ha":1313,"x_min":125,"x_max":1360,"o":"m 310 -7 l 211 863 l 125 896 l 129 917 l 425 917 l 421 896 l 307 860 l 375 168 l 383 168 l 744 924 l 782 924 l 899 168 l 906 168 l 1203 864 l 1097 896 l 1101 917 l 1360 917 l 1356 896 l 1272 865 l 875 -7 l 839 -7 l 721 731 l 714 731 l 346 -7 l 310 -7 m 767 986 l 597 1122 q 574 1158 576 1138 q 576 1197 572 1178 l 650 1197 l 781 986 l 767 986 z "},"Ẃ":{"ha":1313,"x_min":125,"x_max":1360,"o":"m 310 -7 l 211 863 l 125 896 l 129 917 l 425 917 l 421 896 l 307 860 l 375 168 l 383 168 l 744 924 l 782 924 l 899 168 l 906 168 l 1203 864 l 1097 896 l 1101 917 l 1360 917 l 1356 896 l 1272 865 l 875 -7 l 839 -7 l 721 731 l 714 731 l 346 -7 l 310 -7 m 768 986 l 918 1197 l 1004 1197 q 990 1158 1000 1176 q 953 1119 979 1139 l 782 986 l 768 986 z "},"Ŵ":{"ha":1313,"x_min":125,"x_max":1360,"o":"m 310 -7 l 211 863 l 125 896 l 129 917 l 425 917 l 421 896 l 307 860 l 375 168 l 383 168 l 744 924 l 782 924 l 899 168 l 906 168 l 1203 864 l 1097 896 l 1101 917 l 1360 917 l 1356 896 l 1272 865 l 875 -7 l 839 -7 l 721 731 l 714 731 l 346 -7 l 310 -7 m 581 986 l 794 1197 l 825 1197 l 951 986 l 938 986 l 796 1113 l 594 986 l 581 986 z "},"Ẅ":{"ha":1313,"x_min":125,"x_max":1360,"o":"m 310 -7 l 211 863 l 125 896 l 129 917 l 425 917 l 421 896 l 307 860 l 375 168 l 383 168 l 744 924 l 782 924 l 899 168 l 906 168 l 1203 864 l 1097 896 l 1101 917 l 1360 917 l 1356 896 l 1272 865 l 875 -7 l 839 -7 l 721 731 l 714 731 l 346 -7 l 310 -7 m 669 1035 q 630 1051 646 1035 q 614 1092 614 1068 q 630 1132 614 1115 q 669 1149 646 1149 q 710 1132 693 1149 q 726 1092 726 1115 q 710 1051 726 1068 q 669 1035 693 1035 m 917 1035 q 876 1051 893 1035 q 860 1092 860 1068 q 876 1132 860 1115 q 917 1149 893 1149 q 956 1132 940 1149 q 972 1092 972 1115 q 956 1051 972 1068 q 917 1035 940 1035 z "},"Ỳ":{"ha":933,"x_min":128,"x_max":971,"o":"m 236 0 l 240 21 l 364 63 l 431 431 l 219 858 l 128 896 l 133 917 l 438 917 l 432 896 l 322 864 l 322 858 l 504 482 l 800 857 l 800 863 l 699 896 l 704 917 l 971 917 l 967 896 l 879 864 l 525 431 l 458 63 l 571 21 l 567 0 l 236 0 m 569 986 l 400 1122 q 377 1158 379 1138 q 379 1197 375 1178 l 453 1197 l 583 986 l 569 986 z "},"Ý":{"ha":933,"x_min":128,"x_max":971,"o":"m 236 0 l 240 21 l 364 63 l 431 431 l 219 858 l 128 896 l 133 917 l 438 917 l 432 896 l 322 864 l 322 858 l 504 482 l 800 857 l 800 863 l 699 896 l 704 917 l 971 917 l 967 896 l 879 864 l 525 431 l 458 63 l 571 21 l 567 0 l 236 0 m 569 986 l 719 1197 l 806 1197 q 791 1158 801 1176 q 754 1119 781 1139 l 583 986 l 569 986 z "},"Ŷ":{"ha":933,"x_min":128,"x_max":971,"o":"m 236 0 l 240 21 l 364 63 l 431 431 l 219 858 l 128 896 l 133 917 l 438 917 l 432 896 l 322 864 l 322 858 l 504 482 l 800 857 l 800 863 l 699 896 l 704 917 l 971 917 l 967 896 l 879 864 l 525 431 l 458 63 l 571 21 l 567 0 l 236 0 m 383 986 l 597 1197 l 628 1197 l 754 986 l 740 986 l 599 1113 l 397 986 l 383 986 z "},"Ÿ":{"ha":933,"x_min":128,"x_max":971,"o":"m 236 0 l 240 21 l 364 63 l 431 431 l 219 858 l 128 896 l 133 917 l 438 917 l 432 896 l 322 864 l 322 858 l 504 482 l 800 857 l 800 863 l 699 896 l 704 917 l 971 917 l 967 896 l 879 864 l 525 431 l 458 63 l 571 21 l 567 0 l 236 0 m 472 1035 q 433 1051 449 1035 q 417 1092 417 1068 q 433 1132 417 1115 q 472 1149 449 1149 q 513 1132 496 1149 q 529 1092 529 1115 q 513 1051 529 1068 q 472 1035 496 1035 m 719 1035 q 679 1051 696 1035 q 663 1092 663 1068 q 679 1132 663 1115 q 719 1149 696 1149 q 759 1132 743 1149 q 775 1092 775 1115 q 759 1051 775 1068 q 719 1035 743 1035 z "},"Ỹ":{"ha":933,"x_min":128,"x_max":971,"o":"m 236 0 l 240 21 l 364 63 l 431 431 l 219 858 l 128 896 l 133 917 l 438 917 l 432 896 l 322 864 l 322 858 l 504 482 l 800 857 l 800 863 l 699 896 l 704 917 l 971 917 l 967 896 l 879 864 l 525 431 l 458 63 l 571 21 l 567 0 l 236 0 m 389 1010 q 442 1111 419 1078 q 484 1156 464 1144 q 526 1168 504 1168 q 574 1153 553 1168 q 613 1117 594 1138 q 648 1082 631 1097 q 686 1067 665 1067 q 731 1088 710 1067 q 783 1168 751 1110 l 801 1168 q 750 1067 772 1100 q 708 1022 728 1033 q 664 1010 688 1010 q 618 1025 639 1010 q 579 1060 597 1040 q 544 1096 561 1081 q 506 1111 526 1111 q 459 1090 481 1111 q 407 1010 438 1068 l 389 1010 z "},"Ȳ":{"ha":933,"x_min":128,"x_max":971,"o":"m 236 0 l 240 21 l 364 63 l 431 431 l 219 858 l 128 896 l 133 917 l 438 917 l 432 896 l 322 864 l 322 858 l 504 482 l 800 857 l 800 863 l 699 896 l 704 917 l 971 917 l 967 896 l 879 864 l 525 431 l 458 63 l 571 21 l 567 0 l 236 0 m 417 1069 l 426 1119 l 768 1119 l 758 1069 l 417 1069 z "},"Ỵ":{"ha":933,"x_min":128,"x_max":971,"o":"m 236 0 l 240 21 l 364 63 l 431 431 l 219 858 l 128 896 l 133 917 l 438 917 l 432 896 l 322 864 l 322 858 l 504 482 l 800 857 l 800 863 l 699 896 l 704 917 l 971 917 l 967 896 l 879 864 l 525 431 l 458 63 l 571 21 l 567 0 l 236 0 z "},"Ỷ":{"ha":933,"x_min":128,"x_max":971,"o":"m 236 0 l 240 21 l 364 63 l 431 431 l 219 858 l 128 896 l 133 917 l 438 917 l 432 896 l 322 864 l 322 858 l 504 482 l 800 857 l 800 863 l 699 896 l 704 917 l 971 917 l 967 896 l 879 864 l 525 431 l 458 63 l 571 21 l 567 0 l 236 0 m 519 975 l 513 983 l 513 985 q 606 1025 575 1003 q 636 1088 636 1047 q 614 1135 636 1115 q 536 1164 592 1156 l 556 1215 q 658 1177 628 1208 q 688 1110 688 1146 q 519 975 688 1010 z "},"Ẏ":{"ha":933,"x_min":128,"x_max":971,"o":"m 236 0 l 240 21 l 364 63 l 431 431 l 219 858 l 128 896 l 133 917 l 438 917 l 432 896 l 322 864 l 322 858 l 504 482 l 800 857 l 800 863 l 699 896 l 704 917 l 971 917 l 967 896 l 879 864 l 525 431 l 458 63 l 571 21 l 567 0 l 236 0 m 596 1028 q 550 1046 568 1028 q 532 1092 532 1064 q 550 1138 532 1119 q 596 1156 568 1156 q 642 1138 624 1156 q 660 1092 660 1119 q 642 1046 660 1064 q 596 1028 624 1028 z "},"Ź":{"ha":856,"x_min":49,"x_max":807,"o":"m 49 0 l 54 38 l 681 863 l 304 863 l 204 675 l 183 675 l 225 917 l 807 917 l 800 879 l 179 58 l 588 58 l 686 256 l 708 256 l 663 0 l 49 0 m 521 986 l 671 1197 l 757 1197 q 742 1158 753 1176 q 706 1119 732 1139 l 535 986 l 521 986 z "},"Ž":{"ha":856,"x_min":49,"x_max":807,"o":"m 49 0 l 54 38 l 681 863 l 304 863 l 204 675 l 183 675 l 225 917 l 807 917 l 800 879 l 179 58 l 588 58 l 686 256 l 708 256 l 663 0 l 49 0 m 513 986 l 383 1197 l 397 1197 l 540 1071 l 740 1197 l 754 1197 l 543 986 l 513 986 z "},"Ż":{"ha":856,"x_min":49,"x_max":807,"o":"m 49 0 l 54 38 l 681 863 l 304 863 l 204 675 l 183 675 l 225 917 l 807 917 l 800 879 l 179 58 l 588 58 l 686 256 l 708 256 l 663 0 l 49 0 m 546 1028 q 500 1046 518 1028 q 482 1092 482 1064 q 500 1138 482 1119 q 546 1156 518 1156 q 592 1138 574 1156 q 610 1092 610 1119 q 592 1046 610 1064 q 546 1028 574 1028 z "},"Ẓ":{"ha":856,"x_min":49,"x_max":807,"o":"m 49 0 l 54 38 l 681 863 l 304 863 l 204 675 l 183 675 l 225 917 l 807 917 l 800 879 l 179 58 l 588 58 l 686 256 l 708 256 l 663 0 l 49 0 z "},"Ə":{"ha":853,"x_min":64,"x_max":790,"o":"m 339 -14 q 133 72 203 -14 q 64 314 64 158 q 65 360 64 336 q 71 410 67 383 l 81 417 l 689 417 q 697 538 697 475 q 631 772 697 686 q 425 858 564 858 q 266 822 338 858 q 132 728 194 786 l 126 728 l 131 753 q 275 880 186 829 q 471 931 364 931 q 647 885 575 931 q 754 760 718 840 q 790 572 790 679 q 758 350 790 456 q 665 163 725 244 q 522 33 606 81 q 339 -14 439 -14 m 156 315 q 174 172 156 233 q 235 76 192 110 q 356 42 278 42 q 504 83 439 42 q 613 197 569 124 q 678 363 657 269 l 158 363 q 156 338 157 350 q 156 315 156 326 z "},"Ŋ":{"ha":1033,"x_min":14,"x_max":1024,"o":"m 14 0 l 17 21 l 126 60 l 267 857 l 163 896 l 167 917 l 353 917 l 732 182 l 851 858 l 729 896 l 733 917 l 1024 917 l 1019 896 l 915 858 l 757 -50 q 710 -194 740 -142 q 640 -279 679 -247 q 563 -319 607 -306 q 476 -333 519 -333 q 441 -325 451 -333 q 436 -293 431 -317 l 449 -247 l 454 -243 l 500 -243 q 631 -201 589 -243 q 690 -58 672 -158 l 706 29 l 318 769 l 193 61 l 310 21 l 306 0 l 14 0 z "},"Ð":{"ha":976,"x_min":14,"x_max":903,"o":"m 14 0 l 19 21 l 125 60 l 194 453 l 93 453 l 103 501 l 203 501 l 265 857 l 169 896 l 175 917 l 451 917 q 711 867 611 917 q 857 734 811 818 q 903 544 903 650 q 883 402 903 476 q 822 256 864 328 q 717 127 781 185 q 564 35 653 69 q 361 0 475 0 l 14 0 m 535 453 l 290 453 l 219 54 l 375 54 q 610 114 515 54 q 754 281 706 174 q 803 535 803 389 q 712 774 803 686 q 433 863 621 863 l 363 863 l 299 501 l 544 501 l 535 453 z "},"Þ":{"ha":800,"x_min":14,"x_max":729,"o":"m 472 917 l 468 896 l 363 858 l 340 735 l 411 735 q 642 680 556 735 q 729 511 729 625 q 685 371 729 436 q 559 265 640 306 q 365 225 478 225 l 250 225 l 221 60 l 319 21 l 317 0 l 14 0 l 17 21 l 125 60 l 265 858 l 169 896 l 174 917 l 472 917 m 408 681 l 331 681 l 260 279 l 374 279 q 565 342 503 279 q 628 504 628 404 q 568 638 628 594 q 408 681 508 681 z "},"Ǆ":{"ha":1803,"x_min":14,"x_max":1754,"o":"m 14 0 l 19 21 l 125 60 l 265 857 l 169 896 l 175 917 l 451 917 q 711 867 611 917 q 857 734 811 818 q 903 544 903 650 q 883 402 903 476 q 822 256 864 328 q 717 127 781 185 q 564 35 653 69 q 361 0 475 0 l 14 0 m 433 863 l 363 863 l 219 54 l 375 54 q 610 114 515 54 q 754 281 706 174 q 803 535 803 389 q 712 774 803 686 q 433 863 621 863 m 996 0 l 1001 38 l 1628 863 l 1251 863 l 1151 675 l 1131 675 l 1172 917 l 1754 917 l 1747 879 l 1126 58 l 1535 58 l 1633 256 l 1656 256 l 1610 0 l 996 0 m 1460 986 l 1331 1197 l 1344 1197 l 1488 1071 l 1688 1197 l 1701 1197 l 1490 986 l 1460 986 z "},"Ǉ":{"ha":1286,"x_min":14,"x_max":1278,"o":"m 14 0 l 19 21 l 125 60 l 265 857 l 171 896 l 175 917 l 486 917 l 482 896 l 361 857 l 221 54 l 550 54 l 664 297 l 688 297 l 636 0 l 14 0 m 750 -240 q 717 -227 731 -240 q 714 -186 704 -214 l 735 -132 l 742 -132 q 775 -142 763 -139 q 804 -144 788 -144 q 855 -129 832 -144 q 897 -68 878 -114 q 932 71 917 -22 l 1072 858 l 976 896 l 981 917 l 1278 917 l 1274 896 l 1168 858 l 1069 311 q 1001 31 1040 146 q 899 -144 961 -83 q 831 -207 856 -186 q 790 -234 807 -228 q 750 -240 772 -240 z "},"Ǌ":{"ha":1518,"x_min":13,"x_max":1511,"o":"m 13 0 l 17 21 l 126 60 l 267 857 l 163 896 l 167 917 l 353 917 l 732 182 l 851 858 l 728 896 l 733 917 l 1024 917 l 1019 896 l 915 858 l 764 -7 l 725 -7 l 318 769 l 193 61 l 310 21 l 306 0 l 13 0 m 983 -240 q 951 -227 964 -240 q 947 -186 938 -214 l 968 -132 l 975 -132 q 1008 -142 996 -139 q 1038 -144 1021 -144 q 1088 -129 1065 -144 q 1131 -68 1111 -114 q 1165 71 1150 -22 l 1306 858 l 1210 896 l 1214 917 l 1511 917 l 1507 896 l 1401 858 l 1303 311 q 1234 31 1274 146 q 1132 -144 1194 -83 q 1065 -207 1089 -186 q 1023 -234 1040 -228 q 983 -240 1006 -240 z "},"Ђ":{"ha":1094,"x_min":104,"x_max":976,"o":"m 176 0 l 182 21 l 322 63 l 465 863 l 232 863 l 125 656 l 104 656 l 150 917 l 921 917 l 875 656 l 853 656 l 821 863 l 561 863 l 489 458 q 598 513 536 490 q 724 536 660 536 q 916 465 856 536 q 951 250 976 394 q 889 18 929 122 q 783 -147 849 -86 q 712 -208 739 -189 q 665 -234 685 -228 q 621 -240 644 -240 q 591 -232 603 -240 q 582 -201 579 -224 q 588 -185 583 -199 q 608 -132 592 -172 l 617 -132 q 653 -142 639 -139 q 685 -144 667 -144 q 741 -128 715 -144 q 788 -62 767 -112 q 829 93 810 -11 l 854 236 q 835 415 878 363 q 686 467 793 467 q 479 407 575 467 l 418 63 l 547 21 l 543 0 l 176 0 z "},"Є":{"ha":925,"x_min":83,"x_max":854,"o":"m 447 -14 q 255 33 336 -14 q 128 165 174 81 q 83 361 83 249 q 124 576 83 474 q 235 759 164 679 q 402 885 307 839 q 607 931 497 931 q 745 913 692 931 q 854 863 799 894 l 822 642 l 800 642 l 761 811 q 681 862 724 846 q 583 878 639 878 q 392 828 474 878 q 261 692 311 778 q 194 500 211 607 l 542 500 l 613 615 l 638 615 l 588 333 l 563 333 l 532 446 l 188 446 q 185 385 185 415 q 224 201 185 281 q 329 78 263 122 q 478 33 396 33 q 578 50 533 33 q 663 89 624 67 l 765 263 l 788 263 l 739 54 q 615 4 679 22 q 447 -14 551 -14 z "},"Ѕ":{"ha":685,"x_min":22,"x_max":628,"o":"m 257 -14 q 128 3 181 -14 q 22 50 75 19 l 49 263 l 71 263 l 113 99 q 187 51 143 67 q 275 35 231 35 q 426 92 372 35 q 479 243 479 150 q 459 322 479 289 q 399 385 439 356 q 300 451 360 414 q 183 549 219 501 q 147 665 147 597 q 186 797 147 736 q 289 894 225 857 q 425 931 353 931 q 533 915 483 931 q 628 872 582 900 l 603 665 l 581 665 l 544 822 q 490 863 525 844 q 408 881 456 881 q 280 832 331 881 q 229 701 229 783 q 261 603 229 646 q 381 508 293 561 q 488 435 446 469 q 549 360 529 400 q 568 264 568 319 q 527 128 568 192 q 415 25 486 64 q 257 -14 344 -14 z "},"І":{"ha":481,"x_min":13,"x_max":467,"o":"m 13 0 l 17 21 l 121 60 l 263 858 l 165 896 l 169 917 l 467 917 l 463 896 l 357 858 l 215 60 l 315 21 l 311 0 l 13 0 z "},"Ї":{"ha":481,"x_min":13,"x_max":531,"o":"m 13 0 l 17 21 l 121 60 l 263 858 l 165 896 l 169 917 l 467 917 l 463 896 l 357 858 l 215 60 l 315 21 l 311 0 l 13 0 m 228 1035 q 188 1051 204 1035 q 172 1092 172 1068 q 188 1132 172 1115 q 228 1149 204 1149 q 268 1132 251 1149 q 285 1092 285 1115 q 268 1051 285 1068 q 228 1035 251 1035 m 475 1035 q 435 1051 451 1035 q 418 1092 418 1068 q 435 1132 418 1115 q 475 1149 451 1149 q 515 1132 499 1149 q 531 1092 531 1115 q 515 1051 531 1068 q 475 1035 499 1035 z "},"Ј":{"ha":490,"x_min":-90,"x_max":483,"o":"m -44 -240 q -77 -227 -64 -240 q -81 -186 -90 -214 l -60 -132 l -53 -132 q -19 -142 -32 -139 q 10 -144 -7 -144 q 60 -129 38 -144 q 103 -68 83 -114 q 138 71 122 -22 l 278 858 l 182 896 l 186 917 l 483 917 l 479 896 l 374 858 l 275 311 q 206 31 246 146 q 104 -144 167 -83 q 37 -207 61 -186 q -5 -234 13 -228 q -44 -240 -22 -240 z "},"Љ":{"ha":1274,"x_min":-12,"x_max":1179,"o":"m 404 786 q 316 387 364 556 q 207 115 268 218 q 117 15 164 43 q 31 -14 71 -14 q -6 -6 0 -14 q -8 26 -12 3 l 1 81 l 10 88 l 19 88 q 155 173 97 88 q 258 415 213 258 q 340 786 303 572 l 353 858 l 249 896 l 254 917 l 947 917 l 944 896 l 815 857 l 758 531 l 883 531 q 1105 467 1031 531 q 1179 300 1179 403 q 1135 149 1179 217 q 1004 40 1092 81 q 783 0 917 0 l 472 0 l 475 21 l 578 58 l 721 863 l 417 863 l 404 786 m 674 54 l 799 54 q 1010 123 938 54 q 1082 296 1082 192 q 1028 428 1082 381 q 865 476 974 476 l 747 476 l 674 54 z "},"Њ":{"ha":1343,"x_min":14,"x_max":1249,"o":"m 14 0 l 17 21 l 121 60 l 263 858 l 158 896 l 164 917 l 469 917 l 465 896 l 357 857 l 296 515 l 729 515 l 790 857 l 693 896 l 697 917 l 1018 917 l 1014 896 l 885 857 l 825 515 l 954 515 q 1175 455 1101 515 q 1249 299 1249 394 q 1205 149 1249 217 q 1074 40 1161 81 q 853 0 986 0 l 540 0 l 544 21 l 649 58 l 719 461 l 286 461 l 215 58 l 324 21 l 321 0 l 14 0 m 743 54 l 868 54 q 1079 122 1007 54 q 1151 294 1151 190 q 1097 418 1151 374 q 935 463 1043 463 l 815 463 l 743 54 z "},"Ћ":{"ha":1136,"x_min":104,"x_max":1007,"o":"m 176 0 l 182 21 l 322 63 l 465 863 l 232 863 l 125 656 l 104 656 l 150 917 l 921 917 l 875 656 l 853 656 l 821 863 l 561 863 l 489 458 q 598 513 536 490 q 724 536 660 536 q 900 472 842 536 q 935 278 958 408 l 897 63 l 1007 21 l 1003 0 l 793 0 l 840 269 q 820 422 858 376 q 686 467 782 467 q 479 407 575 467 l 418 63 l 547 21 l 543 0 l 176 0 z "},"Џ":{"ha":1017,"x_min":14,"x_max":1003,"o":"m 367 0 l 14 0 l 19 21 l 125 60 l 267 858 l 160 896 l 164 917 l 469 917 l 467 896 l 361 857 l 219 54 l 660 54 l 801 858 l 693 896 l 697 917 l 1003 917 l 1000 896 l 897 857 l 756 58 l 858 21 l 854 0 l 493 0 l 404 -217 l 379 -217 l 367 0 z "},"А":{"ha":940,"x_min":-21,"x_max":829,"o":"m -21 0 l -15 21 l 56 53 l 540 924 l 582 924 l 754 58 l 829 21 l 825 0 l 533 0 l 538 21 l 658 56 l 604 343 l 281 343 l 122 51 l 236 21 l 232 0 l -21 0 m 310 397 l 593 397 l 519 786 l 310 397 z "},"Б":{"ha":825,"x_min":14,"x_max":760,"o":"m 169 917 l 760 917 l 719 685 l 699 685 l 664 863 l 358 863 l 297 517 l 435 517 q 654 454 581 517 q 728 293 728 392 q 684 146 728 213 q 553 40 640 79 q 333 0 465 0 l 14 0 l 17 21 l 121 58 l 263 857 l 167 896 l 169 917 m 217 54 l 349 54 q 558 121 486 54 q 629 289 629 188 q 576 417 629 371 q 415 463 522 463 l 288 463 l 217 54 z "},"В":{"ha":801,"x_min":14,"x_max":715,"o":"m 14 0 l 18 21 l 126 60 l 267 858 l 171 896 l 175 917 l 435 917 q 640 868 564 917 q 715 721 715 819 q 661 580 715 647 q 508 485 607 513 q 664 411 613 467 q 715 272 715 356 q 669 138 715 200 q 541 38 624 75 q 347 0 458 0 l 14 0 m 433 861 l 361 861 l 297 500 l 378 500 q 555 560 494 500 q 615 706 615 619 q 572 822 615 783 q 433 861 528 861 m 394 446 l 288 446 l 219 54 l 356 54 q 551 115 486 54 q 615 271 615 176 q 558 404 615 363 q 394 446 501 446 z "},"Г":{"ha":792,"x_min":14,"x_max":761,"o":"m 14 0 l 19 21 l 125 60 l 265 857 l 169 896 l 175 917 l 761 917 l 721 685 l 700 685 l 665 863 l 363 863 l 221 60 l 338 21 l 333 0 l 14 0 z "},"Ѓ":{"ha":792,"x_min":14,"x_max":761,"o":"m 14 0 l 19 21 l 125 60 l 265 857 l 169 896 l 175 917 l 761 917 l 721 685 l 700 685 l 665 863 l 363 863 l 221 60 l 338 21 l 333 0 l 14 0 z "},"Ғ":{"ha":792,"x_min":14,"x_max":761,"o":"m 14 0 l 19 21 l 125 60 l 194 453 l 93 453 l 103 501 l 203 501 l 265 857 l 169 896 l 175 917 l 761 917 l 721 685 l 700 685 l 665 863 l 363 863 l 299 501 l 538 501 l 528 453 l 290 453 l 221 60 l 338 21 l 333 0 l 14 0 z "},"Д":{"ha":990,"x_min":-60,"x_max":964,"o":"m 86 0 l -35 -217 l -60 -217 l -11 54 l 85 54 q 232 371 174 181 q 332 786 290 561 l 344 858 l 242 896 l 246 917 l 964 917 l 958 896 l 851 857 l 710 54 l 842 54 l 793 -217 l 768 -217 l 726 0 l 86 0 m 397 786 q 299 369 357 560 q 161 54 242 179 l 614 54 l 758 863 l 411 863 l 397 786 z "},"Е":{"ha":810,"x_min":14,"x_max":771,"o":"m 14 0 l 19 21 l 125 60 l 265 857 l 169 896 l 175 917 l 771 917 l 731 685 l 708 685 l 675 863 l 363 863 l 299 501 l 524 501 l 592 617 l 615 617 l 565 332 l 540 332 l 515 446 l 289 446 l 219 54 l 586 54 l 683 246 l 706 246 l 663 0 l 14 0 z "},"Ё":{"ha":810,"x_min":14,"x_max":771,"o":"m 14 0 l 19 21 l 125 60 l 265 857 l 169 896 l 175 917 l 771 917 l 731 685 l 708 685 l 675 863 l 363 863 l 299 501 l 524 501 l 592 617 l 615 617 l 565 332 l 540 332 l 515 446 l 289 446 l 219 54 l 586 54 l 683 246 l 706 246 l 663 0 l 14 0 m 421 1035 q 381 1051 397 1035 q 365 1092 365 1068 q 381 1132 365 1115 q 421 1149 397 1149 q 461 1132 444 1149 q 478 1092 478 1115 q 461 1051 478 1068 q 421 1035 444 1035 m 668 1035 q 628 1051 644 1035 q 611 1092 611 1068 q 628 1132 611 1115 q 668 1149 644 1149 q 708 1132 692 1149 q 724 1092 724 1115 q 708 1051 724 1068 q 668 1035 692 1035 z "},"Ж":{"ha":1331,"x_min":-56,"x_max":1315,"o":"m 108 0 l -56 0 l -53 21 l 33 53 l 536 500 l 260 871 l 182 896 l 185 917 l 456 917 l 453 896 l 343 857 l 624 471 l 692 858 l 597 896 l 601 917 l 900 917 l 896 896 l 789 858 l 721 474 l 1135 857 l 1040 896 l 1044 917 l 1315 917 l 1310 896 l 1232 874 l 810 492 l 1150 53 l 1229 21 l 1225 0 l 1069 0 l 719 465 l 647 60 l 749 21 l 744 0 l 432 0 l 436 21 l 551 60 l 624 468 l 108 0 z "},"З":{"ha":793,"x_min":76,"x_max":710,"o":"m 464 883 q 378 871 414 883 q 307 835 342 858 l 199 646 l 176 646 l 222 865 q 333 912 278 893 q 471 931 388 931 q 607 902 554 931 q 685 828 660 874 q 710 729 710 782 q 685 626 710 678 q 613 535 660 575 q 497 476 565 494 q 649 407 597 461 q 700 271 700 353 q 655 133 700 199 q 531 27 610 68 q 350 -14 453 -14 q 185 6 246 -14 q 76 54 125 26 l 104 265 l 126 265 l 169 97 q 244 53 204 69 q 349 38 285 38 q 481 69 425 38 q 567 151 536 100 q 597 264 597 203 q 546 395 597 346 q 376 444 494 444 l 279 444 l 289 500 l 386 500 q 511 533 461 500 q 585 618 561 567 q 610 721 610 669 q 576 835 610 786 q 464 883 542 883 z "},"И":{"ha":1053,"x_min":14,"x_max":1039,"o":"m 14 0 l 17 21 l 121 60 l 263 858 l 158 896 l 164 917 l 469 917 l 465 896 l 357 857 l 242 206 l 821 790 l 833 858 l 728 896 l 732 917 l 1039 917 l 1033 896 l 928 857 l 786 58 l 893 21 l 889 0 l 583 0 l 586 21 l 692 60 l 806 699 l 225 115 l 215 58 l 324 21 l 321 0 l 14 0 z "},"Й":{"ha":1053,"x_min":14,"x_max":1039,"o":"m 14 0 l 17 21 l 121 60 l 263 858 l 158 896 l 164 917 l 469 917 l 465 896 l 357 857 l 242 206 l 821 790 l 833 858 l 728 896 l 732 917 l 1039 917 l 1033 896 l 928 857 l 786 58 l 893 21 l 889 0 l 583 0 l 586 21 l 692 60 l 806 699 l 225 115 l 215 58 l 324 21 l 321 0 l 14 0 m 422 1197 l 521 1197 q 530 1069 510 1119 q 613 1018 550 1018 q 712 1069 672 1018 q 764 1197 751 1119 l 864 1197 q 781 1046 850 1106 q 608 986 711 986 q 456 1046 504 986 q 422 1197 408 1106 z "},"Ӣ":{"ha":1053,"x_min":14,"x_max":1039,"o":"m 14 0 l 17 21 l 121 60 l 263 858 l 158 896 l 164 917 l 469 917 l 465 896 l 357 857 l 242 206 l 821 790 l 833 858 l 728 896 l 732 917 l 1039 917 l 1033 896 l 928 857 l 786 58 l 893 21 l 889 0 l 583 0 l 586 21 l 692 60 l 806 699 l 225 115 l 215 58 l 324 21 l 321 0 l 14 0 z "},"К":{"ha":925,"x_min":13,"x_max":903,"o":"m 13 0 l 17 21 l 125 60 l 265 858 l 171 896 l 175 917 l 474 917 l 468 896 l 363 858 l 294 472 l 722 857 l 628 896 l 632 917 l 903 917 l 897 896 l 818 872 l 386 493 l 743 53 l 821 21 l 817 0 l 657 0 l 293 467 l 221 60 l 322 21 l 318 0 l 13 0 z "},"Ќ":{"ha":925,"x_min":13,"x_max":903,"o":"m 13 0 l 17 21 l 125 60 l 265 858 l 171 896 l 175 917 l 474 917 l 468 896 l 363 858 l 294 472 l 722 857 l 628 896 l 632 917 l 903 917 l 897 896 l 818 872 l 386 493 l 743 53 l 821 21 l 817 0 l 657 0 l 293 467 l 221 60 l 322 21 l 318 0 l 13 0 z "},"Л":{"ha":968,"x_min":-12,"x_max":954,"o":"m 499 0 l 501 21 l 607 60 l 749 863 l 417 863 l 404 786 q 316 387 364 556 q 207 115 268 218 q 117 15 164 43 q 31 -14 71 -14 q -6 -6 0 -14 q -8 26 -12 3 l 1 81 l 10 88 l 19 88 q 155 173 97 88 q 258 415 213 258 q 340 786 303 572 l 353 858 l 249 896 l 254 917 l 954 917 l 949 896 l 843 857 l 701 58 l 808 21 l 804 0 l 499 0 z "},"М":{"ha":1239,"x_min":14,"x_max":1225,"o":"m 14 0 l 19 21 l 126 60 l 293 856 l 185 897 l 190 917 l 407 917 l 586 146 l 1015 917 l 1225 917 l 1221 896 l 1107 856 l 1010 60 l 1093 21 l 1089 0 l 808 0 l 814 21 l 915 58 l 1011 794 l 563 -7 l 522 -7 l 340 794 l 193 58 l 290 21 l 286 0 l 14 0 z "},"Н":{"ha":1039,"x_min":14,"x_max":1025,"o":"m 14 0 l 17 21 l 121 60 l 263 858 l 158 896 l 164 917 l 469 917 l 465 896 l 357 857 l 294 501 l 756 501 l 819 858 l 714 896 l 718 917 l 1025 917 l 1019 896 l 914 857 l 772 58 l 879 21 l 875 0 l 569 0 l 572 21 l 678 60 l 746 447 l 285 447 l 215 58 l 324 21 l 321 0 l 14 0 z "},"О":{"ha":1013,"x_min":83,"x_max":929,"o":"m 429 -14 q 247 35 325 -14 q 126 169 169 83 q 83 368 83 256 q 122 582 83 481 q 228 762 160 683 q 387 885 296 840 q 583 931 478 931 q 766 882 689 931 q 886 747 843 833 q 929 549 929 661 q 893 341 929 442 q 790 160 857 240 q 631 33 722 81 q 429 -14 539 -14 m 467 33 q 609 72 543 33 q 725 177 675 110 q 803 335 775 244 q 831 532 831 426 q 794 717 831 638 q 695 842 758 797 q 550 886 632 886 q 403 848 471 886 q 286 742 336 810 q 209 583 236 674 q 182 388 182 493 q 218 203 182 283 q 319 78 254 124 q 467 33 383 33 z "},"П":{"ha":1017,"x_min":14,"x_max":1003,"o":"m 14 0 l 17 21 l 121 60 l 263 858 l 158 896 l 164 917 l 1003 917 l 999 896 l 892 857 l 750 58 l 857 21 l 854 0 l 547 0 l 551 21 l 656 60 l 797 863 l 358 863 l 215 58 l 324 21 l 321 0 l 14 0 z "},"Р":{"ha":800,"x_min":13,"x_max":758,"o":"m 13 0 l 17 21 l 125 60 l 265 858 l 171 896 l 175 917 l 440 917 q 672 863 585 917 q 758 694 758 808 q 715 553 758 618 q 590 448 671 488 q 396 408 508 408 l 282 408 l 221 60 l 338 21 l 333 0 l 13 0 m 363 863 l 292 461 l 404 461 q 596 524 533 461 q 658 686 658 588 q 599 819 658 775 q 439 863 539 863 l 363 863 z "},"С":{"ha":925,"x_min":83,"x_max":854,"o":"m 447 -14 q 255 33 336 -14 q 128 165 174 81 q 83 361 83 249 q 124 576 83 474 q 235 759 164 679 q 402 885 307 839 q 607 931 497 931 q 745 913 692 931 q 854 863 799 894 l 822 642 l 800 642 l 761 811 q 681 862 724 846 q 583 878 639 878 q 412 838 486 878 q 287 731 338 799 q 210 574 236 663 q 185 385 185 485 q 224 201 185 281 q 329 78 263 122 q 478 33 396 33 q 578 50 533 33 q 663 89 624 67 l 765 263 l 788 263 l 739 54 q 615 4 679 22 q 447 -14 551 -14 z "},"Т":{"ha":893,"x_min":104,"x_max":921,"o":"m 190 0 l 196 21 l 336 63 l 479 863 l 232 863 l 125 656 l 104 656 l 150 917 l 921 917 l 875 656 l 853 656 l 821 863 l 575 863 l 432 63 l 561 21 l 557 0 l 190 0 z "},"У":{"ha":942,"x_min":118,"x_max":988,"o":"m 479 211 q 378 74 422 122 q 294 6 333 25 q 214 -14 256 -14 q 178 -6 185 -14 q 175 26 171 3 l 185 81 l 193 88 l 203 88 q 317 116 272 88 q 400 199 361 144 l 201 864 l 118 896 l 122 917 l 422 917 l 418 896 l 300 860 l 299 854 l 461 306 l 475 306 l 821 857 l 821 863 l 718 896 l 721 917 l 988 917 l 983 896 l 906 865 l 479 211 z "},"Ў":{"ha":942,"x_min":118,"x_max":988,"o":"m 479 211 q 378 74 422 122 q 294 6 333 25 q 214 -14 256 -14 q 178 -6 185 -14 q 175 26 171 3 l 185 81 l 193 88 l 203 88 q 317 116 272 88 q 400 199 361 144 l 201 864 l 118 896 l 122 917 l 422 917 l 418 896 l 300 860 l 299 854 l 461 306 l 475 306 l 821 857 l 821 863 l 718 896 l 721 917 l 988 917 l 983 896 l 906 865 l 479 211 m 406 1197 l 504 1197 q 513 1069 493 1119 q 596 1018 533 1018 q 695 1069 656 1018 q 747 1197 735 1119 l 847 1197 q 764 1046 833 1106 q 592 986 694 986 q 440 1046 488 986 q 406 1197 392 1106 z "},"Ӯ":{"ha":942,"x_min":118,"x_max":988,"o":"m 479 211 q 378 74 422 122 q 294 6 333 25 q 214 -14 256 -14 q 178 -6 185 -14 q 175 26 171 3 l 185 81 l 193 88 l 203 88 q 317 116 272 88 q 400 199 361 144 l 201 864 l 118 896 l 122 917 l 422 917 l 418 896 l 300 860 l 299 854 l 461 306 l 475 306 l 821 857 l 821 863 l 718 896 l 721 917 l 988 917 l 983 896 l 906 865 l 479 211 z "},"Ф":{"ha":1125,"x_min":49,"x_max":1074,"o":"m 332 -28 l 336 -7 l 439 32 l 453 111 q 153 195 257 115 q 49 411 49 275 q 114 604 49 517 q 297 747 179 692 q 574 806 415 801 l 588 886 l 492 924 l 496 944 l 793 944 l 789 924 l 683 886 l 669 806 q 969 722 865 801 q 1074 506 1074 642 q 1008 313 1074 400 q 825 170 943 225 q 549 111 707 115 l 535 32 l 633 -7 l 629 -28 l 332 -28 m 147 426 q 230 238 147 308 q 461 158 313 167 l 565 760 q 336 715 429 758 q 195 596 243 671 q 147 426 147 521 m 975 490 q 892 679 975 608 q 661 758 810 750 l 557 157 q 786 201 693 157 q 927 321 879 246 q 975 490 975 396 z "},"Х":{"ha":949,"x_min":-35,"x_max":969,"o":"m -35 0 l -31 21 l 85 63 l 439 463 l 238 857 l 144 896 l 149 917 l 460 917 l 456 896 l 339 864 l 338 858 l 511 519 l 794 857 l 794 863 l 686 896 l 690 917 l 969 917 l 965 896 l 875 861 l 535 471 l 743 64 l 843 21 l 839 0 l 510 0 l 514 21 l 640 58 l 640 64 l 464 413 l 164 64 l 164 58 l 271 21 l 267 0 l -35 0 z "},"Ц":{"ha":1029,"x_min":14,"x_max":1003,"o":"m 775 0 l 14 0 l 19 21 l 125 60 l 267 858 l 160 896 l 164 917 l 469 917 l 467 896 l 361 857 l 219 54 l 660 54 l 801 858 l 693 896 l 697 917 l 1003 917 l 1000 896 l 897 857 l 754 54 l 886 54 l 838 -217 l 813 -217 l 775 0 z "},"Ч":{"ha":990,"x_min":118,"x_max":976,"o":"m 521 0 l 524 21 l 629 60 l 696 432 q 589 405 646 417 q 464 393 532 393 q 294 422 361 393 q 200 517 226 451 q 193 694 174 583 l 222 858 l 118 896 l 124 917 l 429 917 l 425 896 l 317 857 l 288 693 q 308 506 264 561 q 471 451 353 451 q 704 486 606 451 l 771 858 l 665 896 l 669 917 l 976 917 l 971 896 l 865 857 l 724 58 l 831 21 l 826 0 l 521 0 z "},"Ш":{"ha":1386,"x_min":14,"x_max":1372,"o":"m 469 917 l 467 896 l 361 857 l 219 54 l 578 54 l 719 858 l 611 896 l 615 917 l 921 917 l 918 896 l 814 857 l 672 54 l 1029 54 l 1171 858 l 1063 896 l 1067 917 l 1372 917 l 1369 896 l 1265 857 l 1125 58 l 1228 21 l 1224 0 l 14 0 l 19 21 l 125 60 l 267 858 l 160 896 l 164 917 l 469 917 z "},"Щ":{"ha":1399,"x_min":14,"x_max":1372,"o":"m 469 917 l 467 896 l 361 857 l 219 54 l 578 54 l 719 858 l 611 896 l 615 917 l 921 917 l 918 896 l 814 857 l 672 54 l 1029 54 l 1171 858 l 1063 896 l 1067 917 l 1372 917 l 1369 896 l 1265 857 l 1124 54 l 1256 54 l 1207 -217 l 1182 -217 l 1146 0 l 14 0 l 19 21 l 125 60 l 267 858 l 160 896 l 164 917 l 469 917 z "},"Ъ":{"ha":943,"x_min":97,"x_max":849,"o":"m 617 917 l 614 896 l 485 857 l 428 531 l 553 531 q 774 467 700 531 q 849 300 849 403 q 805 149 849 217 q 674 40 761 81 q 453 0 586 0 l 142 0 l 144 21 l 249 58 l 390 863 l 226 863 l 119 656 l 97 656 l 143 917 l 617 917 m 343 54 l 468 54 q 679 123 607 54 q 751 296 751 192 q 697 428 751 381 q 535 476 643 476 l 418 476 l 343 54 z "},"Ы":{"ha":1297,"x_min":14,"x_max":1283,"o":"m 169 917 l 490 917 l 488 896 l 358 857 l 301 531 l 426 531 q 649 467 575 531 q 722 300 722 403 q 678 149 722 217 q 547 40 635 81 q 326 0 458 0 l 14 0 l 17 21 l 121 58 l 263 857 l 167 896 l 169 917 m 217 54 l 342 54 q 553 123 481 54 q 625 296 625 192 q 571 428 625 381 q 408 476 517 476 l 290 476 l 217 54 m 829 0 l 833 21 l 938 60 l 1079 858 l 982 896 l 986 917 l 1283 917 l 1279 896 l 1174 858 l 1032 60 l 1132 21 l 1128 0 l 829 0 z "},"Ь":{"ha":817,"x_min":14,"x_max":722,"o":"m 169 917 l 490 917 l 488 896 l 358 857 l 301 531 l 426 531 q 649 467 575 531 q 722 300 722 403 q 678 149 722 217 q 547 40 635 81 q 326 0 458 0 l 14 0 l 17 21 l 121 58 l 263 857 l 167 896 l 169 917 m 217 54 l 342 54 q 553 123 481 54 q 625 296 625 192 q 571 428 625 381 q 408 476 517 476 l 290 476 l 217 54 z "},"Э":{"ha":932,"x_min":76,"x_max":849,"o":"m 376 611 l 406 499 l 746 499 q 747 532 747 515 q 708 715 747 636 q 604 839 669 794 q 458 883 539 883 q 360 867 404 883 q 279 828 317 851 l 176 654 l 154 654 l 203 863 q 324 913 261 894 q 485 931 386 931 q 678 883 596 931 q 804 752 760 836 q 849 556 849 668 q 809 336 849 439 q 699 154 769 233 q 534 31 628 75 q 332 -14 440 -14 q 228 -6 271 -14 q 149 18 185 3 q 76 54 114 33 l 110 275 l 131 275 l 169 106 q 250 55 207 71 q 354 39 293 39 q 549 92 467 39 q 679 238 631 146 q 742 444 728 331 l 397 444 l 326 329 l 301 329 l 350 611 l 376 611 z "},"Ю":{"ha":1360,"x_min":14,"x_max":1276,"o":"m 14 0 l 17 21 l 121 60 l 263 858 l 158 896 l 164 917 l 469 917 l 465 896 l 357 857 l 294 501 l 472 501 q 566 719 499 622 q 731 874 633 817 q 944 931 828 931 q 1119 882 1044 931 q 1235 747 1194 833 q 1276 549 1276 661 q 1241 341 1276 442 q 1140 160 1206 240 q 986 33 1075 81 q 789 -14 897 -14 q 615 35 689 -14 q 499 169 540 83 q 458 368 458 256 q 464 447 458 408 l 285 447 l 215 58 l 324 21 l 321 0 l 14 0 m 826 33 q 964 72 900 33 q 1076 177 1028 110 q 1151 335 1124 244 q 1178 532 1178 426 q 1144 717 1178 638 q 1049 842 1110 797 q 910 886 989 886 q 769 848 833 886 q 658 742 706 810 q 583 583 610 674 q 557 388 557 493 q 591 203 557 283 q 686 78 625 124 q 826 33 747 33 z "},"Я":{"ha":906,"x_min":-29,"x_max":892,"o":"m 132 0 l -29 0 l -26 21 l 57 53 l 394 419 q 251 491 301 436 q 201 628 201 546 q 245 774 201 708 q 378 878 289 839 q 599 917 467 917 l 892 917 l 888 896 l 785 858 l 643 60 l 739 21 l 735 0 l 415 0 l 418 21 l 547 60 l 608 404 l 488 404 l 132 0 m 517 457 l 618 457 l 689 863 l 583 863 q 372 797 444 863 q 300 632 300 731 q 354 503 300 550 q 517 457 408 457 z "},"Ґ":{"ha":782,"x_min":14,"x_max":786,"o":"m 14 0 l 19 21 l 125 60 l 265 857 l 169 896 l 175 917 l 656 917 l 765 1122 l 786 1122 l 742 863 l 363 863 l 221 60 l 338 21 l 333 0 l 14 0 z "},"Қ":{"ha":944,"x_min":13,"x_max":903,"o":"m 13 0 l 17 21 l 125 60 l 265 858 l 171 896 l 175 917 l 474 917 l 468 896 l 363 858 l 294 472 l 722 857 l 628 896 l 632 917 l 903 917 l 897 896 l 818 872 l 386 493 l 740 54 l 869 54 l 821 -217 l 796 -217 l 760 0 l 657 0 l 293 467 l 221 60 l 322 21 l 318 0 l 13 0 z "},"Җ":{"ha":1343,"x_min":-56,"x_max":1315,"o":"m 108 0 l -56 0 l -53 21 l 32 53 l 536 500 l 260 871 l 182 896 l 185 917 l 456 917 l 453 896 l 343 857 l 624 471 l 692 858 l 597 896 l 601 917 l 900 917 l 896 896 l 789 858 l 721 474 l 1135 857 l 1040 896 l 1044 917 l 1315 917 l 1310 896 l 1232 874 l 810 492 l 1149 54 l 1272 54 l 1224 -217 l 1199 -217 l 1163 0 l 1069 0 l 719 465 l 647 60 l 749 21 l 744 0 l 432 0 l 436 21 l 551 60 l 624 468 l 108 0 z "},"Ҳ":{"ha":954,"x_min":-35,"x_max":969,"o":"m -35 0 l -31 21 l 85 63 l 439 463 l 238 857 l 144 896 l 149 917 l 460 917 l 456 896 l 339 864 l 338 858 l 511 519 l 794 857 l 794 863 l 686 896 l 690 917 l 969 917 l 965 896 l 875 861 l 536 471 l 749 54 l 879 54 l 832 -217 l 807 -217 l 769 0 l 510 0 l 514 21 l 640 58 l 640 64 l 464 413 l 164 64 l 164 58 l 271 21 l 267 0 l -35 0 z "},"Ң":{"ha":1051,"x_min":14,"x_max":1025,"o":"m 14 0 l 17 21 l 121 60 l 263 858 l 158 896 l 164 917 l 469 917 l 465 896 l 357 857 l 294 501 l 756 501 l 819 858 l 714 896 l 718 917 l 1025 917 l 1019 896 l 914 857 l 771 54 l 907 54 l 858 -217 l 833 -217 l 796 0 l 569 0 l 572 21 l 678 60 l 746 447 l 285 447 l 215 58 l 324 21 l 321 0 l 14 0 z "},"Ҷ":{"ha":1017,"x_min":133,"x_max":990,"o":"m 535 0 l 539 21 l 643 60 l 708 432 q 602 405 660 417 q 478 393 544 393 q 308 422 375 393 q 215 517 242 451 q 207 694 188 583 l 238 858 l 133 896 l 138 917 l 444 917 l 439 896 l 332 857 l 301 693 q 323 506 278 561 q 485 451 368 451 q 718 485 618 451 l 785 858 l 679 896 l 685 917 l 990 917 l 986 896 l 879 857 l 736 54 l 868 54 l 821 -217 l 794 -217 l 758 0 l 535 0 z "},"Ү":{"ha":933,"x_min":128,"x_max":971,"o":"m 236 0 l 240 21 l 364 63 l 431 431 l 219 858 l 128 896 l 133 917 l 438 917 l 432 896 l 322 864 l 322 858 l 504 482 l 800 857 l 800 863 l 699 896 l 704 917 l 971 917 l 967 896 l 879 864 l 525 431 l 458 63 l 571 21 l 567 0 l 236 0 z "},"Ұ":{"ha":933,"x_min":128,"x_max":971,"o":"m 236 0 l 240 21 l 364 63 l 421 378 l 232 378 l 242 432 l 429 432 l 219 858 l 128 896 l 133 917 l 438 917 l 432 896 l 322 864 l 322 858 l 504 482 l 800 857 l 800 863 l 699 896 l 704 917 l 971 917 l 967 896 l 879 864 l 526 432 l 714 432 l 704 378 l 515 378 l 458 63 l 571 21 l 567 0 l 236 0 z "},"Һ":{"ha":990,"x_min":65,"x_max":924,"o":"m 521 917 l 518 896 l 413 857 l 346 485 q 453 512 396 500 q 578 524 510 524 q 748 494 681 524 q 842 399 815 465 q 849 222 868 333 l 819 58 l 924 21 l 918 0 l 613 0 l 617 21 l 725 60 l 754 224 q 733 410 778 356 q 571 465 689 465 q 338 431 436 465 l 271 58 l 376 21 l 372 0 l 65 0 l 71 21 l 176 60 l 318 858 l 211 896 l 215 917 l 521 917 z "},"Ӏ":{"ha":481,"x_min":13,"x_max":467,"o":"m 13 0 l 17 21 l 121 60 l 263 858 l 165 896 l 169 917 l 467 917 l 463 896 l 357 858 l 215 60 l 315 21 l 311 0 l 13 0 z "},"Ә":{"ha":853,"x_min":64,"x_max":790,"o":"m 339 -14 q 133 72 203 -14 q 64 314 64 158 q 65 360 64 336 q 71 410 67 383 l 81 417 l 689 417 q 697 538 697 475 q 631 772 697 686 q 425 858 564 858 q 266 822 338 858 q 132 728 194 786 l 126 728 l 131 753 q 275 880 186 829 q 471 931 364 931 q 647 885 575 931 q 754 760 718 840 q 790 572 790 679 q 758 350 790 456 q 665 163 725 244 q 522 33 606 81 q 339 -14 439 -14 m 156 315 q 174 172 156 233 q 235 76 192 110 q 356 42 278 42 q 504 83 439 42 q 613 197 569 124 q 678 363 657 269 l 158 363 q 156 338 157 350 q 156 315 156 326 z "},"Ө":{"ha":1013,"x_min":83,"x_max":929,"o":"m 429 -14 q 247 35 325 -14 q 126 169 169 83 q 83 368 83 256 q 122 582 83 481 q 228 762 160 683 q 387 885 296 840 q 583 931 478 931 q 766 882 689 931 q 886 747 843 833 q 929 549 929 661 q 893 341 929 442 q 790 160 857 240 q 631 33 722 81 q 429 -14 539 -14 m 550 886 q 383 836 458 886 q 258 699 308 786 q 190 500 208 613 l 829 500 q 831 532 831 515 q 794 717 831 638 q 695 842 758 797 q 550 886 632 886 m 467 33 q 634 87 558 33 q 760 233 710 140 q 825 446 811 326 l 185 446 q 182 388 182 417 q 218 203 182 283 q 319 78 254 124 q 467 33 383 33 z "},"Ѣ":{"ha":943,"x_min":68,"x_max":849,"o":"m 189 706 l 89 539 l 68 539 l 107 760 l 379 760 l 396 857 l 300 896 l 303 917 l 624 917 l 619 896 l 492 857 l 475 760 l 779 760 l 739 554 l 718 554 l 679 706 l 465 706 l 425 482 l 560 482 q 776 425 703 482 q 849 275 849 368 q 806 138 849 200 q 676 38 763 75 q 460 0 589 0 l 147 0 l 150 21 l 254 58 l 369 706 l 189 706 m 349 54 l 474 54 q 680 116 608 54 q 751 271 751 178 q 699 388 751 346 q 540 429 646 429 l 415 429 l 349 54 z "},"Ѳ":{"ha":1013,"x_min":83,"x_max":929,"o":"m 429 -14 q 247 35 325 -14 q 126 169 169 83 q 83 368 83 256 q 122 582 83 481 q 228 762 160 683 q 387 885 296 840 q 583 931 478 931 q 766 882 689 931 q 886 747 843 833 q 929 549 929 661 q 893 341 929 442 q 790 160 857 240 q 631 33 722 81 q 429 -14 539 -14 m 550 886 q 377 833 454 886 q 250 685 300 779 q 186 472 200 592 q 333 519 258 513 q 481 513 408 525 q 619 488 553 501 q 739 472 685 474 q 829 494 793 469 q 831 532 831 513 q 794 717 831 638 q 695 842 758 797 q 550 886 632 886 m 467 33 q 635 88 558 33 q 762 236 711 142 q 826 451 813 331 q 698 406 765 411 q 562 412 631 400 q 426 438 493 424 q 297 456 358 453 q 183 431 235 458 q 182 388 182 410 q 218 203 182 283 q 319 78 254 124 q 467 33 383 33 z "},"Ѵ":{"ha":988,"x_min":125,"x_max":1011,"o":"m 785 686 l 414 -7 l 372 -7 l 207 863 l 125 896 l 129 917 l 422 917 l 418 896 l 307 863 l 438 149 l 443 149 l 704 674 q 768 785 738 739 q 828 860 799 831 q 900 915 865 900 q 968 931 935 931 q 1005 922 999 931 q 1007 890 1011 914 l 997 835 l 989 828 l 978 828 q 863 793 903 828 q 785 686 824 758 z "},"ȷ":{"ha":400,"x_min":-93,"x_max":285,"o":"m -93 -312 l -93 -289 q -10 -222 -46 -258 q 50 -135 25 -186 q 89 -7 75 -83 l 189 563 l 88 590 l 88 601 l 274 639 l 285 639 l 171 0 q 85 -179 153 -100 q -93 -312 17 -258 z "},"ĸ":{"ha":650,"x_min":63,"x_max":611,"o":"m 63 0 l 160 561 l 63 590 l 63 601 l 247 639 l 256 639 l 143 0 l 63 0 m 460 -14 q 402 15 424 -14 q 344 110 381 43 l 213 350 l 213 357 q 376 525 314 464 q 475 613 438 586 q 543 639 513 639 q 570 636 560 639 q 588 628 581 633 q 601 604 601 618 q 597 589 601 597 l 576 543 l 571 540 l 553 549 q 532 557 543 554 q 506 560 521 560 q 459 544 485 560 q 414 510 433 528 l 283 385 l 417 151 q 460 84 444 101 q 496 67 476 67 q 592 176 543 67 l 611 169 q 538 32 574 78 q 460 -14 503 -14 z "},"ẗ":{"ha":426,"x_min":67,"x_max":474,"o":"m 176 -14 q 112 13 133 -14 q 90 88 90 39 q 92 110 90 97 q 96 136 94 122 l 172 575 l 67 575 l 67 585 l 189 628 l 281 778 l 290 778 l 264 625 l 432 625 l 432 575 l 254 575 l 188 190 q 183 154 185 171 q 181 125 181 138 q 191 78 181 92 q 222 64 201 64 q 293 101 256 64 q 361 211 331 139 l 381 203 q 284 35 336 85 q 176 -14 232 -14 m 186 940 q 146 956 163 940 q 129 996 129 972 q 146 1036 129 1019 q 186 1053 163 1053 q 226 1036 210 1053 q 242 996 242 1019 q 226 956 242 972 q 186 940 210 940 m 417 940 q 377 956 393 940 q 361 996 361 972 q 377 1036 361 1019 q 417 1053 393 1053 q 457 1036 440 1053 q 474 996 474 1019 q 457 956 474 972 q 417 940 440 940 z "},"a":{"ha":835,"x_min":-21,"x_max":724,"o":"m -21 0 l -17 21 l 49 50 l 467 785 l 510 785 l 657 51 l 724 21 l 719 0 l 460 0 l 464 21 l 567 51 l 519 290 l 246 290 l 113 49 l 207 21 l 203 0 l -21 0 m 274 340 l 510 340 l 447 656 l 274 340 z "},"b":{"ha":719,"x_min":14,"x_max":633,"o":"m 14 0 l 18 21 l 113 57 l 233 722 l 150 757 l 154 778 l 390 778 q 568 737 503 778 q 633 613 633 696 q 587 490 633 546 q 458 411 540 435 q 590 348 546 394 q 633 231 633 301 q 594 117 633 169 q 483 32 554 64 q 314 0 411 0 l 14 0 m 386 726 l 321 726 l 267 428 l 338 428 q 491 478 439 428 q 543 600 543 528 q 386 726 543 726 m 353 376 l 257 376 l 199 51 l 321 51 q 487 102 431 51 q 543 231 543 153 q 494 342 543 307 q 353 376 446 376 z "},"c":{"ha":833,"x_min":83,"x_max":763,"o":"m 414 -14 q 172 74 261 -14 q 83 313 83 163 q 117 497 83 410 q 211 650 150 583 q 358 755 272 717 q 546 793 443 793 q 667 778 621 793 q 763 735 714 763 l 735 547 l 713 547 l 679 688 q 525 742 619 742 q 333 685 411 742 q 215 535 256 629 q 175 332 175 442 q 244 110 175 189 q 432 31 313 31 q 522 43 483 31 q 593 76 561 56 l 682 222 l 703 222 l 661 46 q 557 3 614 19 q 414 -14 500 -14 z "},"d":{"ha":878,"x_min":14,"x_max":804,"o":"m 14 0 l 18 21 l 113 60 l 233 718 l 151 757 l 156 778 l 421 778 q 710 689 615 778 q 804 458 804 600 q 747 226 804 329 q 582 61 690 122 q 319 0 474 0 l 14 0 m 397 726 l 324 726 l 200 51 l 317 51 q 617 158 522 51 q 713 446 713 265 q 635 652 713 578 q 397 726 558 726 z "},"e":{"ha":724,"x_min":14,"x_max":685,"o":"m 14 0 l 18 21 l 114 60 l 233 718 l 151 757 l 156 778 l 685 778 l 649 581 l 626 581 l 601 726 l 324 726 l 269 429 l 467 429 l 528 526 l 550 526 l 503 278 l 481 278 l 458 378 l 260 378 l 200 51 l 522 51 l 604 210 l 626 210 l 589 0 l 14 0 z "},"f":{"ha":713,"x_min":14,"x_max":682,"o":"m 14 0 l 18 21 l 114 60 l 233 718 l 150 757 l 154 778 l 682 778 l 646 581 l 624 581 l 597 726 l 322 726 l 268 429 l 460 429 l 522 526 l 543 526 l 496 278 l 475 278 l 451 378 l 260 378 l 201 60 l 303 21 l 299 0 l 14 0 z "},"g":{"ha":886,"x_min":83,"x_max":793,"o":"m 390 -14 q 228 28 297 -14 q 122 142 160 69 q 83 306 83 214 q 117 494 83 406 q 213 649 151 582 q 357 755 274 717 q 540 793 440 793 q 672 778 621 793 q 775 735 724 764 l 747 547 l 725 547 l 692 685 q 528 742 631 742 q 338 687 417 742 q 217 540 258 632 q 175 335 175 447 q 244 113 175 194 q 432 32 313 32 q 501 38 467 32 q 574 60 536 44 l 613 285 l 515 319 l 519 340 l 793 340 l 789 319 l 701 285 l 663 71 q 542 8 611 31 q 390 -14 472 -14 z "},"h":{"ha":911,"x_min":14,"x_max":897,"o":"m 14 0 l 18 21 l 107 60 l 226 718 l 139 757 l 143 778 l 414 778 l 410 757 l 314 718 l 261 429 l 660 429 l 713 718 l 622 757 l 628 778 l 897 778 l 893 757 l 800 718 l 681 60 l 772 21 l 768 0 l 497 0 l 501 21 l 592 60 l 650 378 l 253 378 l 194 60 l 289 21 l 285 0 l 14 0 z "},"i":{"ha":419,"x_min":14,"x_max":406,"o":"m 14 0 l 18 21 l 106 60 l 224 718 l 142 757 l 146 778 l 406 778 l 401 757 l 311 718 l 194 60 l 278 21 l 274 0 l 14 0 z "},"ı":{"ha":419,"x_min":14,"x_max":406,"o":"m 14 0 l 18 21 l 106 60 l 224 718 l 142 757 l 146 778 l 406 778 l 401 757 l 311 718 l 194 60 l 278 21 l 274 0 l 14 0 z "},"j":{"ha":413,"x_min":-89,"x_max":406,"o":"m -51 -204 q -78 -192 -68 -204 q -82 -158 -89 -181 l -64 -106 l -57 -106 q -33 -112 -42 -110 q -10 -115 -24 -115 q 38 -101 17 -115 q 75 -49 58 -87 q 104 61 92 -11 l 222 718 l 142 757 l 146 778 l 406 778 l 401 757 l 310 718 l 229 265 q 169 26 204 125 q 81 -124 133 -72 q 4 -188 31 -172 q -51 -204 -22 -204 z "},"k":{"ha":811,"x_min":14,"x_max":789,"o":"m 14 0 l 18 21 l 111 60 l 229 718 l 149 757 l 153 778 l 417 778 l 413 757 l 318 718 l 199 60 l 288 21 l 283 0 l 14 0 m 560 0 l 261 399 l 613 722 l 536 757 l 540 778 l 789 778 l 783 757 l 707 731 l 350 417 l 631 56 l 708 21 l 704 0 l 560 0 z "},"l":{"ha":713,"x_min":14,"x_max":606,"o":"m 14 0 l 18 21 l 111 60 l 231 718 l 149 757 l 153 778 l 429 778 l 425 757 l 318 718 l 199 51 l 486 51 l 585 253 l 606 253 l 560 0 l 14 0 z "},"m":{"ha":1086,"x_min":14,"x_max":1072,"o":"m 14 0 l 18 21 l 113 60 l 256 719 l 161 757 l 165 778 l 367 778 l 513 140 l 875 778 l 1072 778 l 1068 757 l 969 718 l 888 60 l 960 21 l 956 0 l 704 0 l 708 21 l 797 60 l 876 671 l 489 -6 l 453 -6 l 299 679 l 171 60 l 254 21 l 250 0 l 14 0 z "},"n":{"ha":903,"x_min":14,"x_max":892,"o":"m 14 0 l 18 21 l 113 60 l 233 718 l 143 757 l 147 778 l 315 778 l 640 163 l 739 719 l 635 757 l 639 778 l 892 778 l 888 757 l 796 719 l 667 -6 l 632 -6 l 278 657 l 171 61 l 271 21 l 267 0 l 14 0 z "},"o":{"ha":907,"x_min":83,"x_max":824,"o":"m 388 -14 q 227 28 296 -14 q 121 143 158 69 q 83 314 83 217 q 117 499 83 413 q 209 652 150 586 q 348 756 268 718 q 519 793 428 793 q 679 751 611 793 q 785 637 747 710 q 824 467 824 564 q 792 286 824 372 q 703 132 761 200 q 565 25 644 64 q 388 -14 485 -14 m 413 35 q 578 90 506 35 q 691 240 650 146 q 732 453 732 335 q 672 665 732 583 q 496 746 611 746 q 331 690 403 746 q 217 541 258 635 q 175 329 175 447 q 236 117 175 199 q 413 35 297 35 z "},"p":{"ha":714,"x_min":14,"x_max":672,"o":"m 14 0 l 17 21 l 111 60 l 231 718 l 150 757 l 154 778 l 396 778 q 597 732 521 778 q 672 590 672 686 q 634 465 672 521 q 526 375 596 408 q 360 342 456 342 l 250 342 l 199 60 l 300 21 l 296 0 l 14 0 m 321 726 l 260 393 l 358 393 q 525 445 471 393 q 579 582 579 497 q 527 690 579 654 q 390 726 475 726 l 321 726 z "},"q":{"ha":935,"x_min":83,"x_max":894,"o":"m 715 -206 q 610 -191 668 -206 q 483 -135 553 -176 q 328 -8 413 -93 q 149 99 215 11 q 83 314 83 186 q 117 499 83 413 q 209 652 150 586 q 348 756 268 718 q 519 793 428 793 q 679 751 611 793 q 785 637 747 710 q 824 467 824 564 q 777 249 824 351 q 647 78 731 147 q 451 -10 563 8 q 591 -105 531 -72 q 701 -149 651 -137 q 799 -160 750 -160 q 853 -155 828 -160 q 894 -143 879 -150 l 890 -169 q 812 -195 858 -185 q 715 -206 765 -206 m 413 35 q 578 90 506 35 q 691 240 650 146 q 732 453 732 335 q 672 665 732 583 q 496 746 611 746 q 331 690 403 746 q 217 541 258 635 q 175 329 175 447 q 236 117 175 199 q 413 35 297 35 z "},"r":{"ha":725,"x_min":14,"x_max":657,"o":"m 14 0 l 17 21 l 111 60 l 231 718 l 149 757 l 153 778 l 388 778 q 567 732 503 778 q 632 606 632 686 q 582 465 632 524 q 438 382 532 406 l 588 51 l 657 21 l 653 0 l 513 0 l 351 367 l 254 367 l 199 60 l 278 21 l 274 0 l 14 0 m 382 726 l 319 726 l 264 418 l 353 418 q 492 472 444 418 q 539 594 539 525 q 501 691 539 656 q 382 726 464 726 z "},"s":{"ha":571,"x_min":0,"x_max":529,"o":"m 204 -14 q 91 0 136 -14 q 0 40 46 14 l 22 222 l 46 222 l 79 86 q 140 49 103 64 q 219 33 176 33 q 351 78 307 33 q 396 197 396 124 q 376 272 396 242 q 322 326 357 301 q 240 379 288 350 q 140 462 172 421 q 108 565 108 503 q 140 678 108 626 q 228 762 172 731 q 353 793 283 793 q 447 780 404 793 q 529 743 489 767 l 507 567 l 485 567 l 456 697 q 408 731 438 717 q 339 746 379 746 q 231 708 275 746 q 186 603 186 669 q 213 515 186 550 q 311 438 239 481 q 434 344 393 389 q 475 222 475 299 q 440 102 475 156 q 344 17 406 49 q 204 -14 283 -14 z "},"t":{"ha":789,"x_min":104,"x_max":817,"o":"m 179 0 l 183 21 l 307 60 l 429 726 l 215 726 l 125 554 l 104 554 l 146 778 l 817 778 l 778 554 l 756 554 l 731 726 l 518 726 l 396 60 l 507 21 l 503 0 l 179 0 z "},"u":{"ha":942,"x_min":174,"x_max":938,"o":"m 431 -12 q 248 43 319 -12 q 176 219 176 99 q 185 301 176 258 l 260 719 l 174 757 l 178 778 l 451 778 l 447 757 l 349 719 l 276 319 q 268 231 268 269 q 319 86 268 129 q 450 43 369 43 q 616 105 551 43 q 700 278 681 167 l 779 718 l 675 757 l 679 778 l 938 778 l 933 757 l 839 718 l 764 301 q 647 62 733 136 q 431 -12 561 -12 z "},"v":{"ha":819,"x_min":125,"x_max":853,"o":"m 332 -6 l 197 725 l 125 757 l 129 778 l 394 778 l 390 757 l 288 726 l 392 136 l 399 136 l 714 729 l 619 757 l 624 778 l 853 778 l 849 757 l 778 728 l 374 -6 l 332 -6 z "},"w":{"ha":1157,"x_min":125,"x_max":1203,"o":"m 281 -6 l 196 728 l 125 757 l 129 778 l 389 778 l 385 757 l 289 726 l 347 163 l 354 163 l 661 785 l 701 785 l 801 163 l 807 163 l 1060 728 l 969 757 l 974 778 l 1203 778 l 1199 757 l 1126 726 l 782 -6 l 742 -6 l 640 608 l 633 608 l 322 -6 l 281 -6 z "},"x":{"ha":828,"x_min":-35,"x_max":849,"o":"m -35 0 l -31 21 l 74 60 l 379 394 l 210 721 l 125 757 l 129 778 l 410 778 l 406 757 l 308 726 l 308 722 l 451 447 l 686 722 l 686 726 l 592 757 l 597 778 l 849 778 l 844 757 l 764 728 l 475 403 l 654 57 l 743 19 l 739 0 l 443 0 l 447 19 l 554 53 l 556 57 l 403 350 l 149 60 l 149 57 l 242 21 l 238 0 l -35 0 z "},"y":{"ha":828,"x_min":128,"x_max":865,"o":"m 222 0 l 226 21 l 335 60 l 390 365 l 208 724 l 128 757 l 132 778 l 403 778 l 399 757 l 304 729 l 304 725 l 460 414 l 708 722 l 708 726 l 622 757 l 626 778 l 865 778 l 861 757 l 782 726 l 478 365 l 424 60 l 519 21 l 515 0 l 222 0 z "},"z":{"ha":764,"x_min":49,"x_max":715,"o":"m 49 0 l 53 32 l 590 726 l 269 726 l 186 572 l 164 572 l 201 778 l 715 778 l 710 746 l 171 51 l 524 51 l 610 218 l 631 218 l 590 0 l 49 0 z "},"à":{"ha":835,"x_min":-21,"x_max":724,"o":"m -21 0 l -17 21 l 49 50 l 467 785 l 510 785 l 657 51 l 724 21 l 719 0 l 460 0 l 464 21 l 567 51 l 519 290 l 246 290 l 113 49 l 207 21 l 203 0 l -21 0 m 274 340 l 510 340 l 447 656 l 274 340 m 494 882 l 325 1053 q 303 1090 306 1071 q 306 1128 300 1110 l 379 1128 l 508 882 l 494 882 z "},"á":{"ha":835,"x_min":-21,"x_max":733,"o":"m -21 0 l -17 21 l 49 50 l 467 785 l 510 785 l 657 51 l 724 21 l 719 0 l 460 0 l 464 21 l 567 51 l 519 290 l 246 290 l 113 49 l 207 21 l 203 0 l -21 0 m 274 340 l 510 340 l 447 656 l 274 340 m 497 882 l 647 1128 l 733 1128 q 717 1090 729 1107 q 682 1050 706 1074 l 511 882 l 497 882 z "},"â":{"ha":835,"x_min":-21,"x_max":724,"o":"m -21 0 l -17 21 l 49 50 l 467 785 l 510 785 l 657 51 l 724 21 l 719 0 l 460 0 l 464 21 l 567 51 l 519 290 l 246 290 l 113 49 l 207 21 l 203 0 l -21 0 m 274 340 l 510 340 l 447 656 l 274 340 m 317 882 l 531 1128 l 561 1128 l 688 882 l 674 882 l 531 1038 l 331 882 l 317 882 z "},"ã":{"ha":835,"x_min":-21,"x_max":731,"o":"m -21 0 l -17 21 l 49 50 l 467 785 l 510 785 l 657 51 l 724 21 l 719 0 l 460 0 l 464 21 l 567 51 l 519 290 l 246 290 l 113 49 l 207 21 l 203 0 l -21 0 m 274 340 l 510 340 l 447 656 l 274 340 m 318 918 q 373 1028 350 990 q 416 1078 396 1065 q 460 1090 436 1090 q 503 1074 485 1090 q 539 1034 522 1057 q 573 994 556 1011 q 611 978 590 978 q 658 1002 636 978 q 713 1090 679 1026 l 731 1090 q 676 981 699 1018 q 633 931 653 943 q 589 918 613 918 q 545 935 564 918 q 510 974 526 951 q 476 1014 493 997 q 438 1031 458 1031 q 391 1006 413 1031 q 336 918 369 982 l 318 918 z "},"ä":{"ha":835,"x_min":-21,"x_max":724,"o":"m -21 0 l -17 21 l 49 50 l 467 785 l 510 785 l 657 51 l 724 21 l 719 0 l 460 0 l 464 21 l 567 51 l 519 290 l 246 290 l 113 49 l 207 21 l 203 0 l -21 0 m 274 340 l 510 340 l 447 656 l 274 340 m 408 947 q 368 963 385 947 q 351 1003 351 979 q 368 1043 351 1026 q 408 1060 385 1060 q 448 1043 432 1060 q 464 1003 464 1026 q 448 963 464 979 q 408 947 432 947 m 639 947 q 599 963 615 947 q 583 1003 583 979 q 599 1043 583 1026 q 639 1060 615 1060 q 679 1043 663 1060 q 696 1003 696 1026 q 679 963 696 979 q 639 947 663 947 z "},"ā":{"ha":835,"x_min":-21,"x_max":724,"o":"m -21 0 l -17 21 l 49 50 l 467 785 l 510 785 l 657 51 l 724 21 l 719 0 l 460 0 l 464 21 l 567 51 l 519 290 l 246 290 l 113 49 l 207 21 l 203 0 l -21 0 m 274 340 l 510 340 l 447 656 l 274 340 m 347 978 l 357 1028 l 699 1028 l 689 978 l 347 978 z "},"ă":{"ha":835,"x_min":-21,"x_max":728,"o":"m -21 0 l -17 21 l 49 50 l 467 785 l 510 785 l 657 51 l 724 21 l 719 0 l 460 0 l 464 21 l 567 51 l 519 290 l 246 290 l 113 49 l 207 21 l 203 0 l -21 0 m 274 340 l 510 340 l 447 656 l 274 340 m 507 896 q 390 956 421 896 q 357 1128 360 1015 l 371 1128 q 400 1018 382 1054 q 446 969 418 982 q 515 957 474 957 q 588 970 556 957 q 649 1020 619 983 q 714 1128 679 1057 l 728 1128 q 636 953 688 1010 q 507 896 585 896 z "},"å":{"ha":835,"x_min":-21,"x_max":724,"o":"m -21 0 l -17 21 l 49 50 l 467 785 l 510 785 l 657 51 l 724 21 l 719 0 l 460 0 l 464 21 l 567 51 l 519 290 l 246 290 l 113 49 l 207 21 l 203 0 l -21 0 m 274 340 l 510 340 l 447 656 l 274 340 m 506 893 q 436 919 458 893 q 414 985 414 944 q 450 1077 414 1038 q 543 1117 486 1117 q 611 1091 588 1117 q 635 1025 635 1065 q 599 933 635 974 q 506 893 564 893 m 513 919 q 565 950 546 919 q 583 1024 583 981 q 574 1072 583 1053 q 536 1092 564 1092 q 484 1063 504 1092 q 464 986 464 1033 q 474 938 464 956 q 513 919 485 919 z "},"ǻ":{"ha":835,"x_min":-21,"x_max":788,"o":"m -21 0 l -17 21 l 49 50 l 467 785 l 510 785 l 657 51 l 724 21 l 719 0 l 460 0 l 464 21 l 567 51 l 519 290 l 246 290 l 113 49 l 207 21 l 203 0 l -21 0 m 274 340 l 510 340 l 447 656 l 274 340 m 506 893 q 436 919 458 893 q 414 985 414 944 q 450 1077 414 1038 q 543 1117 486 1117 q 611 1091 588 1117 q 635 1025 635 1065 q 599 933 635 974 q 506 893 564 893 m 513 919 q 565 950 546 919 q 583 1024 583 981 q 574 1072 583 1053 q 536 1092 564 1092 q 484 1063 504 1092 q 464 986 464 1033 q 474 938 464 956 q 513 919 485 919 m 551 1192 l 701 1438 l 788 1438 q 772 1400 783 1417 q 736 1360 760 1383 l 565 1192 l 551 1192 z "},"ạ":{"ha":835,"x_min":-21,"x_max":724,"o":"m -21 0 l -17 21 l 49 50 l 467 785 l 510 785 l 657 51 l 724 21 l 719 0 l 460 0 l 464 21 l 567 51 l 519 290 l 246 290 l 113 49 l 207 21 l 203 0 l -21 0 m 274 340 l 510 340 l 447 656 l 274 340 m 308 -275 q 263 -257 281 -275 q 244 -211 244 -239 q 263 -165 244 -183 q 308 -147 281 -147 q 354 -165 336 -147 q 372 -211 372 -183 q 354 -257 372 -239 q 308 -275 336 -275 z "},"ą":{"ha":835,"x_min":-21,"x_max":724,"o":"m -21 0 l -17 21 l 49 50 l 467 785 l 510 785 l 657 51 l 724 21 l 719 0 l 621 0 q 534 -109 564 -60 q 504 -210 504 -158 q 588 -287 504 -287 q 624 -282 604 -287 q 661 -265 643 -276 l 665 -265 l 663 -282 q 615 -319 644 -306 q 550 -333 586 -333 q 469 -305 500 -333 q 438 -226 438 -276 q 481 -114 438 -169 q 589 0 524 -58 l 460 0 l 464 21 l 567 51 l 519 290 l 246 290 l 113 49 l 207 21 l 203 0 l -21 0 m 274 340 l 510 340 l 447 656 l 274 340 z "},"ȁ":{"ha":835,"x_min":-21,"x_max":724,"o":"m -21 0 l -17 21 l 49 50 l 467 785 l 510 785 l 657 51 l 724 21 l 719 0 l 460 0 l 464 21 l 567 51 l 519 290 l 246 290 l 113 49 l 207 21 l 203 0 l -21 0 m 274 340 l 510 340 l 447 656 l 274 340 m 565 882 l 436 1043 q 412 1088 417 1069 q 410 1128 407 1107 l 474 1128 l 579 882 l 565 882 m 415 882 l 274 1043 q 247 1088 251 1068 q 246 1128 242 1108 l 308 1128 l 429 882 l 415 882 z "},"ȃ":{"ha":835,"x_min":-21,"x_max":724,"o":"m -21 0 l -17 21 l 49 50 l 467 785 l 510 785 l 657 51 l 724 21 l 719 0 l 460 0 l 464 21 l 567 51 l 519 290 l 246 290 l 113 49 l 207 21 l 203 0 l -21 0 m 274 340 l 510 340 l 447 656 l 274 340 m 317 896 q 408 1071 356 1014 q 538 1128 460 1128 q 653 1068 622 1128 q 686 896 683 1008 l 672 896 q 643 1005 661 968 q 597 1054 625 1042 q 529 1067 569 1067 q 457 1053 489 1067 q 394 1004 425 1040 q 331 896 364 968 l 317 896 z "},"ắ":{"ha":835,"x_min":-21,"x_max":739,"o":"m -21 0 l -17 21 l 49 50 l 467 785 l 510 785 l 657 51 l 724 21 l 719 0 l 460 0 l 464 21 l 567 51 l 519 290 l 246 290 l 113 49 l 207 21 l 203 0 l -21 0 m 274 340 l 510 340 l 447 656 l 274 340 z "},"ặ":{"ha":835,"x_min":-21,"x_max":728,"o":"m -21 0 l -17 21 l 49 50 l 467 785 l 510 785 l 657 51 l 724 21 l 719 0 l 460 0 l 464 21 l 567 51 l 519 290 l 246 290 l 113 49 l 207 21 l 203 0 l -21 0 m 274 340 l 510 340 l 447 656 l 274 340 m 507 896 q 390 956 421 896 q 357 1128 360 1015 l 371 1128 q 400 1018 382 1054 q 446 969 418 982 q 515 957 474 957 q 588 970 556 957 q 649 1020 619 983 q 714 1128 679 1057 l 728 1128 q 636 953 688 1010 q 507 896 585 896 m 308 -275 q 263 -257 281 -275 q 244 -211 244 -239 q 263 -165 244 -183 q 308 -147 281 -147 q 354 -165 336 -147 q 372 -211 372 -183 q 354 -257 372 -239 q 308 -275 336 -275 z "},"ằ":{"ha":835,"x_min":-21,"x_max":728,"o":"m -21 0 l -17 21 l 49 50 l 467 785 l 510 785 l 657 51 l 724 21 l 719 0 l 460 0 l 464 21 l 567 51 l 519 290 l 246 290 l 113 49 l 207 21 l 203 0 l -21 0 m 274 340 l 510 340 l 447 656 l 274 340 z "},"ẳ":{"ha":835,"x_min":-21,"x_max":728,"o":"m -21 0 l -17 21 l 49 50 l 467 785 l 510 785 l 657 51 l 724 21 l 719 0 l 460 0 l 464 21 l 567 51 l 519 290 l 246 290 l 113 49 l 207 21 l 203 0 l -21 0 m 274 340 l 510 340 l 447 656 l 274 340 z "},"ẵ":{"ha":835,"x_min":-21,"x_max":767,"o":"m -21 0 l -17 21 l 49 50 l 467 785 l 510 785 l 657 51 l 724 21 l 719 0 l 460 0 l 464 21 l 567 51 l 519 290 l 246 290 l 113 49 l 207 21 l 203 0 l -21 0 m 274 340 l 510 340 l 447 656 l 274 340 z "},"ấ":{"ha":835,"x_min":-21,"x_max":860,"o":"m -21 0 l -17 21 l 49 50 l 467 785 l 510 785 l 657 51 l 724 21 l 719 0 l 460 0 l 464 21 l 567 51 l 519 290 l 246 290 l 113 49 l 207 21 l 203 0 l -21 0 m 274 340 l 510 340 l 447 656 l 274 340 m 678 1031 l 775 1229 l 860 1229 q 844 1192 856 1208 q 810 1153 833 1175 l 690 1031 l 678 1031 m 317 882 l 531 1128 l 561 1128 l 689 882 l 675 882 l 531 1038 l 331 882 l 317 882 z "},"ậ":{"ha":835,"x_min":-21,"x_max":724,"o":"m -21 0 l -17 21 l 49 50 l 467 785 l 510 785 l 657 51 l 724 21 l 719 0 l 460 0 l 464 21 l 567 51 l 519 290 l 246 290 l 113 49 l 207 21 l 203 0 l -21 0 m 274 340 l 510 340 l 447 656 l 274 340 m 317 882 l 531 1128 l 561 1128 l 688 882 l 674 882 l 531 1038 l 331 882 l 317 882 m 308 -275 q 263 -257 281 -275 q 244 -211 244 -239 q 263 -165 244 -183 q 308 -147 281 -147 q 354 -165 336 -147 q 372 -211 372 -183 q 354 -257 372 -239 q 308 -275 336 -275 z "},"ầ":{"ha":835,"x_min":-21,"x_max":724,"o":"m -21 0 l -17 21 l 49 50 l 467 785 l 510 785 l 657 51 l 724 21 l 719 0 l 460 0 l 464 21 l 567 51 l 519 290 l 246 290 l 113 49 l 207 21 l 203 0 l -21 0 m 274 340 l 510 340 l 447 656 l 274 340 m 346 1031 l 224 1151 q 194 1229 185 1188 l 267 1229 l 360 1031 l 346 1031 m 317 882 l 531 1128 l 561 1128 l 689 882 l 675 882 l 531 1038 l 331 882 l 317 882 z "},"ẩ":{"ha":835,"x_min":-21,"x_max":724,"o":"m -21 0 l -17 21 l 49 50 l 467 785 l 510 785 l 657 51 l 724 21 l 719 0 l 460 0 l 464 21 l 567 51 l 519 290 l 246 290 l 113 49 l 207 21 l 203 0 l -21 0 m 274 340 l 510 340 l 447 656 l 274 340 z "},"ẫ":{"ha":835,"x_min":-21,"x_max":779,"o":"m -21 0 l -17 21 l 49 50 l 467 785 l 510 785 l 657 51 l 724 21 l 719 0 l 460 0 l 464 21 l 567 51 l 519 290 l 246 290 l 113 49 l 207 21 l 203 0 l -21 0 m 274 340 l 510 340 l 447 656 l 274 340 z "},"ả":{"ha":835,"x_min":-21,"x_max":724,"o":"m -21 0 l -17 21 l 49 50 l 467 785 l 510 785 l 657 51 l 724 21 l 719 0 l 460 0 l 464 21 l 567 51 l 519 290 l 246 290 l 113 49 l 207 21 l 203 0 l -21 0 m 274 340 l 510 340 l 447 656 l 274 340 m 442 896 l 442 897 q 535 938 504 915 q 565 1000 565 960 q 543 1048 565 1028 q 465 1076 521 1068 l 485 1128 q 587 1090 557 1121 q 617 1022 617 1058 q 449 888 617 922 l 442 896 z "},"æ":{"ha":1121,"x_min":-21,"x_max":1082,"o":"m -21 0 l -17 21 l 51 50 l 631 778 l 1082 778 l 1046 581 l 1024 581 l 999 726 l 721 726 l 667 429 l 864 429 l 925 526 l 947 526 l 900 278 l 878 278 l 856 378 l 657 378 l 597 51 l 919 51 l 1001 210 l 1024 210 l 986 0 l 411 0 l 415 21 l 511 60 l 553 290 l 311 290 l 122 49 l 210 21 l 206 0 l -21 0 m 350 340 l 563 340 l 626 696 l 350 340 z "},"ǽ":{"ha":1121,"x_min":-21,"x_max":1082,"o":"m -21 0 l -17 21 l 51 50 l 631 778 l 1082 778 l 1046 581 l 1024 581 l 999 726 l 721 726 l 667 429 l 864 429 l 925 526 l 947 526 l 900 278 l 878 278 l 856 378 l 657 378 l 597 51 l 919 51 l 1001 210 l 1024 210 l 986 0 l 411 0 l 415 21 l 511 60 l 553 290 l 311 290 l 122 49 l 210 21 l 206 0 l -21 0 m 350 340 l 563 340 l 626 696 l 350 340 m 710 882 l 860 1128 l 946 1128 q 930 1090 942 1107 q 894 1050 918 1074 l 724 882 l 710 882 z "},"ć":{"ha":833,"x_min":83,"x_max":783,"o":"m 414 -14 q 172 74 261 -14 q 83 313 83 163 q 117 497 83 410 q 211 650 150 583 q 358 755 272 717 q 546 793 443 793 q 667 778 621 793 q 763 735 714 763 l 735 547 l 713 547 l 679 688 q 525 742 619 742 q 333 685 411 742 q 215 535 256 629 q 175 332 175 442 q 244 110 175 189 q 432 31 313 31 q 522 43 483 31 q 593 76 561 56 l 682 222 l 703 222 l 661 46 q 557 3 614 19 q 414 -14 500 -14 m 547 882 l 697 1128 l 783 1128 q 767 1090 779 1107 q 732 1050 756 1074 l 561 882 l 547 882 z "},"ĉ":{"ha":833,"x_min":83,"x_max":763,"o":"m 414 -14 q 172 74 261 -14 q 83 313 83 163 q 117 497 83 410 q 211 650 150 583 q 358 755 272 717 q 546 793 443 793 q 667 778 621 793 q 763 735 714 763 l 735 547 l 713 547 l 679 688 q 525 742 619 742 q 333 685 411 742 q 215 535 256 629 q 175 332 175 442 q 244 110 175 189 q 432 31 313 31 q 522 43 483 31 q 593 76 561 56 l 682 222 l 703 222 l 661 46 q 557 3 614 19 q 414 -14 500 -14 m 365 882 l 579 1128 l 610 1128 l 736 882 l 722 882 l 579 1038 l 379 882 l 365 882 z "},"č":{"ha":833,"x_min":83,"x_max":781,"o":"m 414 -14 q 172 74 261 -14 q 83 313 83 163 q 117 497 83 410 q 211 650 150 583 q 358 755 272 717 q 546 793 443 793 q 667 778 621 793 q 763 735 714 763 l 735 547 l 713 547 l 679 688 q 525 742 619 742 q 333 685 411 742 q 215 535 256 629 q 175 332 175 442 q 244 110 175 189 q 432 31 313 31 q 522 43 483 31 q 593 76 561 56 l 682 222 l 703 222 l 661 46 q 557 3 614 19 q 414 -14 500 -14 m 539 882 l 410 1128 l 424 1128 l 567 972 l 767 1128 l 781 1128 l 569 882 l 539 882 z "},"ċ":{"ha":833,"x_min":83,"x_max":763,"o":"m 414 -14 q 172 74 261 -14 q 83 313 83 163 q 117 497 83 410 q 211 650 150 583 q 358 755 272 717 q 546 793 443 793 q 667 778 621 793 q 763 735 714 763 l 735 547 l 713 547 l 679 688 q 525 742 619 742 q 333 685 411 742 q 215 535 256 629 q 175 332 175 442 q 244 110 175 189 q 432 31 313 31 q 522 43 483 31 q 593 76 561 56 l 682 222 l 703 222 l 661 46 q 557 3 614 19 q 414 -14 500 -14 m 575 940 q 529 958 549 940 q 510 1004 510 976 q 529 1050 510 1032 q 575 1068 549 1068 q 620 1050 601 1068 q 639 1004 639 1032 q 620 958 639 976 q 575 940 601 940 z "},"ç":{"ha":833,"x_min":83,"x_max":763,"o":"m 414 -14 l 413 -14 l 367 -87 q 464 -135 432 -106 q 496 -214 496 -164 q 456 -300 496 -267 q 351 -333 415 -333 q 294 -324 322 -333 q 253 -299 267 -315 l 256 -285 l 260 -285 q 343 -306 297 -306 q 412 -286 386 -306 q 438 -231 438 -267 q 408 -171 438 -192 q 306 -132 379 -150 l 381 -12 q 163 84 242 -3 q 83 313 83 171 q 117 497 83 410 q 211 650 150 583 q 358 755 272 717 q 546 793 443 793 q 667 778 621 793 q 763 735 714 763 l 735 547 l 713 547 l 679 688 q 525 742 619 742 q 333 685 411 742 q 215 535 256 629 q 175 332 175 442 q 244 110 175 189 q 432 31 313 31 q 522 43 483 31 q 593 76 561 56 l 682 222 l 703 222 l 661 46 q 557 3 614 19 q 414 -14 500 -14 z "},"ḉ":{"ha":833,"x_min":83,"x_max":782,"o":"m 546 882 l 697 1128 l 782 1128 q 767 1090 779 1107 q 732 1050 756 1072 l 560 882 l 546 882 m 360 -333 q 302 -324 329 -333 q 261 -299 275 -315 l 264 -285 l 268 -285 q 351 -306 306 -306 q 420 -286 394 -306 q 446 -231 446 -267 q 416 -171 446 -192 q 313 -132 386 -150 l 388 -12 q 165 82 246 -6 q 83 313 83 169 q 117 497 83 410 q 211 650 150 583 q 358 755 272 717 q 546 793 443 793 q 667 778 621 793 q 763 735 714 763 l 735 547 l 713 547 l 679 688 q 525 742 619 742 q 333 685 411 742 q 215 535 256 629 q 175 332 175 442 q 244 110 175 189 q 432 31 313 31 q 522 43 483 31 q 593 76 561 56 l 682 222 l 703 222 l 661 46 q 558 3 614 19 q 421 -14 503 -14 l 375 -87 q 471 -135 439 -106 q 503 -214 503 -164 q 463 -300 503 -267 q 360 -333 422 -333 z "},"ď":{"ha":878,"x_min":14,"x_max":804,"o":"m 14 0 l 18 21 l 113 60 l 233 718 l 151 757 l 156 778 l 421 778 q 710 689 615 778 q 804 458 804 600 q 747 226 804 329 q 582 61 690 122 q 319 0 474 0 l 14 0 m 397 726 l 324 726 l 200 51 l 317 51 q 617 158 522 51 q 713 446 713 265 q 635 652 713 578 q 397 726 558 726 m 476 882 l 347 1128 l 361 1128 l 504 972 l 704 1128 l 718 1128 l 507 882 l 476 882 z "},"đ":{"ha":878,"x_min":14,"x_max":804,"o":"m 14 0 l 18 21 l 113 60 l 171 381 l 82 381 l 92 428 l 181 428 l 233 718 l 151 757 l 156 778 l 421 778 q 710 689 615 778 q 804 458 804 600 q 747 226 804 329 q 582 61 690 122 q 319 0 474 0 l 14 0 m 471 381 l 260 381 l 200 51 l 317 51 q 617 158 522 51 q 713 446 713 265 q 635 652 713 578 q 397 726 558 726 l 324 726 l 269 428 l 481 428 l 471 381 z "},"ḍ":{"ha":878,"x_min":14,"x_max":804,"o":"m 14 0 l 18 21 l 113 60 l 233 718 l 151 757 l 156 778 l 421 778 q 710 689 615 778 q 804 458 804 600 q 747 226 804 329 q 582 61 690 122 q 319 0 474 0 l 14 0 m 397 726 l 324 726 l 200 51 l 317 51 q 617 158 522 51 q 713 446 713 265 q 635 652 713 578 q 397 726 558 726 m 336 -275 q 290 -257 308 -275 q 272 -211 272 -239 q 290 -165 272 -183 q 336 -147 308 -147 q 382 -165 364 -147 q 400 -211 400 -183 q 382 -257 400 -239 q 336 -275 364 -275 z "},"ḏ":{"ha":878,"x_min":14,"x_max":804,"o":"m 14 0 l 18 21 l 113 60 l 233 718 l 151 757 l 156 778 l 421 778 q 710 689 615 778 q 804 458 804 600 q 747 226 804 329 q 582 61 690 122 q 319 0 474 0 l 14 0 m 397 726 l 324 726 l 200 51 l 317 51 q 617 158 522 51 q 713 446 713 265 q 635 652 713 578 q 397 726 558 726 m 160 -232 l 169 -182 l 511 -182 l 503 -232 l 160 -232 z "},"è":{"ha":724,"x_min":14,"x_max":685,"o":"m 14 0 l 18 21 l 114 60 l 233 718 l 151 757 l 156 778 l 685 778 l 649 581 l 626 581 l 601 726 l 324 726 l 269 429 l 467 429 l 528 526 l 550 526 l 503 278 l 481 278 l 458 378 l 260 378 l 200 51 l 522 51 l 604 210 l 626 210 l 589 0 l 14 0 m 464 882 l 294 1053 q 272 1090 275 1071 q 275 1128 269 1110 l 349 1128 l 478 882 l 464 882 z "},"é":{"ha":724,"x_min":14,"x_max":703,"o":"m 14 0 l 18 21 l 114 60 l 233 718 l 151 757 l 156 778 l 685 778 l 649 581 l 626 581 l 601 726 l 324 726 l 269 429 l 467 429 l 528 526 l 550 526 l 503 278 l 481 278 l 458 378 l 260 378 l 200 51 l 522 51 l 604 210 l 626 210 l 589 0 l 14 0 m 467 882 l 617 1128 l 703 1128 q 687 1090 699 1107 q 651 1050 675 1074 l 481 882 l 467 882 z "},"ê":{"ha":724,"x_min":14,"x_max":685,"o":"m 14 0 l 18 21 l 114 60 l 233 718 l 151 757 l 156 778 l 685 778 l 649 581 l 626 581 l 601 726 l 324 726 l 269 429 l 467 429 l 528 526 l 550 526 l 503 278 l 481 278 l 458 378 l 260 378 l 200 51 l 522 51 l 604 210 l 626 210 l 589 0 l 14 0 m 286 882 l 500 1128 l 531 1128 l 657 882 l 643 882 l 500 1038 l 300 882 l 286 882 z "},"ě":{"ha":724,"x_min":14,"x_max":700,"o":"m 14 0 l 18 21 l 114 60 l 233 718 l 151 757 l 156 778 l 685 778 l 649 581 l 626 581 l 601 726 l 324 726 l 269 429 l 467 429 l 528 526 l 550 526 l 503 278 l 481 278 l 458 378 l 260 378 l 200 51 l 522 51 l 604 210 l 626 210 l 589 0 l 14 0 m 458 882 l 329 1128 l 343 1128 l 486 972 l 686 1128 l 700 1128 l 489 882 l 458 882 z "},"ẽ":{"ha":724,"x_min":14,"x_max":699,"o":"m 14 0 l 18 21 l 114 60 l 233 718 l 151 757 l 156 778 l 685 778 l 649 581 l 626 581 l 601 726 l 324 726 l 269 429 l 467 429 l 528 526 l 550 526 l 503 278 l 481 278 l 458 378 l 260 378 l 200 51 l 522 51 l 604 210 l 626 210 l 589 0 l 14 0 m 286 918 q 341 1028 318 990 q 384 1078 364 1065 q 428 1090 404 1090 q 472 1074 453 1090 q 507 1034 490 1057 q 541 994 524 1011 q 579 978 558 978 q 626 1002 604 978 q 681 1090 647 1026 l 699 1090 q 644 981 667 1018 q 601 931 621 943 q 557 918 581 918 q 513 935 532 918 q 478 974 494 951 q 444 1014 461 997 q 406 1031 426 1031 q 359 1006 381 1031 q 304 918 338 982 l 286 918 z "},"ë":{"ha":724,"x_min":14,"x_max":685,"o":"m 14 0 l 18 21 l 114 60 l 233 718 l 151 757 l 156 778 l 685 778 l 649 581 l 626 581 l 601 726 l 324 726 l 269 429 l 467 429 l 528 526 l 550 526 l 503 278 l 481 278 l 458 378 l 260 378 l 200 51 l 522 51 l 604 210 l 626 210 l 589 0 l 14 0 m 376 947 q 336 963 353 947 q 319 1003 319 979 q 336 1043 319 1026 q 376 1060 353 1060 q 416 1043 400 1060 q 432 1003 432 1026 q 416 963 432 979 q 376 947 400 947 m 607 947 q 567 963 583 947 q 551 1003 551 979 q 567 1043 551 1026 q 607 1060 583 1060 q 647 1043 631 1060 q 664 1003 664 1026 q 647 963 664 979 q 607 947 631 947 z "},"ē":{"ha":724,"x_min":14,"x_max":685,"o":"m 14 0 l 18 21 l 114 60 l 233 718 l 151 757 l 156 778 l 685 778 l 649 581 l 626 581 l 601 726 l 324 726 l 269 429 l 467 429 l 528 526 l 550 526 l 503 278 l 481 278 l 458 378 l 260 378 l 200 51 l 522 51 l 604 210 l 626 210 l 589 0 l 14 0 m 317 978 l 326 1028 l 668 1028 l 658 978 l 317 978 z "},"ĕ":{"ha":724,"x_min":14,"x_max":697,"o":"m 14 0 l 18 21 l 114 60 l 233 718 l 151 757 l 156 778 l 685 778 l 649 581 l 626 581 l 601 726 l 324 726 l 269 429 l 467 429 l 528 526 l 550 526 l 503 278 l 481 278 l 458 378 l 260 378 l 200 51 l 522 51 l 604 210 l 626 210 l 589 0 l 14 0 m 476 896 q 360 956 390 896 q 326 1128 329 1015 l 340 1128 q 369 1018 351 1054 q 415 969 388 982 q 485 957 443 957 q 557 970 525 957 q 619 1020 589 983 q 683 1128 649 1057 l 697 1128 q 606 953 657 1010 q 476 896 554 896 z "},"ė":{"ha":724,"x_min":14,"x_max":685,"o":"m 14 0 l 18 21 l 114 60 l 233 718 l 151 757 l 156 778 l 685 778 l 649 581 l 626 581 l 601 726 l 324 726 l 269 429 l 467 429 l 528 526 l 550 526 l 503 278 l 481 278 l 458 378 l 260 378 l 200 51 l 522 51 l 604 210 l 626 210 l 589 0 l 14 0 m 494 940 q 449 958 468 940 q 429 1004 429 976 q 449 1050 429 1032 q 494 1068 468 1068 q 540 1050 521 1068 q 558 1004 558 1032 q 540 958 558 976 q 494 940 521 940 z "},"ę":{"ha":724,"x_min":14,"x_max":685,"o":"m 14 0 l 18 21 l 114 60 l 233 718 l 151 757 l 156 778 l 685 778 l 649 581 l 626 581 l 601 726 l 324 726 l 269 429 l 467 429 l 528 526 l 550 526 l 503 278 l 481 278 l 458 378 l 260 378 l 200 51 l 522 51 l 604 210 l 626 210 l 589 0 l 514 0 q 428 -109 457 -60 q 399 -210 399 -158 q 420 -269 399 -250 q 481 -287 442 -287 q 517 -282 497 -287 q 554 -265 536 -276 l 558 -265 l 556 -282 q 508 -319 536 -306 q 444 -333 481 -333 q 363 -305 393 -333 q 332 -226 332 -276 q 374 -114 332 -169 q 482 0 417 -58 l 14 0 z "},"ẹ":{"ha":724,"x_min":14,"x_max":685,"o":"m 14 0 l 18 21 l 114 60 l 233 718 l 151 757 l 156 778 l 685 778 l 649 581 l 626 581 l 601 726 l 324 726 l 269 429 l 467 429 l 528 526 l 550 526 l 503 278 l 481 278 l 458 378 l 260 378 l 200 51 l 522 51 l 604 210 l 626 210 l 589 0 l 14 0 m 301 -275 q 256 -257 274 -275 q 238 -211 238 -239 q 256 -165 238 -183 q 301 -147 274 -147 q 347 -165 329 -147 q 365 -211 365 -183 q 347 -257 365 -239 q 301 -275 329 -275 z "},"ȅ":{"ha":724,"x_min":14,"x_max":685,"o":"m 14 0 l 18 21 l 114 60 l 233 718 l 151 757 l 156 778 l 685 778 l 649 581 l 626 581 l 601 726 l 324 726 l 269 429 l 467 429 l 528 526 l 550 526 l 503 278 l 481 278 l 458 378 l 260 378 l 200 51 l 522 51 l 604 210 l 626 210 l 589 0 l 14 0 m 535 882 l 406 1043 q 381 1088 386 1069 q 379 1128 376 1107 l 443 1128 l 549 882 l 535 882 m 385 882 l 243 1043 q 216 1088 221 1068 q 215 1128 211 1108 l 278 1128 l 399 882 l 385 882 z "},"ȇ":{"ha":724,"x_min":14,"x_max":685,"o":"m 14 0 l 18 21 l 114 60 l 233 718 l 151 757 l 156 778 l 685 778 l 649 581 l 626 581 l 601 726 l 324 726 l 269 429 l 467 429 l 528 526 l 550 526 l 503 278 l 481 278 l 458 378 l 260 378 l 200 51 l 522 51 l 604 210 l 626 210 l 589 0 l 14 0 m 285 896 q 376 1071 324 1014 q 506 1128 428 1128 q 621 1068 590 1128 q 654 896 651 1008 l 640 896 q 611 1005 629 968 q 565 1054 593 1042 q 497 1067 538 1067 q 425 1053 457 1067 q 363 1004 393 1040 q 299 896 332 968 l 285 896 z "},"ế":{"ha":724,"x_min":14,"x_max":828,"o":"m 14 0 l 18 21 l 114 60 l 233 718 l 151 757 l 156 778 l 685 778 l 649 581 l 626 581 l 601 726 l 324 726 l 269 429 l 467 429 l 528 526 l 550 526 l 503 278 l 481 278 l 458 378 l 260 378 l 200 51 l 522 51 l 604 210 l 626 210 l 589 0 l 14 0 m 646 1031 l 743 1229 l 828 1229 q 813 1192 824 1208 q 778 1153 801 1175 l 658 1031 l 646 1031 m 285 882 l 499 1128 l 529 1128 l 657 882 l 643 882 l 499 1038 l 299 882 l 285 882 z "},"ệ":{"ha":724,"x_min":14,"x_max":685,"o":"m 14 0 l 18 21 l 114 60 l 233 718 l 151 757 l 156 778 l 685 778 l 649 581 l 626 581 l 601 726 l 324 726 l 269 429 l 467 429 l 528 526 l 550 526 l 503 278 l 481 278 l 458 378 l 260 378 l 200 51 l 522 51 l 604 210 l 626 210 l 589 0 l 14 0 m 286 882 l 500 1128 l 531 1128 l 657 882 l 643 882 l 500 1038 l 300 882 l 286 882 m 301 -275 q 256 -257 274 -275 q 238 -211 238 -239 q 256 -165 238 -183 q 301 -147 274 -147 q 347 -165 329 -147 q 365 -211 365 -183 q 347 -257 365 -239 q 301 -275 329 -275 z "},"ề":{"ha":724,"x_min":14,"x_max":685,"o":"m 14 0 l 18 21 l 114 60 l 233 718 l 151 757 l 156 778 l 685 778 l 649 581 l 626 581 l 601 726 l 324 726 l 269 429 l 467 429 l 528 526 l 550 526 l 503 278 l 481 278 l 458 378 l 260 378 l 200 51 l 522 51 l 604 210 l 626 210 l 589 0 l 14 0 m 314 1031 l 192 1151 q 163 1229 153 1188 l 235 1229 l 328 1031 l 314 1031 m 285 882 l 499 1128 l 529 1128 l 657 882 l 643 882 l 499 1038 l 299 882 l 285 882 z "},"ể":{"ha":724,"x_min":14,"x_max":685,"o":"m 14 0 l 18 21 l 114 60 l 233 718 l 151 757 l 156 778 l 685 778 l 649 581 l 626 581 l 601 726 l 324 726 l 269 429 l 467 429 l 528 526 l 550 526 l 503 278 l 481 278 l 458 378 l 260 378 l 200 51 l 522 51 l 604 210 l 626 210 l 589 0 l 14 0 z "},"ễ":{"ha":724,"x_min":14,"x_max":749,"o":"m 14 0 l 18 21 l 114 60 l 233 718 l 151 757 l 156 778 l 685 778 l 649 581 l 626 581 l 601 726 l 324 726 l 269 429 l 467 429 l 528 526 l 550 526 l 503 278 l 481 278 l 458 378 l 260 378 l 200 51 l 522 51 l 604 210 l 626 210 l 589 0 l 14 0 z "},"ẻ":{"ha":724,"x_min":14,"x_max":685,"o":"m 14 0 l 18 21 l 114 60 l 233 718 l 151 757 l 156 778 l 685 778 l 649 581 l 626 581 l 601 726 l 324 726 l 269 429 l 467 429 l 528 526 l 550 526 l 503 278 l 481 278 l 458 378 l 260 378 l 200 51 l 522 51 l 604 210 l 626 210 l 589 0 l 14 0 m 411 896 l 411 897 q 504 938 474 915 q 535 1000 535 960 q 513 1048 535 1028 q 435 1076 490 1068 l 454 1128 q 556 1090 526 1121 q 586 1022 586 1058 q 418 888 586 922 l 411 896 z "},"ḕ":{"ha":724,"x_min":14,"x_max":685,"o":"m 14 0 l 18 21 l 114 60 l 233 718 l 151 757 l 156 778 l 685 778 l 649 581 l 626 581 l 601 726 l 324 726 l 269 429 l 467 429 l 528 526 l 550 526 l 503 278 l 481 278 l 458 378 l 260 378 l 200 51 l 522 51 l 604 210 l 626 210 l 589 0 l 14 0 z "},"ḗ":{"ha":724,"x_min":14,"x_max":739,"o":"m 14 0 l 18 21 l 114 60 l 233 718 l 151 757 l 156 778 l 685 778 l 649 581 l 626 581 l 601 726 l 324 726 l 269 429 l 467 429 l 528 526 l 550 526 l 503 278 l 481 278 l 458 378 l 260 378 l 200 51 l 522 51 l 604 210 l 626 210 l 589 0 l 14 0 z "},"ḝ":{"ha":724,"x_min":14,"x_max":697,"o":"m 476 896 q 360 956 392 896 q 326 1128 329 1015 l 340 1128 q 369 1019 351 1056 q 416 969 388 982 q 485 957 444 957 q 557 970 525 957 q 619 1019 589 983 q 683 1128 650 1056 l 697 1128 q 606 953 658 1010 q 476 896 554 896 m 14 0 l 18 21 l 114 60 l 233 718 l 151 757 l 156 778 l 685 778 l 649 581 l 626 581 l 601 726 l 324 726 l 269 429 l 467 429 l 528 526 l 550 526 l 503 278 l 481 278 l 458 378 l 260 378 l 200 51 l 522 51 l 604 210 l 626 210 l 589 0 l 354 0 l 299 -87 q 396 -135 364 -106 q 428 -214 428 -164 q 388 -300 428 -267 q 283 -333 347 -333 q 227 -324 254 -333 q 185 -299 200 -315 l 188 -285 l 192 -285 q 275 -306 229 -306 q 344 -286 319 -306 q 369 -231 369 -267 q 340 -171 369 -192 q 238 -132 311 -150 l 321 0 l 14 0 z "},"ĝ":{"ha":886,"x_min":83,"x_max":793,"o":"m 390 -14 q 228 28 297 -14 q 122 142 160 69 q 83 306 83 214 q 117 494 83 406 q 213 649 151 582 q 357 755 274 717 q 540 793 440 793 q 672 778 621 793 q 775 735 724 764 l 747 547 l 725 547 l 692 685 q 528 742 631 742 q 338 687 417 742 q 217 540 258 632 q 175 335 175 447 q 244 113 175 194 q 432 32 313 32 q 501 38 467 32 q 574 60 536 44 l 613 285 l 515 319 l 519 340 l 793 340 l 789 319 l 701 285 l 663 71 q 542 8 611 31 q 390 -14 472 -14 m 365 882 l 579 1128 l 610 1128 l 736 882 l 722 882 l 579 1038 l 379 882 l 365 882 z "},"ğ":{"ha":886,"x_min":83,"x_max":793,"o":"m 390 -14 q 228 28 297 -14 q 122 142 160 69 q 83 306 83 214 q 117 494 83 406 q 213 649 151 582 q 357 755 274 717 q 540 793 440 793 q 672 778 621 793 q 775 735 724 764 l 747 547 l 725 547 l 692 685 q 528 742 631 742 q 338 687 417 742 q 217 540 258 632 q 175 335 175 447 q 244 113 175 194 q 432 32 313 32 q 501 38 467 32 q 574 60 536 44 l 613 285 l 515 319 l 519 340 l 793 340 l 789 319 l 701 285 l 663 71 q 542 8 611 31 q 390 -14 472 -14 m 556 896 q 439 956 469 896 q 406 1128 408 1015 l 419 1128 q 449 1018 431 1054 q 494 969 467 982 q 564 957 522 957 q 636 970 604 957 q 698 1020 668 983 q 763 1128 728 1057 l 776 1128 q 685 953 736 1010 q 556 896 633 896 z "},"ġ":{"ha":886,"x_min":83,"x_max":793,"o":"m 390 -14 q 228 28 297 -14 q 122 142 160 69 q 83 306 83 214 q 117 494 83 406 q 213 649 151 582 q 357 755 274 717 q 540 793 440 793 q 672 778 621 793 q 775 735 724 764 l 747 547 l 725 547 l 692 685 q 528 742 631 742 q 338 687 417 742 q 217 540 258 632 q 175 335 175 447 q 244 113 175 194 q 432 32 313 32 q 501 38 467 32 q 574 60 536 44 l 613 285 l 515 319 l 519 340 l 793 340 l 789 319 l 701 285 l 663 71 q 542 8 611 31 q 390 -14 472 -14 m 574 940 q 528 958 547 940 q 508 1004 508 976 q 528 1050 508 1032 q 574 1068 547 1068 q 619 1050 600 1068 q 638 1004 638 1032 q 619 958 638 976 q 574 940 600 940 z "},"ģ":{"ha":886,"x_min":83,"x_max":793,"o":"m 390 -14 q 228 28 297 -14 q 122 142 160 69 q 83 306 83 214 q 117 494 83 406 q 213 649 151 582 q 357 755 274 717 q 540 793 440 793 q 672 778 621 793 q 775 735 724 764 l 747 547 l 725 547 l 692 685 q 528 742 631 742 q 338 687 417 742 q 217 540 258 632 q 175 335 175 447 q 244 113 175 194 q 432 32 313 32 q 501 38 467 32 q 574 60 536 44 l 613 285 l 515 319 l 519 340 l 793 340 l 789 319 l 701 285 l 663 71 q 542 8 611 31 q 390 -14 472 -14 m 600 897 q 498 926 533 899 q 463 999 463 953 q 508 1082 463 1053 q 622 1111 553 1111 q 647 1110 633 1111 q 669 1107 660 1110 l 665 1093 q 647 1095 656 1094 q 629 1096 639 1096 q 553 1077 583 1096 q 524 1019 524 1058 q 554 967 524 982 q 650 951 585 951 l 643 922 q 631 903 639 910 q 600 897 622 897 z "},"ǧ":{"ha":886,"x_min":83,"x_max":793,"o":"m 390 -14 q 228 28 297 -14 q 122 142 160 69 q 83 306 83 214 q 117 494 83 406 q 213 649 151 582 q 357 755 274 717 q 540 793 440 793 q 672 778 621 793 q 775 735 724 764 l 747 547 l 725 547 l 692 685 q 528 742 631 742 q 338 687 417 742 q 217 540 258 632 q 175 335 175 447 q 244 113 175 194 q 432 32 313 32 q 501 38 467 32 q 574 60 536 44 l 613 285 l 515 319 l 519 340 l 793 340 l 789 319 l 701 285 l 663 71 q 542 8 611 31 q 390 -14 472 -14 m 538 882 l 408 1128 l 422 1128 l 565 972 l 765 1128 l 779 1128 l 568 882 l 538 882 z "},"ḡ":{"ha":886,"x_min":83,"x_max":793,"o":"m 390 -14 q 228 28 297 -14 q 122 142 160 69 q 83 306 83 214 q 117 494 83 406 q 213 649 151 582 q 357 755 274 717 q 540 793 440 793 q 672 778 621 793 q 775 735 724 764 l 747 547 l 725 547 l 692 685 q 528 742 631 742 q 338 687 417 742 q 217 540 258 632 q 175 335 175 447 q 244 113 175 194 q 432 32 313 32 q 501 38 467 32 q 574 60 536 44 l 613 285 l 515 319 l 519 340 l 793 340 l 789 319 l 701 285 l 663 71 q 542 8 611 31 q 390 -14 472 -14 m 396 978 l 406 1028 l 747 1028 l 738 978 l 396 978 z "},"ĥ":{"ha":911,"x_min":14,"x_max":897,"o":"m 14 0 l 18 21 l 107 60 l 226 718 l 139 757 l 143 778 l 414 778 l 410 757 l 314 718 l 261 429 l 660 429 l 713 718 l 622 757 l 628 778 l 897 778 l 893 757 l 800 718 l 681 60 l 772 21 l 768 0 l 497 0 l 501 21 l 592 60 l 650 378 l 253 378 l 194 60 l 289 21 l 285 0 l 14 0 m 356 882 l 569 1128 l 600 1128 l 726 882 l 713 882 l 569 1038 l 369 882 l 356 882 z "},"ħ":{"ha":911,"x_min":14,"x_max":897,"o":"m 14 0 l 18 21 l 107 60 l 200 571 l 110 571 l 118 618 l 208 618 l 226 718 l 139 757 l 143 778 l 414 778 l 410 757 l 314 718 l 296 618 l 694 618 l 713 718 l 622 757 l 628 778 l 897 778 l 893 757 l 800 718 l 782 618 l 871 618 l 861 571 l 774 571 l 681 60 l 772 21 l 768 0 l 497 0 l 501 21 l 592 60 l 650 378 l 253 378 l 194 60 l 289 21 l 285 0 l 14 0 m 261 429 l 660 429 l 686 571 l 288 571 l 261 429 z "},"ḥ":{"ha":911,"x_min":14,"x_max":897,"o":"m 14 0 l 18 21 l 107 60 l 226 718 l 139 757 l 143 778 l 414 778 l 410 757 l 314 718 l 261 429 l 660 429 l 713 718 l 622 757 l 628 778 l 897 778 l 893 757 l 800 718 l 681 60 l 772 21 l 768 0 l 497 0 l 501 21 l 592 60 l 650 378 l 253 378 l 194 60 l 289 21 l 285 0 l 14 0 m 356 -275 q 310 -257 328 -275 q 292 -211 292 -239 q 310 -165 292 -183 q 356 -147 328 -147 q 401 -165 383 -147 q 419 -211 419 -183 q 401 -257 419 -239 q 356 -275 383 -275 z "},"ḫ":{"ha":911,"x_min":14,"x_max":897,"o":"m 14 0 l 18 21 l 107 60 l 226 718 l 139 757 l 143 778 l 414 778 l 410 757 l 314 718 l 261 429 l 660 429 l 713 718 l 622 757 l 628 778 l 897 778 l 893 757 l 800 718 l 681 60 l 772 21 l 768 0 l 497 0 l 501 21 l 592 60 l 650 378 l 253 378 l 194 60 l 289 21 l 285 0 l 14 0 m 338 -322 q 222 -263 253 -322 q 188 -90 190 -204 l 201 -90 q 231 -200 213 -164 q 276 -249 249 -236 q 344 -261 304 -261 q 417 -249 385 -261 q 479 -199 449 -236 q 544 -90 510 -162 l 558 -90 q 467 -265 518 -208 q 338 -322 415 -322 z "},"ì":{"ha":419,"x_min":14,"x_max":406,"o":"m 14 0 l 18 21 l 106 60 l 224 718 l 142 757 l 146 778 l 406 778 l 401 757 l 311 718 l 194 60 l 278 21 l 274 0 l 14 0 m 286 882 l 117 1053 q 94 1090 97 1071 q 97 1128 92 1110 l 171 1128 l 300 882 l 286 882 z "},"í":{"ha":419,"x_min":14,"x_max":525,"o":"m 14 0 l 18 21 l 106 60 l 224 718 l 142 757 l 146 778 l 406 778 l 401 757 l 311 718 l 194 60 l 278 21 l 274 0 l 14 0 m 289 882 l 439 1128 l 525 1128 q 509 1090 521 1107 q 474 1050 497 1074 l 303 882 l 289 882 z "},"î":{"ha":419,"x_min":14,"x_max":479,"o":"m 14 0 l 18 21 l 106 60 l 224 718 l 142 757 l 146 778 l 406 778 l 401 757 l 311 718 l 194 60 l 278 21 l 274 0 l 14 0 m 108 882 l 322 1128 l 353 1128 l 479 882 l 465 882 l 322 1038 l 122 882 l 108 882 z "},"ĩ":{"ha":419,"x_min":14,"x_max":522,"o":"m 14 0 l 18 21 l 106 60 l 224 718 l 142 757 l 146 778 l 406 778 l 401 757 l 311 718 l 194 60 l 278 21 l 274 0 l 14 0 m 110 918 q 165 1028 142 990 q 208 1078 188 1065 q 251 1090 228 1090 q 295 1074 276 1090 q 331 1034 314 1057 q 365 994 347 1011 q 403 978 382 978 q 449 1002 428 978 q 504 1090 471 1026 l 522 1090 q 467 981 490 1018 q 424 931 444 943 q 381 918 404 918 q 337 935 356 918 q 301 974 318 951 q 267 1014 285 997 q 229 1031 250 1031 q 183 1006 204 1031 q 128 918 161 982 l 110 918 z "},"ï":{"ha":419,"x_min":14,"x_max":488,"o":"m 14 0 l 18 21 l 106 60 l 224 718 l 142 757 l 146 778 l 406 778 l 401 757 l 311 718 l 194 60 l 278 21 l 274 0 l 14 0 m 200 947 q 160 963 176 947 q 143 1003 143 979 q 160 1043 143 1026 q 200 1060 176 1060 q 240 1043 224 1060 q 256 1003 256 1026 q 240 963 256 979 q 200 947 224 947 m 431 947 q 391 963 407 947 q 375 1003 375 979 q 391 1043 375 1026 q 431 1060 407 1060 q 471 1043 454 1060 q 488 1003 488 1026 q 471 963 488 979 q 431 947 454 947 z "},"ī":{"ha":419,"x_min":14,"x_max":490,"o":"m 14 0 l 18 21 l 106 60 l 224 718 l 142 757 l 146 778 l 406 778 l 401 757 l 311 718 l 194 60 l 278 21 l 274 0 l 14 0 m 139 978 l 149 1028 l 490 1028 l 481 978 l 139 978 z "},"ĭ":{"ha":419,"x_min":14,"x_max":519,"o":"m 14 0 l 18 21 l 106 60 l 224 718 l 142 757 l 146 778 l 406 778 l 401 757 l 311 718 l 194 60 l 278 21 l 274 0 l 14 0 m 299 896 q 182 956 213 896 q 149 1128 151 1015 l 163 1128 q 192 1018 174 1054 q 238 969 210 982 q 307 957 265 957 q 379 970 347 957 q 441 1020 411 983 q 506 1128 471 1057 l 519 1128 q 428 953 479 1010 q 299 896 376 896 z "},"į":{"ha":419,"x_min":-15,"x_max":406,"o":"m 14 0 l 18 21 l 106 60 l 224 718 l 142 757 l 146 778 l 406 778 l 401 757 l 311 718 l 194 60 l 278 21 l 274 0 l 167 0 q 81 -109 110 -60 q 51 -210 51 -158 q 73 -269 51 -250 q 133 -287 94 -287 q 169 -282 150 -287 q 207 -265 189 -276 l 211 -265 l 208 -282 q 162 -319 190 -306 q 97 -333 133 -333 q 15 -305 46 -333 q -15 -226 -15 -276 q 27 -114 -15 -169 q 135 0 69 -58 l 14 0 z "},"ị":{"ha":419,"x_min":14,"x_max":406,"o":"m 14 0 l 18 21 l 106 60 l 224 718 l 142 757 l 146 778 l 406 778 l 401 757 l 311 718 l 194 60 l 278 21 l 274 0 l 14 0 m 103 -275 q 57 -257 75 -275 q 39 -211 39 -239 q 57 -165 39 -183 q 103 -147 75 -147 q 149 -165 131 -147 q 167 -211 167 -183 q 149 -257 167 -239 q 103 -275 131 -275 z "},"ȉ":{"ha":419,"x_min":14,"x_max":406,"o":"m 14 0 l 18 21 l 106 60 l 224 718 l 142 757 l 146 778 l 406 778 l 401 757 l 311 718 l 194 60 l 278 21 l 274 0 l 14 0 m 357 882 l 228 1043 q 203 1088 208 1069 q 201 1128 199 1107 l 265 1128 l 371 882 l 357 882 m 207 882 l 65 1043 q 38 1088 43 1068 q 38 1128 33 1108 l 100 1128 l 221 882 l 207 882 z "},"ȋ":{"ha":419,"x_min":14,"x_max":478,"o":"m 14 0 l 18 21 l 106 60 l 224 718 l 142 757 l 146 778 l 406 778 l 401 757 l 311 718 l 194 60 l 278 21 l 274 0 l 14 0 m 108 896 q 199 1071 147 1014 q 329 1128 251 1128 q 444 1068 414 1128 q 478 896 475 1008 l 464 896 q 435 1005 453 968 q 389 1054 417 1042 q 321 1067 361 1067 q 249 1053 281 1067 q 186 1004 217 1040 q 122 896 156 968 l 108 896 z "},"ỉ":{"ha":419,"x_min":14,"x_max":408,"o":"m 14 0 l 18 21 l 106 60 l 224 718 l 142 757 l 146 778 l 406 778 l 401 757 l 311 718 l 194 60 l 278 21 l 274 0 l 14 0 m 233 896 l 233 897 q 326 938 296 915 q 357 1000 357 960 q 335 1048 357 1028 q 257 1076 313 1068 l 276 1128 q 378 1090 349 1121 q 408 1022 408 1058 q 240 888 408 922 l 233 896 z "},"ḯ":{"ha":419,"x_min":14,"x_max":563,"o":"m 14 0 l 18 21 l 106 60 l 224 718 l 142 757 l 146 778 l 406 778 l 401 757 l 311 718 l 194 60 l 278 21 l 274 0 l 14 0 z "},"ĳ":{"ha":833,"x_min":14,"x_max":825,"o":"m 14 0 l 18 21 l 106 60 l 224 718 l 142 757 l 146 778 l 406 778 l 401 757 l 311 718 l 194 60 l 278 21 l 274 0 l 14 0 m 368 -204 q 341 -192 351 -204 q 338 -158 331 -181 l 356 -106 l 363 -106 q 387 -112 378 -110 q 410 -115 396 -115 q 457 -101 436 -115 q 494 -49 478 -87 q 524 61 511 -11 l 642 718 l 561 757 l 565 778 l 825 778 l 821 757 l 729 718 l 649 265 q 588 26 624 125 q 500 -124 553 -72 q 424 -188 450 -172 q 368 -204 397 -204 z "},"ĵ":{"ha":413,"x_min":-89,"x_max":479,"o":"m -51 -204 q -78 -192 -68 -204 q -82 -158 -89 -181 l -64 -106 l -57 -106 q -33 -112 -42 -110 q -10 -115 -24 -115 q 38 -101 17 -115 q 75 -49 58 -87 q 104 61 92 -11 l 222 718 l 142 757 l 146 778 l 406 778 l 401 757 l 310 718 l 229 265 q 169 26 204 125 q 81 -124 133 -72 q 4 -188 31 -172 q -51 -204 -22 -204 m 108 882 l 322 1128 l 353 1128 l 479 882 l 465 882 l 322 1038 l 122 882 l 108 882 z "},"ķ":{"ha":811,"x_min":14,"x_max":789,"o":"m 14 0 l 18 21 l 111 60 l 229 718 l 149 757 l 153 778 l 417 778 l 413 757 l 318 718 l 199 60 l 288 21 l 283 0 l 14 0 m 560 0 l 261 399 l 613 722 l 536 757 l 540 778 l 789 778 l 783 757 l 707 731 l 350 417 l 631 56 l 708 21 l 704 0 l 560 0 m 283 -332 q 260 -331 274 -332 q 236 -328 246 -331 l 240 -314 q 259 -316 250 -315 q 278 -317 268 -317 q 352 -297 322 -317 q 382 -239 382 -278 q 351 -187 382 -203 q 257 -172 321 -172 l 264 -143 q 276 -124 267 -131 q 307 -118 285 -118 q 408 -147 372 -119 q 443 -219 443 -174 q 398 -303 443 -274 q 283 -332 353 -332 z "},"ĺ":{"ha":713,"x_min":14,"x_max":606,"o":"m 14 0 l 18 21 l 111 60 l 231 718 l 149 757 l 153 778 l 429 778 l 425 757 l 318 718 l 199 51 l 486 51 l 585 253 l 606 253 l 560 0 l 14 0 m 296 882 l 446 1128 l 532 1128 q 516 1090 528 1107 q 481 1050 504 1074 l 310 882 l 296 882 z "},"ľ":{"ha":713,"x_min":14,"x_max":619,"o":"m 14 0 l 18 21 l 111 60 l 231 718 l 149 757 l 153 778 l 429 778 l 425 757 l 318 718 l 199 51 l 486 51 l 585 253 l 606 253 l 560 0 l 14 0 m 451 518 l 538 778 l 617 778 q 613 735 619 756 q 586 688 606 715 l 465 518 l 451 518 z "},"ļ":{"ha":713,"x_min":14,"x_max":606,"o":"m 14 0 l 18 21 l 111 60 l 231 718 l 149 757 l 153 778 l 429 778 l 425 757 l 318 718 l 199 51 l 486 51 l 585 253 l 606 253 l 560 0 l 14 0 m 226 -332 q 203 -331 217 -332 q 179 -328 189 -331 l 183 -314 q 202 -316 193 -315 q 221 -317 211 -317 q 295 -297 265 -317 q 325 -239 325 -278 q 294 -187 325 -203 q 200 -172 264 -172 l 207 -143 q 219 -124 210 -131 q 250 -118 228 -118 q 351 -147 315 -119 q 386 -219 386 -174 q 341 -303 386 -274 q 226 -332 296 -332 z "},"ł":{"ha":713,"x_min":14,"x_max":606,"o":"m 14 0 l 18 21 l 111 60 l 157 315 l 60 258 l 71 315 l 168 372 l 231 718 l 149 757 l 153 778 l 429 778 l 425 757 l 318 718 l 264 417 l 486 542 l 475 485 l 254 360 l 199 51 l 486 51 l 585 253 l 606 253 l 560 0 l 14 0 z "},"ŀ":{"ha":713,"x_min":14,"x_max":635,"o":"m 14 0 l 18 21 l 111 60 l 231 718 l 149 757 l 153 778 l 429 778 l 425 757 l 318 718 l 199 51 l 486 51 l 585 253 l 606 253 l 560 0 l 14 0 m 571 338 q 525 356 544 338 q 506 401 506 374 q 525 447 506 429 q 571 465 544 465 q 616 447 597 465 q 635 401 635 429 q 616 356 635 374 q 571 338 597 338 z "},"ḷ":{"ha":713,"x_min":14,"x_max":606,"o":"m 14 0 l 18 21 l 111 60 l 231 718 l 149 757 l 153 778 l 429 778 l 425 757 l 318 718 l 199 51 l 486 51 l 585 253 l 606 253 l 560 0 l 14 0 m 281 -275 q 235 -257 253 -275 q 217 -211 217 -239 q 235 -165 217 -183 q 281 -147 253 -147 q 326 -165 308 -147 q 344 -211 344 -183 q 326 -257 344 -239 q 281 -275 308 -275 z "},"ḻ":{"ha":713,"x_min":14,"x_max":606,"o":"m 14 0 l 18 21 l 111 60 l 231 718 l 149 757 l 153 778 l 429 778 l 425 757 l 318 718 l 199 51 l 486 51 l 585 253 l 606 253 l 560 0 l 14 0 m 104 -232 l 114 -182 l 456 -182 l 447 -232 l 104 -232 z "},"ṃ":{"ha":1086,"x_min":14,"x_max":1072,"o":"m 14 0 l 18 21 l 113 60 l 256 719 l 161 757 l 165 778 l 367 778 l 513 140 l 875 778 l 1072 778 l 1068 757 l 969 718 l 888 60 l 960 21 l 956 0 l 704 0 l 708 21 l 797 60 l 876 671 l 489 -6 l 453 -6 l 299 679 l 171 60 l 254 21 l 250 0 l 14 0 m 438 -276 q 392 -258 410 -276 q 374 -212 374 -240 q 392 -167 374 -185 q 438 -149 410 -149 q 483 -167 465 -149 q 501 -212 501 -185 q 483 -258 501 -240 q 438 -276 465 -276 z "},"ń":{"ha":903,"x_min":14,"x_max":892,"o":"m 14 0 l 18 21 l 113 60 l 233 718 l 143 757 l 147 778 l 315 778 l 640 163 l 739 719 l 635 757 l 639 778 l 892 778 l 888 757 l 796 719 l 667 -6 l 632 -6 l 278 657 l 171 61 l 271 21 l 267 0 l 14 0 m 544 882 l 694 1128 l 781 1128 q 765 1090 776 1107 q 729 1050 753 1074 l 558 882 l 544 882 z "},"ň":{"ha":903,"x_min":14,"x_max":892,"o":"m 14 0 l 18 21 l 113 60 l 233 718 l 143 757 l 147 778 l 315 778 l 640 163 l 739 719 l 635 757 l 639 778 l 892 778 l 888 757 l 796 719 l 667 -6 l 632 -6 l 278 657 l 171 61 l 271 21 l 267 0 l 14 0 m 538 882 l 408 1128 l 422 1128 l 565 972 l 765 1128 l 779 1128 l 568 882 l 538 882 z "},"ñ":{"ha":903,"x_min":14,"x_max":892,"o":"m 14 0 l 18 21 l 113 60 l 233 718 l 143 757 l 147 778 l 315 778 l 640 163 l 739 719 l 635 757 l 639 778 l 892 778 l 888 757 l 796 719 l 667 -6 l 632 -6 l 278 657 l 171 61 l 271 21 l 267 0 l 14 0 m 365 918 q 420 1028 397 990 q 463 1078 443 1065 q 507 1090 483 1090 q 551 1074 532 1090 q 586 1034 569 1057 q 620 994 603 1011 q 658 978 638 978 q 705 1002 683 978 q 760 1090 726 1026 l 778 1090 q 723 981 746 1018 q 680 931 700 943 q 636 918 660 918 q 592 935 611 918 q 557 974 574 951 q 523 1014 540 997 q 485 1031 506 1031 q 438 1006 460 1031 q 383 918 417 982 l 365 918 z "},"ņ":{"ha":903,"x_min":14,"x_max":892,"o":"m 14 0 l 18 21 l 113 60 l 233 718 l 143 757 l 147 778 l 315 778 l 640 163 l 739 719 l 635 757 l 639 778 l 892 778 l 888 757 l 796 719 l 667 -6 l 632 -6 l 278 657 l 171 61 l 271 21 l 267 0 l 14 0 m 313 -333 q 289 -333 303 -333 q 265 -329 275 -332 l 269 -315 q 288 -317 279 -317 q 307 -318 297 -318 q 381 -299 351 -318 q 411 -240 411 -279 q 381 -189 411 -204 q 286 -174 350 -174 l 293 -144 q 305 -126 296 -132 q 336 -119 314 -119 q 437 -148 401 -121 q 472 -221 472 -175 q 427 -304 472 -275 q 313 -333 382 -333 z "},"ṅ":{"ha":903,"x_min":14,"x_max":892,"o":"m 14 0 l 18 21 l 113 60 l 233 718 l 143 757 l 147 778 l 315 778 l 640 163 l 739 719 l 635 757 l 639 778 l 892 778 l 888 757 l 796 719 l 667 -6 l 632 -6 l 278 657 l 171 61 l 271 21 l 267 0 l 14 0 m 572 940 q 526 958 546 940 q 507 1004 507 976 q 526 1050 507 1032 q 572 1068 546 1068 q 617 1050 599 1068 q 636 1004 636 1032 q 617 958 636 976 q 572 940 599 940 z "},"ṇ":{"ha":903,"x_min":14,"x_max":892,"o":"m 14 0 l 18 21 l 113 60 l 233 718 l 143 757 l 147 778 l 315 778 l 640 163 l 739 719 l 635 757 l 639 778 l 892 778 l 888 757 l 796 719 l 667 -6 l 632 -6 l 278 657 l 171 61 l 271 21 l 267 0 l 14 0 m 367 -276 q 321 -258 339 -276 q 303 -212 303 -240 q 321 -167 303 -185 q 367 -149 339 -149 q 413 -167 394 -149 q 431 -212 431 -185 q 413 -258 431 -240 q 367 -276 394 -276 z "},"ṉ":{"ha":903,"x_min":14,"x_max":892,"o":"m 14 0 l 18 21 l 113 60 l 233 718 l 143 757 l 147 778 l 315 778 l 640 163 l 739 719 l 635 757 l 639 778 l 892 778 l 888 757 l 796 719 l 667 -6 l 632 -6 l 278 657 l 171 61 l 271 21 l 267 0 l 14 0 m 190 -233 l 200 -183 l 542 -183 l 533 -233 l 190 -233 z "},"ò":{"ha":907,"x_min":83,"x_max":824,"o":"m 388 -14 q 227 28 296 -14 q 121 143 158 69 q 83 314 83 217 q 117 499 83 413 q 209 652 150 586 q 348 756 268 718 q 519 793 428 793 q 679 751 611 793 q 785 637 747 710 q 824 467 824 564 q 792 286 824 372 q 703 132 761 200 q 565 25 644 64 q 388 -14 485 -14 m 413 35 q 578 90 506 35 q 691 240 650 146 q 732 453 732 335 q 672 665 732 583 q 496 746 611 746 q 331 690 403 746 q 217 541 258 635 q 175 329 175 447 q 236 117 175 199 q 413 35 297 35 m 525 882 l 356 1053 q 333 1090 336 1071 q 336 1128 331 1110 l 410 1128 l 539 882 l 525 882 z "},"ó":{"ha":907,"x_min":83,"x_max":824,"o":"m 388 -14 q 227 28 296 -14 q 121 143 158 69 q 83 314 83 217 q 117 499 83 413 q 209 652 150 586 q 348 756 268 718 q 519 793 428 793 q 679 751 611 793 q 785 637 747 710 q 824 467 824 564 q 792 286 824 372 q 703 132 761 200 q 565 25 644 64 q 388 -14 485 -14 m 413 35 q 578 90 506 35 q 691 240 650 146 q 732 453 732 335 q 672 665 732 583 q 496 746 611 746 q 331 690 403 746 q 217 541 258 635 q 175 329 175 447 q 236 117 175 199 q 413 35 297 35 m 528 882 l 678 1128 l 764 1128 q 748 1090 760 1107 q 713 1050 736 1074 l 542 882 l 528 882 z "},"ô":{"ha":907,"x_min":83,"x_max":824,"o":"m 388 -14 q 227 28 296 -14 q 121 143 158 69 q 83 314 83 217 q 117 499 83 413 q 209 652 150 586 q 348 756 268 718 q 519 793 428 793 q 679 751 611 793 q 785 637 747 710 q 824 467 824 564 q 792 286 824 372 q 703 132 761 200 q 565 25 644 64 q 388 -14 485 -14 m 413 35 q 578 90 506 35 q 691 240 650 146 q 732 453 732 335 q 672 665 732 583 q 496 746 611 746 q 331 690 403 746 q 217 541 258 635 q 175 329 175 447 q 236 117 175 199 q 413 35 297 35 m 347 882 l 561 1128 l 592 1128 l 718 882 l 704 882 l 561 1038 l 361 882 l 347 882 z "},"õ":{"ha":907,"x_min":83,"x_max":824,"o":"m 388 -14 q 227 28 296 -14 q 121 143 158 69 q 83 314 83 217 q 117 499 83 413 q 209 652 150 586 q 348 756 268 718 q 519 793 428 793 q 679 751 611 793 q 785 637 747 710 q 824 467 824 564 q 792 286 824 372 q 703 132 761 200 q 565 25 644 64 q 388 -14 485 -14 m 413 35 q 578 90 506 35 q 691 240 650 146 q 732 453 732 335 q 672 665 732 583 q 496 746 611 746 q 331 690 403 746 q 217 541 258 635 q 175 329 175 447 q 236 117 175 199 q 413 35 297 35 m 349 918 q 403 1028 381 990 q 447 1078 426 1065 q 490 1090 467 1090 q 534 1074 515 1090 q 569 1034 553 1057 q 603 994 586 1011 q 642 978 621 978 q 688 1002 667 978 q 743 1090 710 1026 l 761 1090 q 706 981 729 1018 q 663 931 683 943 q 619 918 643 918 q 576 935 594 918 q 540 974 557 951 q 506 1014 524 997 q 468 1031 489 1031 q 422 1006 443 1031 q 367 918 400 982 l 349 918 z "}}}
